<svg width="200" height="60" viewBox="0 0 200 60" fill="none" xmlns="http://www.w3.org/2000/svg"><g clip-path="url(#clip0)" fill="#000"><path d="M29.538 13.679L52.014 55.05h9.05L38.886 13.68h-9.348zM16.012 60l15.614-4.85s1.79-8.017 8.354-17.915l-2.784-5.147C29.936 39.512 22.775 48.618 16.012 60zM48.434 26.843c7.658-8.018 18.398-15.44 33.913-19.895v3.761S87.22 5.167 99.95.614C90.005-.871 77.971.812 77.971.812l2.785 2.078S65.142 7.047 46.445 23.18l1.989 3.663zM29.14 37.136h-8.354c-1.691 2.673-4.078 4.652-6.863 4.652h-.099c-3.78 0-6.067-2.97-6.067-7.324v-.594h22.576c.597-1.98.796-4.058.895-6.137 0-6.928-4.376-12.966-12.929-12.966C7.46 14.767 0 23.972 0 34.662c0 7.423 4.973 12.966 12.929 12.966h.1c7.359 0 13.227-4.256 16.11-10.492zM17.305 20.508c4.575 0 6.067 4.157 6.067 7.324H9.05c1.492-3.959 4.376-7.324 8.255-7.324zM179.513 35.454l5.669 12.174h8.453l-8.553-17.024-5.569 4.85zM142.815 10.017c2.088 0 3.779-1.683 3.679-3.663 0-2.078-1.591-3.76-3.679-3.76a3.769 3.769 0 0 0-3.78 3.76c0 1.98 1.691 3.663 3.78 3.663zM128.394 2.593l-8.653 45.035h7.559l8.752-45.035h-7.658z"/><path d="M200 14.668h-9.448l-13.546 11.818 4.595-23.893h-7.558l-8.653 45.035h7.559l2.158-11.254L200 14.668zM97.961 28.228c0-6.235 2.487-11.778 6.365-15.143 2.884-2.673 7.061-4.058 11.139-4.058 3.779 0 6.862.791 8.255 1.583l1.392-6.631c-1.591-.693-4.674-1.485-8.553-1.485-6.365 0-11.835 1.683-16.41 5.147-6.464 4.652-10.343 12.471-10.343 21.577 0 11.382 7.26 18.31 18.697 18.31 3.282 0 6.166-.296 8.354-.89l1.293-6.73c-2.188.791-5.072 1.187-7.757 1.187-8.653 0-12.432-5.444-12.432-12.867zM137.345 14.767l-6.266 32.86h7.658l6.166-32.86h-7.558zM74.59 14.767c-10.84 0-18.3 9.205-18.3 19.895 0 7.423 4.973 12.966 13.029 12.966 10.74 0 18.2-9.205 18.2-19.895 0-6.928-4.376-12.966-12.93-12.966zM70.313 41.69h-.1c-3.778 0-6.066-2.97-6.066-7.324 0-5.84 3.481-13.857 9.548-13.857 4.475 0 5.967 4.058 6.066 7.126 0 6.335-3.779 14.055-9.448 14.055zM151.467 34.167c0-6.632 4.674-13.362 11.934-13.362 2.089 0 3.581.495 4.774.99l1.293-6.236c-1.392-.495-3.481-.89-5.768-.89-11.736 0-20.09 9.303-20.09 20.29 0 7.621 4.873 12.669 12.83 12.669 2.784 0 5.271-.396 7.061-.99l1.193-6.334c-1.591.692-3.58 1.286-6.265 1.286-4.277 0-6.962-2.672-6.962-7.423z"/></g><defs><clipPath id="clip0"><path fill="#fff" d="M0 0h200v60H0z"/></clipPath></defs></svg>