<svg width="233" height="57" viewBox="0 0 233 57" fill="none" xmlns="http://www.w3.org/2000/svg"><g clip-path="url(#clip0)" fill="#000"><path d="M19.971 18.86c.23-.01.37.07.48.31.32.692.56.18.819-.08-.09-.45-.3-.772-.79-.882-.878-.21-2.157.441-2.527 1.343-.39.952-.02 2.084.86 2.606 1.368.811 2.747.18 3.136-1.404.15-.63.66-1.382-.65-1.122-.509.31-1.118.05-1.638.31-.18.091-.49.04-.46.322.04.29.33.33.59.31.21-.02.42-.11.62-.11.29 0 .69-.21.819.19.1.311-.16.602-.39.822-.5.491-1.079.491-1.638.14-.62-.37-.86-.962-.64-1.633.21-.671.69-1.082 1.41-1.122zM11.27 20.002c-.3.06-.26.31-.18.501.23.591.519 1.152.619 1.784.03.21.19.28.39.24.23-.05.22-.23.23-.54-.19-.512-.42-1.133-.64-1.764-.08-.211-.24-.251-.42-.221zM16.055 19.491c-.88.441-.82 1.243-.98 1.984-.449-.771-.309-2.445-2.017-1.323-.02.01-.1-.09-.16-.13-.79-.53-.6.18-.55.491.05.381.22.742.39 1.092.17.351.15 1.053.64.942.459-.1.18-.731.2-1.122.02-.33-.18-.832.219-.932.49-.12.38.471.53.752.21.38.11 1.272.979.601.43.26.909.601 1.358.24.43-.34.61-.33.78.17.07.211.23.432.46.342.319-.12.169-.401.079-.622-.52-1.232-1.019-2.475-1.299-3.798-.04-.2-.1-.55-.48-.38-.26.11-.19.32-.16.54.04.392.46.923.01 1.153zm.23.581c.36.1.53.441.45.642-.13.32-.03.882-.54.912-.3.02-.46-.321-.45-.612.02-.4.17-.751.54-.942z"/><path d="M36.366 14.811c-.8-4.63-3.207-8.357-6.974-11.143C25.366.69 20.77-.441 15.865.15c-4.526.541-8.412 2.576-11.44 6.053C.52 10.693-.848 15.843.53 21.686c.8 3.387 2.808 6.052 4.976 8.658 2.298 2.746 4.076 5.782 4.526 9.43.15 1.262.35 2.475 1.768 2.986a20.744 20.744 0 0 0 5.884 1.172c1.988.1 3.936-.24 5.855-.741.35-.09.64-.18 1.059.21-1.669.622-3.237 1.073-4.876 1.163-2.517.14-5.005-.03-7.403-.972-.64-.25-1.378-.23-1.818.44-.47.702-.47 1.454.04 2.185.3.431.69.732 1.149.912 3.027 1.133 6.114 1.523 9.331.982 1.12-.19 2.238-.671 3.427-.36-1.619.801-3.327 1.222-5.115 1.312-2.348.12-4.636-.17-6.874-.952-.73-.25-1.558-.36-2.038.551-.47.892-.25 1.634.47 2.275a4.38 4.38 0 0 0 1.648.912c3.447 1.082 6.924 1.153 10.43.29.53-.13 1.08-.51 1.739-.14-.4.421-.83.592-1.32.702-2.187.47-4.405.641-6.633.631-.5 0-.979 0-1.469.18-.809.291-1.008.802-.669 1.574.63 1.433 2.678 2.295 4.126 1.734.52-.2.99-.461 1.16-1.143-.92.05-1.76.32-2.588-.01-.17-.07-.33-.17-.32-.37.01-.241.22-.221.4-.241 1.119-.14 2.247-.22 3.346-.441 1.509-.3 3.107-.28 4.466-1.122.84-.522 1.269-1.624.92-2.396-.43-.962-1.35-.921-2.109-.7-1.628.46-3.267.84-4.965.921-2.238.1-4.426-.19-6.514-1.032-.22-.09-.64-.17-.5-.531.13-.361.45-.17.73-.09 3.007.821 6.054 1.012 9.131.48 1.369-.24 2.798-.42 3.847-1.543.62-.661.62-1.393.27-2.154-.37-.832-1.15-.682-1.769-.521-1.538.4-3.067.771-4.646.942-2.437.26-4.775-.2-7.063-1.002-.18-.06-.45-.15-.4-.401.06-.3.33-.21.52-.15 1.01.33 2.038.51 3.077.64 3.057.391 6.054.201 8.952-.931.709-.28 1.288-.732 1.588-1.483.47-1.183-.17-2.115-1.428-2.145-.59-.01-1.11.18-1.649.34-3.307 1.033-6.604.933-9.89-.1-.99-.31-1.54-.851-1.64-1.944-.089-.941-.349-1.883-.588-2.805-.88-3.327-2.918-5.973-5.076-8.538-3.127-3.708-4.855-7.817-4.156-12.827 1.11-8.087 8.532-14.1 16.884-13.89 4.226.11 8.033 1.694 11.12 4.65 3.936 3.758 5.574 8.348 4.685 13.8-.52 3.216-2.328 5.741-4.196 8.257-1.888 2.535-3.906 4.99-4.855 8.087-.49 1.593-1.678 2.385-3.087 2.966-.55.23-.82.09-.8-.601.06-1.634.07-3.277.03-4.92a5.67 5.67 0 0 1 .54-2.566 268.785 268.785 0 0 0 3.027-6.694c.39-.882.77-1.714 1.878-1.784.13.27-.13 1.112.43.692.51-.381.58-.14.85.07.269.21.609.59.898.22.3-.39-.27-.47-.47-.661-.479-.421-.788-.792.11-1.073.13-.04.26-.12.39-.18.18-.08.32-.19.25-.4-.09-.281-.32-.231-.53-.171-.17.05-.34.12-.489.2-.53.3-.72.16-.59-.43.04-.211.11-.421.12-.632.01-.37.25-.952-.21-1.022-.579-.09-.349.541-.429.872-.08.35-.21.721-.15 1.052.13.752-.36.852-.869 1.062-.42.17-.62-.01-.78-.3-.239-.461.19-.411.42-.491.31-.11.62-.21.59-.632-.02-.3-.09-.571-.37-.721-.37-.19-.71-.08-.959.2-.35.39-.63.832-.969 1.223-.18.21-.41.46-.72.29-.17-.09-.349-.31-.379-.48-.04-.351.34-.281.54-.381.27-.14.5-.251.49-.602-.01-.32-.15-.571-.42-.691-.31-.14-.65-.12-.89.14-.35.38-.849.842-.759 1.293.26 1.303 1.659 1.693 2.618.822.49.44.38.901.11 1.432-.63 1.233-1.12 2.536-1.829 3.718-1.928 3.227-2.777 6.715-2.907 10.432-.08 2.345-.39 2.576-2.707 2.125-.07-.01-.14-.05-.21-.05-.76 0-.88-.451-.93-1.113-.3-3.527-.459-7.054-2.297-10.281-1.379-2.425-2.218-5.141-3.617-7.576-.4-.692-.909-1.293-1.688-1.543-.66-.211-1.13-.03-1.15.771-.01.4 0 .802 0 1.353-.579-.41-.998-.722-1.428-1.012-.23-.15-.47-.461-.75-.27-.319.21-.329.6-.229.971.27 1.053.85 1.944 1.549 2.756.13.15.34.36.54.2.239-.19.099-.42-.05-.65-.4-.612-.98-1.133-1.15-2.125.44.3.72.51 1.03.691.359.21.749.511 1.168.22.39-.27.16-.72.18-1.092.02-.36-.48-.841-.04-1.032.45-.19.82.3 1.089.682.25.34.5.691.68 1.072.639 1.383 1.158 2.826 1.878 4.159 2.377 4.409 3.277 9.089 2.807 14.07-.12 1.332.15 1.512 1.459 1.613 1.878.15 3.746.11 5.614-.21 2.418-.422 4.316-1.374 5.245-3.95 1.28-3.517 3.377-6.553 5.755-9.46 3.167-3.837 4.286-8.337 3.447-13.187zm-10.57 5.953c.18-.04.34.02.37.14.03.12-.09.26-.27.3-.18.04-.34-.02-.37-.14-.03-.12.09-.26.27-.3zm-2.738-.13c-.03-.12.09-.261.27-.301.18-.04.34.02.37.14.03.12-.09.26-.27.3-.17.04-.34-.02-.37-.14z"/><path d="M10.91 18.96c-.2 0-.36.16-.36.36 0 .201.16.361.36.361.2 0 .36-.16.36-.36 0-.2-.16-.361-.36-.361zM45.847 40.746l3.816-26.767h.43l10.85 21.967 10.74-21.967h.429l3.836 26.767h-2.617l-2.638-19.14-9.43 19.14h-.68l-9.551-19.291-2.618 19.29h-2.567zM81.483 12.797c.58 0 1.07.21 1.479.621.41.411.61.912.61 1.493 0 .572-.2 1.063-.61 1.473-.41.411-.9.622-1.479.622-.57 0-1.049-.21-1.459-.622-.41-.41-.609-.902-.609-1.473 0-.58.2-1.082.61-1.493.4-.42.889-.621 1.458-.621zm-1.269 8.147h2.538v19.802h-2.538V20.944zM87.857 20.944h2.538v3.547c1.019-1.363 2.138-2.375 3.377-3.046a8.283 8.283 0 0 1 4.026-1.012c1.478 0 2.787.38 3.926 1.132a6.705 6.705 0 0 1 2.528 3.037c.539 1.272.819 3.256.819 5.952v10.192h-2.538v-9.44c0-2.285-.09-3.798-.28-4.57-.289-1.313-.859-2.295-1.688-2.956-.84-.662-1.928-.992-3.267-.992-1.538 0-2.917.51-4.126 1.533-1.219 1.022-2.018 2.285-2.408 3.788-.24.982-.36 2.776-.36 5.381v7.266h-2.537V20.944h-.01zM130.027 13.308v27.438h-2.507v-3.407c-1.069 1.302-2.258 2.274-3.587 2.926-1.329.651-2.777.982-4.346.982-2.797 0-5.175-1.012-7.153-3.047-1.978-2.034-2.967-4.5-2.967-7.415 0-2.846.999-5.291 2.997-7.316 1.998-2.024 4.396-3.036 7.203-3.036 1.618 0 3.087.35 4.396 1.032 1.309.692 2.467 1.734 3.457 3.117V13.308h2.507zm-10.15 9.58c-1.409 0-2.718.35-3.917 1.042-1.198.702-2.148 1.674-2.857 2.936a8.042 8.042 0 0 0-1.059 3.999c0 1.393.36 2.726 1.069 3.998.709 1.273 1.669 2.265 2.877 2.977a7.443 7.443 0 0 0 3.867 1.062c1.388 0 2.707-.351 3.946-1.053a7.376 7.376 0 0 0 2.877-2.855c.67-1.203 1.009-2.556 1.009-4.049 0-2.295-.749-4.209-2.258-5.742-1.508-1.543-3.356-2.315-5.554-2.315zM160.449 18.349l-3.577 3.547c-2.268-2.405-4.905-3.608-7.913-3.608-2.627 0-4.825.872-6.603 2.626-1.769 1.743-2.658 3.868-2.658 6.373 0 2.586.919 4.77 2.758 6.574 1.838 1.794 4.106 2.696 6.813 2.696 1.758 0 3.237-.371 4.436-1.113 1.209-.741 2.178-1.894 2.917-3.477h-7.733v-4.79h13.428l.04 1.132c0 2.345-.61 4.56-1.819 6.665-1.208 2.094-2.777 3.697-4.695 4.8-1.918 1.102-4.176 1.653-6.764 1.653-2.767 0-5.235-.601-7.413-1.814-2.168-1.202-3.886-2.926-5.155-5.16a14.48 14.48 0 0 1-1.898-7.226c0-3.537 1.169-6.624 3.497-9.24 2.767-3.116 6.374-4.68 10.809-4.68 2.318 0 4.496.432 6.514 1.294 1.709.721 3.377 1.974 5.016 3.748zM186.054 32.288h-15.915c.23 1.403.839 2.525 1.839 3.357.999.832 2.267 1.242 3.816 1.242 1.848 0 3.437-.65 4.775-1.944l4.176 1.965c-1.039 1.483-2.287 2.575-3.736 3.286-1.449.712-3.177 1.063-5.165 1.063-3.097 0-5.615-.982-7.563-2.936-1.948-1.965-2.917-4.41-2.917-7.366 0-3.016.969-5.532 2.907-7.526 1.938-1.994 4.376-2.996 7.303-2.996 3.107 0 5.635 1.002 7.583 2.996 1.948 1.994 2.917 4.63 2.917 7.907l-.02.952zm-4.945-3.918a4.985 4.985 0 0 0-1.938-2.696c-.959-.692-2.078-1.032-3.357-1.032-1.379 0-2.598.39-3.637 1.162-.649.481-1.258 1.343-1.818 2.566h10.75zM209.652 32.288h-15.915c.23 1.403.839 2.525 1.838 3.357.999.832 2.268 1.242 3.817 1.242 1.848 0 3.436-.65 4.775-1.944l4.176 1.965c-1.039 1.483-2.288 2.575-3.736 3.286-1.449.712-3.177 1.063-5.165 1.063-3.098 0-5.615-.982-7.563-2.936-1.948-1.965-2.918-4.41-2.918-7.366 0-3.016.97-5.532 2.908-7.526 1.938-1.994 4.376-2.996 7.303-2.996 3.107 0 5.634 1.002 7.583 2.996 1.948 1.994 2.917 4.63 2.917 7.907l-.02.952zm-4.945-3.918a4.987 4.987 0 0 0-1.939-2.696c-.959-.692-2.078-1.032-3.356-1.032-1.379 0-2.598.39-3.637 1.162-.649.481-1.259 1.343-1.818 2.566h10.75zM213.518 13.308h4.956V29.11l7.293-8.167h6.224l-8.502 9.49 9.521 10.312h-6.144l-8.382-9.13v9.13h-4.956V13.308h-.01z"/></g><defs><clipPath id="clip0"><path fill="#fff" d="M0 0h233v57H0z"/></clipPath></defs></svg>