<svg width="218" height="57" viewBox="0 0 218 57" fill="none" xmlns="http://www.w3.org/2000/svg"><path fill-rule="evenodd" clip-rule="evenodd" d="M118.906 21.719V8.449c0-.695-.531-1.058-1.073-1.058-.532 0-1.073.363-1.073 1.059v13.269a3.168 3.168 0 0 1-3.181 3.186h-.28c-1.776 0-3.211-1.421-3.211-3.186V8.449c0-.695-.531-1.058-1.073-1.058-.532 0-1.073.363-1.073 1.059v13.269c0 2.954 2.387 5.284 5.347 5.284h.28c2.94-.01 5.337-2.33 5.337-5.284zM96.435 30.602H88.11c-.702 0-1.073.535-1.073 1.059 0 .524.36 1.059 1.073 1.059h3.1v16.284c0 .696.531 1.029 1.073 1.029.532 0 1.074-.333 1.074-1.029V32.72h3.09c.701 0 1.073-.535 1.073-1.059-.02-.534-.382-1.059-1.084-1.059zM110.329 32.72c.763 0 1.074-.535 1.074-1.059 0-.534-.311-1.059-1.074-1.059h-8.808c-.562 0-1.073.505-1.073 1.059v17.182c0 .554.501 1.058 1.073 1.058h8.808c.763 0 1.074-.534 1.074-1.058 0-.535-.311-1.059-1.074-1.059h-7.734v-6.786h5.377c.702 0 1.073-.534 1.073-1.059 0-.534-.361-1.058-1.073-1.058h-5.377V32.74h7.734v-.02zM100.839 25.954V9.68h3.09c.702 0 1.073-.535 1.073-1.059 0-.534-.361-1.059-1.073-1.059h-8.326c-.703 0-1.074.535-1.074 1.059 0 .534.361 1.059 1.074 1.059h3.09v16.284c0 .696.531 1.039 1.073 1.039.541-.01 1.073-.343 1.073-1.05zM83.043 30.43c-.532 0-1.094.364-1.094 1.06v13.662L75.84 31.328c-.341-.756-.793-.897-1.434-.897-.643 0-1.265.333-1.265 1.089v17.484c0 .696.532 1.029 1.074 1.029.532 0 1.073-.333 1.073-1.029V35.352l6.13 13.773c.421.928 1.043.928 1.464.928.642 0 1.214-.313 1.214-1.23V31.49c-.01-.696-.522-1.06-1.053-1.06zM67.654 30.43c-.532 0-1.073.364-1.073 1.06v17.514c0 .696.531 1.029 1.073 1.029.532 0 1.074-.333 1.074-1.029V31.49c0-.696-.542-1.06-1.074-1.06zM82 26.992c.42 0 .792-.191.983-.726l4.725-15.084 4.725 15.085c.2.534.591.726 1.013.726.642 0 1.093-.444 1.093-1.009 0-.08-.03-.191-.06-.333L89.002 8.167c-.201-.534-.703-.776-1.294-.776-.562 0-1.074.252-1.264.776l-5.488 17.484c-.03.142-.06.253-.06.333.01.565.462 1.008 1.103 1.008zM76.322 26.993c.642 0 1.213-.313 1.213-1.23V8.45c0-.696-.501-1.06-1.043-1.06-.532 0-1.093.364-1.093 1.06v13.662l-6.11-13.834c-.34-.756-.792-.897-1.434-.897-.652 0-1.264.333-1.264 1.089v17.484c0 .696.532 1.039 1.073 1.039.542 0 1.074-.333 1.074-1.039V12.301l6.129 13.774c.411.918 1.033.918 1.455.918zM162.264 24.734h-6.611V8.45c0-.696-.532-1.06-1.074-1.06-.541 0-1.073.364-1.073 1.06v17.343c0 .554.501 1.058 1.073 1.058h7.685c.702 0 1.073-.534 1.073-1.058 0-.535-.371-1.06-1.073-1.06zM187.423 30.43c-.531 0-1.093.364-1.093 1.06v13.662l-6.099-13.824c-.342-.756-.793-.897-1.435-.897s-1.264.333-1.264 1.089v17.484c0 .696.532 1.029 1.073 1.029.532 0 1.074-.333 1.074-1.029V35.352l6.129 13.773c.422.928 1.043.928 1.465.928.642 0 1.214-.313 1.214-1.23V31.49c-.02-.696-.532-1.06-1.064-1.06zM173.078 32.72c.762 0 1.073-.535 1.073-1.059 0-.534-.311-1.059-1.073-1.059h-8.808c-.562 0-1.073.505-1.073 1.059v17.182c0 .554.501 1.058 1.073 1.058h8.808c.762 0 1.073-.534 1.073-1.058 0-.535-.311-1.059-1.073-1.059h-7.735v-6.786h5.377c.703 0 1.074-.534 1.074-1.059 0-.534-.371-1.058-1.074-1.058h-5.377V32.74h7.735v-.02zM198.107 30.43h-.281c-2.949 0-5.347 2.37-5.347 5.285v9.054c0 2.955 2.388 5.284 5.347 5.284h.281c2.648 0 4.926-1.926 5.287-4.497v-.192c0-.665-.502-1.038-1.043-1.038-.452 0-.933.282-1.074.927-.311 1.533-1.575 2.712-3.18 2.712h-.281a3.194 3.194 0 0 1-3.21-3.186v-9.054c0-1.705 1.435-3.157 3.21-3.157h.281c1.605 0 2.869 1.17 3.18 2.713.141.645.592.918 1.074.918.531 0 1.043-.363 1.043-1.04v-.17c-.361-2.602-2.578-4.558-5.287-4.558zM153.215 30.43h-.281c-2.959 0-5.347 2.35-5.347 5.305v9.024c0 2.954 2.388 5.284 5.347 5.284h.281c2.949 0 5.347-2.32 5.347-5.284v-4.326c0-.554-.502-1.058-1.073-1.058h-4.023c-.702 0-1.074.534-1.074 1.058 0 .535.362 1.06 1.074 1.06h2.959v3.266c0 1.755-1.434 3.186-3.21 3.186h-.281a3.193 3.193 0 0 1-3.21-3.186v-9.055c0-1.704 1.434-3.156 3.21-3.156h.281c1.826 0 2.899 1.17 3.21 2.733.11.645.592.897 1.064.897.531 0 1.073-.363 1.073-1.038v-.151c-.361-2.632-2.618-4.558-5.347-4.558zM216.927 47.774h-7.735v-6.786h5.377c.702 0 1.074-.535 1.074-1.059 0-.534-.372-1.059-1.074-1.059h-5.377v-6.14h7.735c.762 0 1.073-.535 1.073-1.059 0-.534-.311-1.059-1.073-1.059h-8.808c-.562 0-1.074.505-1.074 1.059v17.182c0 .554.502 1.058 1.074 1.058h8.808c.762 0 1.073-.534 1.073-1.058 0-.545-.311-1.08-1.073-1.08zM149.052 26.992c.652 0 1.093-.443 1.093-1.008 0-.08-.03-.191-.06-.333l-5.477-17.484c-.201-.534-.703-.776-1.294-.776-.562 0-1.074.252-1.264.776l-5.488 17.484c-.03.142-.05.253-.05.333 0 .555.452 1.008 1.094 1.008.421 0 .782-.191.983-.726l4.725-15.084 4.725 15.085c.2.534.591.726 1.013.726zM131.958 26.408a.99.99 0 0 0 .923.584c.672 0 1.123-.443 1.123-1.038a.946.946 0 0 0-.11-.474l-3.491-7.23c2.277-.665 3.852-2.682 3.852-5.142v-.252c0-2.934-2.388-5.304-5.347-5.304h-4.725c-.562 0-1.073.504-1.073 1.059v17.343c0 .696.531 1.038 1.073 1.038.532 0 1.073-.332 1.073-1.038v-7.542h2.869l3.833 7.996zM125.256 9.68h3.662a3.193 3.193 0 0 1 3.21 3.186v.242c0 1.765-1.324 3.186-3.09 3.186h-3.772V9.68h-.01zM142.22 30.43c-.532 0-1.073.364-1.073 1.06v17.514c0 .696.531 1.029 1.073 1.029.532 0 1.074-.333 1.074-1.029V31.49c-.011-.696-.542-1.06-1.074-1.06zM136.432 47.774h-6.611V31.49c0-.696-.532-1.06-1.064-1.06-.531 0-1.073.364-1.073 1.06v17.343c0 .554.512 1.058 1.073 1.058h7.675c.702 0 1.073-.534 1.073-1.058-.01-.525-.371-1.06-1.073-1.06zM123.521 47.774h-6.611V31.49c0-.696-.532-1.06-1.073-1.06-.532 0-1.074.364-1.074 1.06v17.343c0 .554.502 1.058 1.074 1.058h7.684c.702 0 1.073-.534 1.073-1.058-.01-.525-.371-1.06-1.073-1.06zM57.1 10.557c-.712-4.77-4.574-8.55-9.45-9.276A132.348 132.348 0 0 0 29.203 0c-6.24 0-12.379.434-18.378 1.28-4.935.696-8.838 4.518-9.53 9.338A123.647 123.647 0 0 0 0 28.494c0 6.11.451 12.11 1.314 17.978.722 4.75 4.565 8.5 9.43 9.226 6.03.847 12.199 1.28 18.458 1.28 6.31 0 12.5-.443 18.56-1.3 4.764-.756 8.526-4.416 9.309-9.055a122.938 122.938 0 0 0 1.334-18.14c0-5.999-.431-11.897-1.264-17.665-.01-.08-.02-.171-.04-.262zM20.556 46.292c-1.765 0-3.2-1.392-3.2-3.126 0-1.724 1.434-3.116 3.2-3.116 1.766 0 3.2 1.392 3.2 3.116 0 1.734-1.434 3.126-3.2 3.126zm20.495-9.317c0 1.704-1.414 3.085-3.16 3.085a3.181 3.181 0 0 1-2.388-1.069L23.675 27.468v8.852s-.662 1.523-2.97 1.523h-.38c-2.308 0-2.97-1.523-2.97-1.523V20.025c0-1.704 1.414-3.085 3.16-3.085a3.19 3.19 0 0 1 2.408 1.089L34.73 29.544v-8.642s.662-1.522 2.97-1.522h.38c2.308 0 2.97 1.522 2.97 1.522v16.073zm-3.2-20.035c-1.766 0-3.2-1.392-3.2-3.116 0-1.724 1.434-3.116 3.2-3.116 1.765 0 3.2 1.392 3.2 3.116 0 1.724-1.435 3.116-3.2 3.116z" fill="#000"/></svg>