<svg width="72" height="72" viewBox="0 0 72 72" fill="none" xmlns="http://www.w3.org/2000/svg"><g clip-path="url(#clip0)"><path d="M1.26 57.578a7.465 7.465 0 0 0 1.85 1.416c1.429.789 2.938 1.406 4.518 1.83.32.081.63.223.91.415.53.475.46 1.183 1.17 2.225.36.536.81 1.001 1.339 1.375 1.49 1.042 3.17 1.113 4.949 1.174 1.6.06 3.419.131 5.498.829.86.283 1.75.84 2.79 1.497C26.772 69.886 30.171 72 35.87 72c5.699 0 9.128-2.124 11.627-3.681 1.03-.638 1.92-1.194 2.749-1.467 2.08-.698 3.899-.769 5.498-.83 1.78-.07 3.45-.13 4.95-1.172a5.18 5.18 0 0 0 1.519-1.68c.51-.88.5-1.496.98-1.92.26-.183.55-.315.86-.395 1.599-.425 3.128-1.042 4.578-1.841.73-.395 1.38-.91 1.94-1.537l.02-.02c1.369-1.487 1.719-3.237 1.16-4.784-.5-1.386-1.46-2.124-2.55-2.731a5.01 5.01 0 0 0-.55-.294c-.33-.171-.66-.333-.99-.505-3.399-1.82-6.048-4.117-7.888-6.837-.52-.769-.98-1.578-1.35-2.427-.16-.456-.15-.708-.04-.951.11-.182.26-.334.43-.455.58-.395 1.19-.79 1.59-1.052.73-.475 1.3-.85 1.67-1.123 1.39-.99 2.37-2.032 2.979-3.206.86-1.638.97-3.57.31-5.3-.92-2.457-3.22-3.984-5.998-3.984a8.491 8.491 0 0 0-2.21.293c.03-1.679-.01-3.459-.16-5.198-.52-6.14-2.65-9.356-4.868-11.924a19.261 19.261 0 0 0-4.95-4.026C43.839.991 40.03 0 35.87 0c-4.159 0-7.948.991-11.317 2.933a19.346 19.346 0 0 0-4.958 4.035c-2.22 2.57-4.34 5.786-4.87 11.924-.149 1.75-.179 3.53-.159 5.199-.15-.04-.3-.07-.45-.111a7.788 7.788 0 0 0-1.75-.182c-2.779 0-5.078 1.527-5.998 3.985a6.48 6.48 0 0 0 .3 5.31c.61 1.172 1.59 2.214 2.98 3.205.37.263.95.637 1.669 1.123.39.253.97.637 1.53 1.011.2.132.36.304.49.496.12.243.12.506-.05.991-.37.83-.82 1.628-1.33 2.377-1.8 2.66-4.37 4.915-7.658 6.726-1.73.92-3.54 1.547-4.299 3.65l1.26 4.906zm65.412-2.165c-3.09 1.73-5.14 1.538-6.739 2.58-1.36.88-.55 2.79-1.54 3.478-1.209.85-4.788-.06-9.417 1.487-3.819 1.275-6.248 4.946-13.106 4.946s-9.237-3.661-13.116-4.956c-4.619-1.547-8.198-.637-9.418-1.487-.98-.687-.18-2.589-1.54-3.479-1.599-1.041-3.648-.86-6.737-2.569-1.97-1.102-.85-1.78-.2-2.103 11.186-5.482 12.976-13.937 13.056-14.564.1-.759.2-1.355-.62-2.134-.8-.748-4.349-2.964-5.328-3.661-1.63-1.153-2.35-2.296-1.82-3.712.37-.981 1.27-1.345 2.22-1.345.3 0 .6.03.89.1 1.789.395 3.518 1.296 4.528 1.548.12.03.24.05.37.05.54 0 .72-.272.69-.89-.11-1.981-.39-5.835-.08-9.435.42-4.956 2-7.414 3.879-9.588.9-1.042 5.138-5.573 13.226-5.573 8.088 0 12.337 4.51 13.236 5.543 1.88 2.174 3.46 4.632 3.88 9.587.31 3.6.04 7.464-.08 9.437-.04.647.15.89.69.89.12 0 .249-.02.369-.051 1-.243 2.74-1.153 4.529-1.547.29-.071.59-.102.89-.102.95 0 1.849.375 2.219 1.346.53 1.416-.18 2.558-1.82 3.711-.98.698-4.528 2.913-5.328 3.661-.83.77-.72 1.376-.62 2.134.08.638 1.86 9.093 13.056 14.564.64.344 1.75 1.022-.22 2.134z" fill="#000"/></g><defs><clipPath id="clip0"><path fill="#fff" d="M0 0h72v72H0z"/></clipPath></defs></svg>