<svg width="62" height="68" viewBox="0 0 62 68" fill="none" xmlns="http://www.w3.org/2000/svg"><g clip-path="url(#clip0)"><path d="M22.175 47.569l.23.656c-.04-.07-.12-.303-.23-.656zm-10.678-4.666c.4-3.525 1.778-5.494 4.355-7.524 3.696-2.737 8.31-1.192 8.31-1.192v-9.2a18.68 18.68 0 0 1 3.357.211v11.837s-4.615-1.545-8.31 1.192c-2.578 2.02-3.956 4-4.356 7.524-.01 1.919.33 4.413 1.898 6.585-.39-.212-.779-.445-1.189-.717-3.446-2.444-4.075-6.12-4.065-8.716zm35.09-34.914C44.05 5.049 43.081 2.08 42.742 0h3.196s-.64 5.464 4.006 10.837l.06.07a18.548 18.548 0 0 1-3.417-2.918z" fill="#999"/><path d="M62 16.32v11.595s-4.085-.171-7.102-.98c-4.215-1.13-6.932-2.868-6.932-2.868s-1.868-1.242-2.028-1.323V46.7c0 1.333-.35 4.666-1.398 7.444-1.379 3.635-3.506 6.019-3.896 6.504 0 0-2.587 3.221-7.152 5.393-4.115 1.96-7.721 1.909-8.8 1.96 0 0-6.243.262-11.857-3.596a23.664 23.664 0 0 1-3.386-2.869l.03.02c5.614 3.849 11.857 3.596 11.857 3.596 1.079-.05 4.695 0 8.8-1.96 4.555-2.17 7.152-5.392 7.152-5.392.39-.485 2.527-2.869 3.896-6.505 1.048-2.777 1.398-6.11 1.398-7.443V19.896c.15.091 2.028 1.323 2.028 1.323s2.707 1.737 6.932 2.868c3.026.808 7.102.98 7.102.98v-9.09c1.388.344 2.577.435 3.356.344z" fill="#999"/><path d="M58.644 15.988v9.09s-4.076-.173-7.102-.98c-4.215-1.132-6.932-2.869-6.932-2.869s-1.868-1.242-2.028-1.323v23.946c0 1.333-.35 4.666-1.398 7.443-1.379 3.636-3.506 6.02-3.896 6.505 0 0-2.587 3.221-7.152 5.393-4.115 1.959-7.721 1.908-8.8 1.959 0 0-6.243.263-11.857-3.596l-.03-.02a21.752 21.752 0 0 1-1.668-1.919c-1.788-2.302-2.887-5.03-3.166-5.807v-.01c-.45-1.353-1.379-4.595-1.249-7.746.23-5.545 2.078-8.948 2.567-9.807a23.045 23.045 0 0 1 4.985-6.15 20.806 20.806 0 0 1 5.913-3.545 20.073 20.073 0 0 1 7.342-1.566v9.19s-4.615-1.544-8.31 1.192c-2.588 2.02-3.956 4-4.356 7.525-.02 2.595.61 6.261 4.065 8.715.4.273.8.506 1.19.718a9.052 9.052 0 0 0 2.167 2.12c3.376 2.253 6.193 2.414 9.809.95 2.407-.97 4.215-3.171 5.074-5.615.53-1.526.52-3.06.52-4.646V0h8.41c.35 2.08 1.308 5.05 3.855 7.989a18.544 18.544 0 0 0 3.416 2.919c.37.404 2.258 2.403 4.695 3.625a18.073 18.073 0 0 0 3.936 1.455z" fill="#000"/><path d="M16.831 26.552a20.534 20.534 0 0 0-5.913 3.544 22.895 22.895 0 0 0-4.975 6.161c-.49.849-2.337 4.262-2.567 9.807-.13 3.14.81 6.393 1.249 7.746v.01c.27.768 1.368 3.495 3.166 5.807.52.667 1.079 1.313 1.668 1.92a23.57 23.57 0 0 1-5.024-4.768c-1.778-2.282-2.877-4.979-3.156-5.777l-.01-.02v-.01C.819 49.62-.11 46.377.02 43.226c.23-5.545 2.078-8.948 2.567-9.807a23.09 23.09 0 0 1 4.974-6.16 20.806 20.806 0 0 1 5.914-3.545 20.073 20.073 0 0 1 4.175-1.243 20.483 20.483 0 0 1 6.523-.1v2.625c-1.06.02-2.128.121-3.167.313a19.895 19.895 0 0 0-4.175 1.243z" fill="#B3B3B3"/></g><defs><clipPath id="clip0"><path fill="#fff" d="M0 0h62v68H0z"/></clipPath></defs></svg>