<svg width="255" height="74" viewBox="0 0 255 74" fill="none" xmlns="http://www.w3.org/2000/svg"><path d="M16.618 51.51c1.978-1.915 4.806-2.563 7.574-2.563h2.688l-.06-.06c-1.179-1.327-2.318-3.161-2.948-5.046-.63-1.875-.949-3.999-.949-6.362.01-2.344.33-4.448.95-6.303.629-1.894 1.538-3.5 2.717-4.816a11.56 11.56 0 0 1 4.307-3.012c1.52-.628 3.208-.967 5.087-1.027v-.01h13.489c5.477 0 10.153-4.607 10.153-10.291H0c0 5.684 5.126 10.291 10.612 10.291h6.745a26.208 26.208 0 0 0-2.488 5.126c-1.03 2.882-1.579 6.003-1.659 9.344 0 .22-.01.448-.01.668v.19c0 1.026.05 2.034.14 3.02h.02c.23 2.444.74 4.758 1.519 6.941.52 1.446 1.01 2.613 1.739 3.91z" fill="#000"/><path d="M56.808 22.47c-1.978 1.915-4.806 2.564-7.574 2.564h-2.539a14.532 14.532 0 0 1 2.858 4.946c.63 1.884.95 4.018.95 6.402 0 2.403-.32 4.557-.95 6.452-.63 1.894-1.538 3.5-2.718 4.816a11.56 11.56 0 0 1-4.306 3.012c-1.52.628-3.208.967-5.087 1.027v.01h-13.72c-5.476 0-9.922 4.607-9.922 10.291h23.642v-.01c3.258-.08 6.236-.718 8.944-1.915 2.888-1.286 5.356-3.071 7.404-5.355 2.049-2.293 3.638-4.996 4.747-8.127 1.119-3.131 1.679-6.532 1.679-10.211 0-3.65-.56-7.03-1.68-10.152-.509-1.456-.998-2.463-1.728-3.75zM92.362 22.221H67.11c.05 2.902 2.438 5.256 5.365 5.256h4.078v24.272h6.535V27.477h3.917a5.365 5.365 0 0 0 5.356-5.256z" fill="#000"/><path d="M97.058 30.199c-3.257 0-5.875.987-7.774 2.942-1.909 1.954-2.878 4.707-2.878 8.167 0 3.36.93 6.053 2.768 8.007 1.839 1.955 4.397 2.942 7.615 2.942 3.267 0 5.875-1.017 7.744-3.031 1.878-2.015 2.828-4.807 2.828-8.287 0-3.221-.92-5.844-2.738-7.798-1.809-1.945-4.357-2.942-7.565-2.942zm-.05 17.252c-3.647 0-5.495-2.095-5.495-6.213 0-1.964.48-3.51 1.428-4.587.95-1.077 2.309-1.626 4.017-1.626 3.518 0 5.297 2.035 5.297 6.044 0 4.228-1.769 6.382-5.247 6.382zM122.979 30.398c-3.008 0-5.206 1.127-6.735 3.45l-.08.47-.2-.02v-.49c0-1.774-1.838-3.09-3.487-3.09h-2.878V61.5h6.365V50.143l.11-1.057.15.23c1.319 1.954 3.258 2.941 5.776 2.941 2.808 0 4.946-1.007 6.715-3.17 1.729-2.115 2.608-4.957 2.608-8.457 0-3.161-.709-5.535-2.228-7.44-1.519-1.904-3.458-2.792-6.116-2.792zm1.579 15.308c-.929 1.156-2.248 1.745-3.927 1.745-1.419 0-2.578-.469-3.447-1.396-.87-.928-1.31-2.134-1.31-3.6v-1.127c0-1.855.57-3.66 1.439-4.587.96-1.017 2.209-1.536 3.718-1.536 3.267 0 4.926 1.885 4.926 5.614-.01 2.094-.48 3.74-1.399 4.887zM148.281 21.723c-4.447 0-8.074 1.456-10.772 4.318-2.698 2.872-4.067 6.681-4.067 11.328 0 4.398 1.349 8.018 3.997 10.76 2.658 2.732 6.135 4.128 10.352 4.128 4.327 0 7.884-1.436 10.572-4.258 2.688-2.832 4.057-6.601 4.057-11.228 0-4.498-1.319-8.167-3.907-10.92-2.588-2.732-6.026-4.128-10.232-4.128zm5.865 22.427c-1.529 1.675-3.617 2.533-6.215 2.533-2.518 0-4.587-.877-6.146-2.603-1.558-1.725-2.348-4.098-2.348-7.05 0-2.912.79-5.285 2.348-7.06 1.559-1.775 3.688-2.673 6.336-2.673 2.568 0 4.626.878 6.105 2.603s2.229 4.168 2.229 7.26c-.01 2.961-.78 5.315-2.309 6.99zM187.981 30.718v-2.354c0-2.333 1.1-3.52 3.258-3.52.739 0 1.529.15 2.328.449v-4.886c-.859-.26-1.948-.39-3.227-.39-2.678 0-4.817.739-6.376 2.194-1.549 1.456-2.338 3.39-2.338 5.774v2.733H173.432v-2.354c0-2.333 1.099-3.52 3.258-3.52.739 0 1.529.15 2.328.449v-4.886c-.859-.26-1.949-.39-3.228-.39-2.678 0-4.816.739-6.365 2.194-1.549 1.456-2.338 3.39-2.338 5.774v2.733h-3.568v1.166a3.477 3.477 0 0 0 3.478 3.47h.1V51.75h6.345V35.355H181.636v16.394h6.345V35.355h.12c2.578 0 4.687-2.065 4.737-4.627h-4.857v-.01zM202.321 30.199c-2.948 0-5.466 1.027-7.485 3.061-2.018 2.035-3.047 4.827-3.047 8.307 0 3.36.949 6.003 2.818 7.878 1.868 1.875 4.536 2.822 7.924 2.822 3.247 0 6.065-.548 7.954-1.536v-.02c0-1.755-1.439-3.18-3.218-3.18-.2 0-.4.02-.589.05-.87.159-1.759.239-2.658.239-3.718 0-5.706-1.586-5.936-4.717l-.01-.11h13.1v-2.662c0-3.341-.739-5.695-2.318-7.42-1.809-1.944-3.637-2.712-6.535-2.712zm3.757 8.975h-8.044l.05-.429c.14-1.167.27-2.164.989-2.992.87-.987 2.269-1.336 3.198-1.336 2.518 0 3.797 1.566 3.797 4.657v.1h.01zM220.158 34.397l-.02.07h-.25v-3.74h-6.366V51.75h6.366v-9.454c0-1.954.459-3.71 1.229-4.707.909-1.176 2.088-1.795 3.437-1.795h.03c1.449 0 2.618-1.156 2.618-2.572v-2.653c-.369-.14-.879-.22-1.519-.22-2.767 0-4.526 1.287-5.525 4.05zM243.6 43.073a4.806 4.806 0 0 0-1.139-1.665 7.278 7.278 0 0 0-1.799-1.247 18.011 18.011 0 0 0-2.358-.987c-.48-.17-.969-.33-1.459-.489a8.88 8.88 0 0 1-1.349-.548c-.41-.21-.749-.449-1.009-.738a1.5 1.5 0 0 1-.4-1.057c0-.31.09-.588.27-.838.17-.24.42-.439.72-.588.299-.15.639-.26 1.029-.34.389-.079.799-.119 1.239-.119.919 0 1.868.12 2.828.37l.02.009c.17.04.339.07.519.07 1.1 0 1.939-.888 1.999-1.985l.13-1.844a24.21 24.21 0 0 0-2.918-.649c-.959-.14-1.919-.219-2.848-.219-1.189 0-2.348.13-3.457.379-1.1.25-2.089.648-2.938 1.187a6.351 6.351 0 0 0-2.049 2.074c-.509.837-.769 1.855-.769 3.011 0 .858.11 1.606.34 2.224.219.618.549 1.177.979 1.645.43.47.959.898 1.599 1.257.639.359 1.379.708 2.218 1.017.52.21 1.069.39 1.629.559.569.17 1.099.359 1.579.568.489.21.889.459 1.199.738.32.3.489.668.489 1.107 0 .708-.369 1.017-1.059 1.346-.679.32-1.619.489-2.798.489-.959 0-1.998-.16-3.067-.479l-.03-.01c-.21-.06-.42-.09-.63-.09-1.299 0-2.438 1.187-2.438 2.533v1.456c1.958.698 4.107 1.047 6.405 1.047 1.259 0 2.498-.13 3.667-.379 1.17-.249 2.209-.658 3.108-1.206a6.497 6.497 0 0 0 2.149-2.144c.539-.868.809-1.935.809-3.171-.01-.888-.14-1.656-.41-2.294z" fill="#000"/></svg>