<svg width="248" height="44" viewBox="0 0 248 44" fill="none" xmlns="http://www.w3.org/2000/svg"><path d="M51.452 17.136h4.372V29.61h2.91V17.136h4.341v-2.539H51.452v2.539zM76.258 22.736c.58-.85.86-1.837.86-2.973 0-.75-.13-1.442-.38-2.084-.26-.632-.61-1.185-1.07-1.64a4.93 4.93 0 0 0-1.65-1.066c-.65-.257-1.36-.376-2.13-.376h-6.912V29.62h2.91v-4.78h2.881c.58.82 1.16 1.629 1.74 2.42.58.79 1.17 1.58 1.781 2.36h3.47a318.459 318.459 0 0 0-3.79-5.047 4.891 4.891 0 0 0 2.29-1.837zm-3.57-.603a2.51 2.51 0 0 1-.82.158h-4.002v-5.145h4.001c.51 0 .92.098 1.22.286.3.188.54.425.7.701.17.277.28.563.33.86.06.296.08.562.08.78 0 .424-.07.79-.22 1.106-.15.316-.33.583-.55.79-.2.207-.46.365-.74.464zM85.83 14.617L78.06 29.62h3.16l1.16-2.36h7.173l1.18 2.36h3.16l-7.771-15.003h-.29zM83.79 24.75l2.18-4.533 2.161 4.534h-4.34zM95.573 29.61h2.91v-6.114h7.333V20.85h-7.332v-3.713h8.272v-2.539H95.573V29.61zM109.016 29.61h2.911v-6.114h7.342V20.85h-7.342v-3.713h8.272v-2.539h-11.183V29.61zM125.79 14.617h-2.91V29.62h2.91V14.617zM132.962 18.558c.44-.464.97-.84 1.571-1.116.6-.277 1.25-.425 1.94-.425.43 0 .84.06 1.25.188.4.118.78.296 1.141.514.36.217.69.474.99.76.3.286.56.593.78.919l2.721-1.087a7.127 7.127 0 0 0-1.231-1.61 8.253 8.253 0 0 0-1.61-1.254 7.977 7.977 0 0 0-1.91-.81 8.099 8.099 0 0 0-2.131-.286c-1.08 0-2.101.207-3.051.612-.96.415-1.79.968-2.5 1.67a7.88 7.88 0 0 0-1.691 2.468 7.455 7.455 0 0 0-.62 3.012c0 1.067.21 2.075.62 3.013.42.948.98 1.768 1.691 2.469a8.004 8.004 0 0 0 2.5 1.67c.96.414 1.971.611 3.051.611.73 0 1.44-.098 2.131-.286a7.894 7.894 0 0 0 3.52-2.064 7.628 7.628 0 0 0 1.231-1.63l-2.721-1.086c-.22.326-.48.642-.78.938a5.307 5.307 0 0 1-2.131 1.284 4.4 4.4 0 0 1-1.25.188c-.69 0-1.34-.139-1.94-.425a5.072 5.072 0 0 1-1.571-1.116 5.432 5.432 0 0 1-1.06-1.62 4.938 4.938 0 0 1-.39-1.946c0-.671.13-1.313.39-1.935.26-.613.61-1.156 1.06-1.62zM160.259 20.85h-7.332v-3.714h8.272v-2.539h-11.183V29.61h2.911v-6.114h7.332V20.85zM167.26 14.617l-7.771 15.003h3.16l1.161-2.36h7.171l1.181 2.36h3.16l-7.772-15.003h-.29zm-2.03 10.133l2.18-4.533 2.161 4.534h-4.341zM179.734 18.558c.44-.464.97-.84 1.57-1.116.6-.277 1.25-.425 1.94-.425.43 0 .841.06 1.251.188.4.118.78.296 1.14.514.36.217.69.474.99.76.3.286.56.593.78.919l2.721-1.087a7.123 7.123 0 0 0-1.23-1.61 8.568 8.568 0 0 0-1.611-1.254 7.977 7.977 0 0 0-1.91-.81 8.088 8.088 0 0 0-2.131-.286c-1.08 0-2.1.207-3.05.612a8.05 8.05 0 0 0-2.501 1.67 7.894 7.894 0 0 0-1.69 2.468 7.456 7.456 0 0 0-.621 3.012c0 1.067.211 2.075.621 3.013.42.948.98 1.768 1.69 2.469a7.997 7.997 0 0 0 2.501 1.67c.96.414 1.97.611 3.05.611.731 0 1.441-.098 2.131-.286a7.81 7.81 0 0 0 1.91-.81 8.183 8.183 0 0 0 1.611-1.254c.48-.484.89-1.027 1.23-1.63l-2.721-1.086c-.22.326-.48.642-.78.938a5.307 5.307 0 0 1-2.13 1.284c-.4.119-.821.188-1.251.188-.69 0-1.34-.139-1.94-.425a5.08 5.08 0 0 1-1.57-1.116 5.416 5.416 0 0 1-1.061-1.62 4.938 4.938 0 0 1-.39-1.946c0-.671.13-1.313.39-1.935.26-.613.62-1.156 1.061-1.62zM190.606 17.136h4.361V29.61h2.911V17.136h4.341v-2.539h-11.613v2.539zM216.462 16.593a8.003 8.003 0 0 0-2.5-1.67 7.646 7.646 0 0 0-3.071-.612c-1.08 0-2.101.207-3.051.612-.96.415-1.79.968-2.5 1.67a7.814 7.814 0 0 0-1.691 2.479 7.371 7.371 0 0 0-.62 3.022c0 1.076.21 2.094.62 3.042.42.948.98 1.768 1.691 2.469a8.003 8.003 0 0 0 2.5 1.669c.96.415 1.971.612 3.051.612 1.09 0 2.12-.207 3.071-.612a8.059 8.059 0 0 0 2.5-1.67 7.898 7.898 0 0 0 1.691-2.468c.42-.948.62-1.956.62-3.042 0-1.067-.21-2.074-.62-3.023a7.942 7.942 0 0 0-1.691-2.479zm-.98 7.456a5.44 5.44 0 0 1-1.07 1.63c-.45.474-.97.85-1.581 1.126-.6.276-1.25.425-1.94.425a4.46 4.46 0 0 1-1.941-.425 5.108 5.108 0 0 1-1.58-1.126 5.637 5.637 0 0 1-1.07-1.63 4.938 4.938 0 0 1-.39-1.945c0-.672.13-1.314.39-1.936a5.205 5.205 0 0 1 2.65-2.746 4.605 4.605 0 0 1 1.941-.425c.69 0 1.34.139 1.94.425a5.24 5.24 0 0 1 1.581 1.116c.45.464.8 1.008 1.07 1.63.26.622.39 1.264.39 1.936 0 .681-.13 1.333-.39 1.945zM232.546 22.736c.58-.85.86-1.837.86-2.973 0-.75-.13-1.442-.38-2.084-.26-.632-.61-1.185-1.07-1.64a4.93 4.93 0 0 0-1.65-1.066c-.651-.257-1.361-.376-2.131-.376h-6.912V29.62h2.911v-4.78h2.881c.58.82 1.16 1.629 1.74 2.42.58.79 1.171 1.58 1.781 2.36h3.471a324.69 324.69 0 0 0-3.791-5.047 4.89 4.89 0 0 0 2.29-1.837zm-3.571-.603c-.28.099-.56.158-.82.158h-4.001v-5.145h4.001c.51 0 .92.098 1.22.286.3.188.541.425.701.701.17.277.28.563.33.86.05.296.08.562.08.78 0 .424-.07.79-.22 1.106-.15.316-.33.583-.551.79-.2.207-.45.365-.74.464zM244.609 14.617c-.29.474-.6.988-.92 1.531-.33.543-.65 1.087-.99 1.64-.33.553-.66 1.106-1 1.649-.33.543-.651 1.057-.961 1.54-.62-1.026-1.26-2.083-1.91-3.18-.65-1.096-1.29-2.153-1.911-3.18h-3.39c.91 1.56 1.88 3.111 2.89 4.662a100.223 100.223 0 0 1 2.871 4.662v5.679h2.911v-5.68c.39-.651.84-1.392 1.35-2.202.51-.81 1.03-1.64 1.56-2.479.531-.84 1.041-1.669 1.551-2.469.51-.81.95-1.521 1.34-2.153h-3.391v-.02zM0 44h44.56V0H0v44zm3.14-32.06h13.524v17.68h3.14V11.94h8.473V8.83H3.14V3.1H41.42v10.963H21.835v21.54h3.141V25.107h4.671v-3.101h-4.671v-4.83H41.42V40.9H3.14V11.94z" fill="#000"/></svg>