<svg width="222" height="72" viewBox="0 0 222 72" fill="none" xmlns="http://www.w3.org/2000/svg"><g clip-path="url(#clip0)" fill="#000"><path d="M76.369 23.178H61.297l-.76 4.078h4.388L60.917 50.07h6.287l4.018-22.815h4.387l.76-4.078zM88.192 28.202c-2.039 0-3.648 1.027-4.857 3.101h-.11l.49-2.83h-5.987L73.9 50.082h5.987l2.688-15.184c.22-1.178.73-1.772 1.55-1.772.37 0 .62.131.76.393.129.262.199.725.199 1.37l-.95 5.255h5.987l1.37-7.712c.07-.383.11-.755.11-1.138 0-2.064-1.14-3.091-3.409-3.091zM105.253 28.675c-.959-.322-2.009-.483-3.168-.483-2.019 0-3.818.483-5.387 1.43-1.56.956-2.519 2.446-2.879 4.46l-.38 2.004h5.987l.42-2.377c.18-1.057.7-1.58 1.559-1.58.38 0 .63.11.76.342.13.232.19.644.19 1.248-.15.877-.59 1.551-1.33 2.034-.739.484-1.889 1.078-3.438 1.772-1.549.695-2.768 1.42-3.638 2.155-.88.735-1.429 1.742-1.659 3.02l-.57 3.212c-.07.383-.11.746-.11 1.098 0 1.067.31 1.893.94 2.467.63.574 1.5.866 2.618.866 1.94 0 3.509-.937 4.698-2.79h.07l-.45 2.528h5.987l2.838-15.979c.07-.423.11-.805.11-1.168 0-1.097-.289-2.003-.869-2.708-.57-.715-1.339-1.229-2.299-1.55zm-4.517 14.227c-.16 1.027-.36 1.742-.61 2.145-.24.402-.66.604-1.26.604s-.909-.383-.909-1.138l.42-2.346c.08-.413.21-.765.4-1.047.19-.282.4-.524.66-.725.25-.201.569-.413.959-.644l1.019-.605-.679 3.756zM120.355 28.464h-1.699c.08-.484.25-.826.51-1.037.259-.212.729-.322 1.429-.322l.719-3.927h-3.827c-1.27 0-2.299.402-3.109 1.218-.809.805-1.299 1.702-1.469 2.678l-.23 1.39h-1.319l-.68 3.926h1.319l-3.148 17.68h5.987l3.148-17.68h1.709l.66-3.926zM131.119 28.464h-1.699c.08-.484.25-.826.51-1.037.26-.212.729-.322 1.419-.322l.72-3.927h-3.828c-1.27 0-2.299.402-3.109 1.218-.809.805-1.299 1.702-1.469 2.678l-.23 1.39h-1.319l-.68 3.926h1.32l-3.149 17.68h5.987l3.148-17.68h1.709l.67-3.926zM133.478 28.464L129.66 50.07h5.987l3.818-21.607h-5.987zM140.414 23.178h-5.977l-.689 3.826h5.976l.69-3.826zM155.686 32.924c0-1.148-.28-2.064-.83-2.769-.549-.705-1.299-1.198-2.258-1.5-.95-.302-2.029-.453-3.249-.453-2.229 0-4.097.554-5.577 1.671-1.479 1.118-2.378 2.578-2.688 4.38l-1.779 10.079c-.1.664-.15 1.127-.15 1.4 0 3.07 2.099 4.61 6.286 4.61 2.259 0 4.118-.453 5.577-1.359 1.46-.906 2.359-2.325 2.689-4.269l.57-3.171h-5.987l-.61 3.363c-.19 1.006-.699 1.51-1.519 1.51-.36 0-.62-.11-.76-.352-.15-.232-.219-.625-.219-1.158l2.008-11.257c.14-1.007.65-1.51 1.52-1.51.649 0 .979.503.979 1.51l-.45 2.457h5.987l.34-1.803c.08-.513.12-.966.12-1.379zM169.788 23.188l-1.789 9.957h-3.328l1.779-9.957h-6.297l-4.767 26.883h6.287l2.278-12.848h3.329l-2.269 12.848h6.286l4.778-26.883h-6.287zM186.239 28.464l-2.658 14.992c-.27 1.309-.81 1.963-1.629 1.963-.66 0-.99-.352-.99-1.047 0-.302.04-.614.11-.916l2.659-14.992h-5.987l-2.999 16.925a7.225 7.225 0 0 0-.149 1.51c0 2.296 1.109 3.444 3.328 3.444 2.319 0 3.948-.987 4.897-2.95h.07l-.49 2.688h5.987l3.828-21.607h-5.977v-.01zM205.289 28.202c-2.319 0-3.948.987-4.897 2.95h-.07l.49-2.688h-5.987l-3.828 21.607h5.987l2.658-14.992c.22-1.31.76-1.964 1.629-1.964.64 0 .95.353.95 1.057 0 .202-.02.494-.07.907l-2.659 14.992h5.987l2.998-16.925c.1-.705.15-1.189.15-1.48 0-1.108-.28-1.974-.839-2.568-.56-.604-1.39-.896-2.499-.896zM218.702 32.39h2.618l.69-3.926h-2.619l.68-3.887h-5.997l-.679 3.887h-2.009l-.68 3.926h2.009l-2.349 13.19c-.12.705-.18 1.289-.18 1.732.02.916.27 1.6.76 2.064.49.463 1.269.695 2.339.695h4.897l.69-3.927h-1.18c-.459 0-.779-.07-.949-.222-.17-.14-.26-.372-.26-.684 0-.151.05-.504.15-1.057l2.069-11.79zM41.238 20.409l-1.6 2.92a21.665 21.665 0 0 0-4.237-4.33l7.556-16.411-9.075 15.334a22.14 22.14 0 0 0-5.887-2.668C30.244 9.374 33.662 0 33.662 0l-8.116 14.71a22.745 22.745 0 0 0-3.638-.302c-.66 0-1.32.03-1.969.09 1.11-2.647 2.01-5.104 2.15-6.312L18.33 14.7C7.936 16.381 0 25.282 0 36.005c0 11.931 9.805 21.597 21.908 21.597 12.094 0 21.908-9.666 21.908-21.597 0-4.37-1.319-8.437-3.588-11.84.59-2.165 1.01-3.756 1.01-3.756zm0 13.482c0 10.29-8.456 18.637-18.9 18.637-10.434 0-18.9-8.347-18.9-18.637 0-8.7 6.057-15.99 14.232-18.043l-5.127 8.89-.01-.825s-1.569 1.782-3.198 5.296c-1.15 2.467-1.36 5.256-1.36 5.256l-.23-.675-2.048 5.8c.24.543.56 1.218.99 1.953l1.299-2.386s.08.624.16.513c.88-1.148 4.917-9.273 4.927-9.273l2.628-5.78-.46.182s2.34-4.773 4.288-9.324c.92-.13 1.85-.231 2.809-.231.95 0 1.869.09 2.778.221l-.92 1.662-.249-.786s-2.709 4.199-6.167 10.431c-3.528 6.364-5.737 13.885-5.737 13.885l.6-.09s-1.09 2.456-2.429 5.325c.47.423.98.836 1.53 1.239l3.368-5.95s3.528-5.186 4.687-7.21c.99-1.721 2.849-6.333 3.428-7.672.1-.232-.76.14-.72.11.31-.23 2.42-3.644 3.949-7.238.29-.685.73-1.803 1.259-3.172a18.79 18.79 0 0 1 5.667 2.759l-7.516 12.706-.17-1.067s-1.659 2.306-3.608 6.03C20.14 40.154 18.05 46.92 18.05 46.92l-1.2-.372s-.389.916-1.079 2.748c1.57.605 3.349 1.038 5.378 1.239.53-.856 1.089-1.772 1.629-2.678 1.839-3.071 9.495-19.483 9.495-19.483l-1.4.443 4.058-8.82a18.924 18.924 0 0 1 3.908 4.783l-3.718 6.806s-.09-.453-.14-.373c-.25.343-3.148 4.501-4.288 7.15-1.419 3.301-3.618 7.762-3.618 7.762l.43-.131-1.829 4.581c.69-.05 1.4-.12 2.129-.221l2.199-4.028.42.393c.07-.232 1.609-2.618 2.828-4.813 1.76-3.141 2.289-4.601 3.288-6.766.07-.161.21.514.29.302.7-1.762 1.85-5.689 2.799-9.082 1.019 2.316 1.609 4.853 1.609 7.532zM1.959 50.181l.67-1.228c-.05-.09-.1-.181-.15-.262l-.52 1.49zM.85 66.402l6.626-11.71a17.35 17.35 0 0 1-1.039-.846C4.078 58.981.85 66.402.85 66.402zM8.345 72l7.666-13.854a25.191 25.191 0 0 1-3.018-.786C11.064 63.26 8.345 72 8.345 72zM20.229 64.177l3.048-5.578c-.28.02-.56.03-.84.04l-2.208 5.538z"/></g><defs><clipPath id="clip0"><path fill="#fff" d="M0 0h222v72H0z"/></clipPath></defs></svg>