<svg width="74" height="60" viewBox="0 0 74 60" fill="none" xmlns="http://www.w3.org/2000/svg"><g clip-path="url(#clip0)"><path d="M23.271 60c27.924 0 43.2-23.085 43.2-43.112 0-.653 0-1.307-.04-1.96a30.975 30.975 0 0 0 7.579-7.84 30.332 30.332 0 0 1-8.72 2.386 15.203 15.203 0 0 0 6.676-8.385 30.326 30.326 0 0 1-9.641 3.672c-5.754-6.098-15.366-6.394-21.476-.653a15.165 15.165 0 0 0-4.395 14.473A43.074 43.074 0 0 1 5.148 2.761 15.14 15.14 0 0 0 9.85 22.987a15.032 15.032 0 0 1-6.894-1.9v.188c0 7.216 5.099 13.423 12.181 14.849a15.271 15.271 0 0 1-6.854.257 15.208 15.208 0 0 0 14.185 10.543A30.469 30.469 0 0 1 3.61 53.417c-1.21 0-2.41-.08-3.611-.218a43.06 43.06 0 0 0 23.271 6.791" fill="#000"/></g><defs><clipPath id="clip0"><path fill="#fff" d="M0 0h74v60H0z"/></clipPath></defs></svg>