<svg width="241" height="68" viewBox="0 0 241 68" fill="none" xmlns="http://www.w3.org/2000/svg"><path d="M72.57 42.93a7.049 7.049 0 0 0 7.053-7.046 7.049 7.049 0 0 0-7.052-7.045 7.049 7.049 0 0 0-7.052 7.045 7.049 7.049 0 0 0 7.052 7.046zM44.772 4.588c-2.87-.082-5.002 2.376-5.002 5.08 0 2.703 2.132 5.079 5.002 5.079 2.952 0 5.166-2.212 5.166-5.08 0-2.867-2.214-5.08-5.166-5.08z" fill="#000"/><path d="M174.087 17.123c-9.626 0-17.564 5.964-19.196 15.238h-3.928v-10.24c0-3.933.82-7.456 5.822-7.456 1.23 0 2.46.246 3.772.492l.574-7.62c-1.886-.41-3.772-.491-5.658-.491-11.152 0-13.284 6.554-13.284 16.467v8.848h-7.052V15.075c0-3.933.738-7.456 5.74-7.456 1.23 0 2.46.246 3.772.492l.574-7.62C143.337.082 141.451 0 139.565 0c-11.152 0-13.12 6.554-13.12 16.468V32.36h-4.01c-1.64-9.274-9.569-15.238-19.196-15.238-6.183 0-11.775 2.466-15.433 6.677-3.567-4.22-9.052-6.677-15.235-6.677-4.182 0-8.118 1.147-11.316 3.195v-2.376H52.48V68h8.857V51.614c3.198 2.049 7.134 3.196 11.316 3.196 6.166 0 11.61-2.475 15.153-6.678 3.658 4.212 9.25 6.678 15.433 6.678 9.799 0 17.843-6.178 19.286-15.73h3.92v14.828h8.692V39.08h7.052V68h8.774V39.08h3.838c1.443 9.552 9.487 15.73 19.286 15.73 5.659 0 10.989-2.049 15.171-7.21l-6.396-4.834c-2.214 2.786-5.166 4.834-9.595 4.834-5.002 0-8.938-3.195-9.512-8.52h27.061v-2.458c0-12.453-6.724-19.5-16.729-19.5zM72.653 46.617c-6.56 0-10.907-5.162-10.907-10.733 0-5.57 4.347-10.732 10.907-10.732s10.496 5.161 10.496 10.732-3.936 10.733-10.496 10.733zm30.586.082c-6.56 0-10.906-5.162-10.906-10.733 0-5.57 4.346-10.732 10.906-10.732 6.56 0 10.496 5.161 10.496 10.732S109.799 46.7 103.239 46.7zm60.434-14.338c.656-5.161 3.854-8.52 9.102-8.52 5.577 0 9.103 3.277 9.185 8.52h-18.287zM221.648 28.02c0-2.704 2.87-3.851 5.248-3.851 3.034 0 5.33 1.31 7.052 3.686l6.068-5.325c-2.952-3.932-7.954-5.489-12.792-5.489-4.322 0-8.627 1.303-11.398 4.047v-3.555a10.437 10.437 0 0 0-3.198-.492c-4.674 0-8.692 2.458-10.578 6.554l-.328.246v-5.98h-8.774v36.047h8.774V34.82c0-1.966 1.312-9.176 9.758-9.176.541 0 1.082.074 1.64.164-.214.86-.328 1.786-.328 2.786 0 13.682 19.352 7.865 19.352 15.238 0 2.868-3.362 4.097-5.986 4.097-3.772 0-6.232-1.885-8.528-4.424l-5.986 5.57c3.69 4.097 8.446 5.572 13.94 5.572 7.298 0 15.416-2.95 15.416-11.47 0-14.01-19.352-8.766-19.352-15.157zM19.68 43.176h-.164L9.512 17.942H0l14.842 35.966h9.512l14.432-35.966h-9.184L19.68 43.176zM40.508 53.908h8.774V17.942h-8.774v35.966z" fill="#000"/><path d="M104.774 42.735a7.044 7.044 0 0 0 5.242-8.476 7.052 7.052 0 0 0-8.483-5.238 7.045 7.045 0 1 0 3.241 13.714z" fill="#000"/></svg>