<svg width="260" height="473" viewBox="0 0 260 473" fill="none" xmlns="http://www.w3.org/2000/svg" preserveAspectRatio="none"><path d="M16.25 471.917c-6.367-.651-7.975-4.127-9.778-10.689-1.803-6.562-1.96-14.147-2.087-21.452-1.239-72.945-2.477-145.89-3.587-218.835C-.237 152.774-1.157 84.234 4.114 16.718c.337-4.313.835-9.053 2.766-11.693 1.618-2.212 3.814-2.36 5.85-2.417C38.553 1.995 64.372 1.381 90.196.787 143.04-.46 196.062-1.704 248.535 9.542c4.151.893 8.877 11.897 10.082 21.378 1.646 13.013 1.423 30.412 1.295 43.592-.792 80.939-.128 118.452-2.842 199.242-1.997 59.411-2.96 118.563-7.415 177.566-.465 6.116-1.139 12.901-3.9 16.6-2.287 3.067-5.385 3.16-8.246 3.049-21.497-.837-49.863-.688-71.365-.521-50.826.391-120.702 4.443-149.894 1.469z" fill="#BCBA6D"/></svg>