<svg width="260" height="176" viewBox="0 0 260 176" fill="none" xmlns="http://www.w3.org/2000/svg" preserveAspectRatio="none"><path d="M25.266.963C10.588 2.042 5.042 5.331 2.611 8.738.179 12.146.122 16.027.108 19.776.069 28.828.036 37.873.002 46.917c-.033 8.887.278 17.781 1.24 26.648 5.245 48.356-1.388 66.426-.062 90.035.182 3.249.895 6.933 4.972 8.841 2.603 1.217 6.006 1.407 9.217 1.539 55.18 2.322 110.531 2.111 165.825 1.894 16.592-.065 33.237-.131 49.695-1.506 5.02-.421 10.165-1 14.448-2.736 10.758-4.368 12.117-13.972 12.333-22.182.698-27.016 1.392-54.032 2.091-81.048.512-19.886.967-40.107-7.294-59.269-.555-1.29-1.225-2.644-2.818-3.5-1.776-.953-9.17-1.19-11.472-1.25L102.077.767C77.191.1 52.234-.557 27.41.759l-2.144.204z" fill="#94C108"/></svg>