<svg width="260" height="176" viewBox="0 0 260 176" fill="none" xmlns="http://www.w3.org/2000/svg" preserveAspectRatio="none"><path d="M16.25 175.597c-6.367-.242-7.975-1.536-9.778-3.977-1.803-2.442-1.96-5.264-2.087-7.982-1.239-27.143-2.477-54.285-3.587-81.427C-.237 56.846-1.157 31.343 4.114 6.22c.337-1.605.835-3.369 2.766-4.351 1.618-.823 3.814-.879 5.85-.9C38.553.743 64.372.515 90.196.294 143.04-.171 196.062-.634 248.535 3.55c4.151.332 8.877 4.426 10.082 7.954 1.646 4.842 1.423 11.316 1.295 16.22-.792 30.117-.128 44.076-2.842 74.137-1.997 22.107-2.96 44.116-7.415 66.071-.465 2.276-1.139 4.8-3.9 6.177-2.287 1.141-5.385 1.176-8.246 1.134-21.497-.311-49.863-.256-71.365-.193-50.826.145-120.702 1.653-149.894.546z" fill="#F6B081"/></svg>