<svg width="260" height="333" viewBox="0 0 260 333" fill="none" xmlns="http://www.w3.org/2000/svg" preserveAspectRatio="none"><path d="M128.73.32C98.764.39 64.721.093 20.699 4.984c-4.712.524-9.769 3.083-12.79 7.649-2.529 3.814-2.997 13.814-3.342 18.765A1879.521 1879.521 0 0 0 2.63 261.742c.72 13.626 1.612 27.392 4.884 40.416 2.016 8.024 5.102 15.979 10.395 21.137 4.988 4.862 11.385 6.729 17.615 8.014 18.221 3.775 35.013.059 53.476 0 46.561-.148 87.276 1.383 145.918-2.194 13.203-.8 18.428-1.166 22.05-5.721 3.623-4.546 2.967-17.194 3.012-28.094.103-25.89-1.873-62.601-3.347-88.432a1838.276 1838.276 0 0 1-2.247-156.902c.389-13.686 2.528-30.347-5.727-39.29-4.323-4.684-12.248-6.581-17.946-7.105-54.175-4.98-72.022-3.32-101.983-3.25z" fill="#94C108"/></svg>