<svg width="260" height="298" viewBox="0 0 260 298" fill="none" xmlns="http://www.w3.org/2000/svg" preserveAspectRatio="none"><path d="M234.734 296.369c14.678-1.826 20.224-7.395 22.655-13.165 2.432-5.769 2.489-12.34 2.503-18.689.039-15.326.072-30.64.106-45.955.033-15.047-.278-30.106-1.24-45.12-5.245-81.874 1.388-112.47.062-152.444-.182-5.502-.895-11.74-4.972-14.97-2.603-2.06-6.006-2.383-9.217-2.606C189.452-.51 134.1-.155 78.806.213 62.214.324 45.57.435 29.111 2.763c-5.02.713-10.165 1.693-14.448 4.634C3.905 14.792 2.546 31.053 2.331 44.953 1.63 90.697.938 136.44.239 182.184c-.512 33.67-.967 67.907 7.294 100.352.555 2.183 1.225 4.478 2.818 5.926 1.776 1.615 9.17 2.015 11.472 2.116 47.005 2.116 89.1 4.009 136.1 6.126 24.886 1.125 49.843 2.238 74.667.011l2.144-.346z" fill="#BCBA6D"/></svg>