<svg width="260" height="244" viewBox="0 0 260 244" fill="none" xmlns="http://www.w3.org/2000/svg" preserveAspectRatio="none"><path d="M234.734 1.335c14.678 1.496 20.224 6.056 22.655 10.78 2.432 4.723 2.489 10.104 2.503 15.302.039 12.549.072 25.088.106 37.628.033 12.32-.278 24.65-1.24 36.943-5.245 67.039 1.388 92.09.062 124.821-.182 4.505-.895 9.612-4.972 12.256-2.603 1.688-6.006 1.952-9.217 2.134-55.179 3.22-110.531 2.928-165.825 2.627-16.592-.091-33.237-.183-49.695-2.089-5.02-.583-10.165-1.386-14.448-3.793-10.758-6.056-12.117-19.37-12.333-30.752C1.632 169.738.938 132.284.24 94.829c-.513-27.568-.968-55.602 7.293-82.167.555-1.788 1.225-3.666 2.818-4.852 1.776-1.322 9.17-1.65 11.472-1.733l136.1-5.016c24.886-.92 49.843-1.833 74.667-.009l2.144.283z" fill="#C5D362"/></svg>