<svg width="260" height="216" viewBox="0 0 260 216" fill="none" xmlns="http://www.w3.org/2000/svg" preserveAspectRatio="none"><path d="M128.73.206C98.764.251 64.721.06 20.699 3.214c-4.712.338-9.769 1.988-12.79 4.932-2.529 2.459-2.997 8.907-3.342 12.1A782.58 782.58 0 0 0 2.63 168.77c.72 8.787 1.612 17.662 4.884 26.06 2.016 5.174 5.102 10.303 10.395 13.629 4.988 3.135 11.385 4.339 17.615 5.168 18.221 2.434 36.787 2.402 55.25 2.364 46.561-.096 85.502-1.472 144.144-3.779 13.203-.516 18.428-.752 22.05-3.689 3.623-2.931 2.967-11.087 3.012-18.115.103-16.694-1.873-40.364-3.347-57.02a765.11 765.11 0 0 1-2.247-101.17c.389-8.825 2.528-19.568-5.727-25.334-4.323-3.02-12.248-4.244-17.946-4.581C176.538-.91 158.691.162 128.73.206z" fill="#ED982A"/></svg>