<svg width="48" height="48" viewBox="0 0 48 48" fill="none" xmlns="http://www.w3.org/2000/svg"><g clip-path="url(#clip0)" fill="#000"><path d="M8.799 41.687c-4.977-.638-4.957-3.315-4.72-8.084.197-3.986.139-7.659.324-11.764-.076-1.424-.91-16.407.298-9.108a.67.67 0 0 0-.003-.055C8.33 37.759-.719 42.227 15.376 39.603c5.285.81-4.555 2.587-6.577 2.084zM44.001 21.873c-.087-4.073-.027-8.432-1.422-12.529.022.014.044.025.065.04C40.997 3.753 31.797 7 27.837 6.366c-7.51.365-14.226-.338-20.284.958-.797 1.114 2.502.173 3.3.287h-.003c33.267.178 29.29-3.14 30.896 6.67.794 9.007 1.261 18.338-.283 23.892l.076-.084c-1.285 1.43-3.612 1.962-5.85 1.996h.011c-12.689.184 4.27 3.445 7.312-.916 1.35-2.642.807-15.725.99-17.296z"/><path d="M38.285 33.493c-.176-.2-.003-.213-.575-.49.04-9.133 2.412-13.988-4.307-11.692-.54 3.652-.16 7.684-.521 11.675-.796.027-1.5.08-2.566.15h.005l-.032.001h.003l-.038.002h.003l-.076.004.018-.001c-.022.001-.043.003-.065.003.025-.002.051-.003.076-.003l-.422.021c.113-.74.095-1.748.196-2.77l.006-.076v.014c.363-9.89 2.563-10.912-1.69-10.781-.138-7.775 2.058-9.603-4.43-8.808-.362.187-.964.208-.915 1.012-.31 6.95-.239 14.134-.633 21.325a151.89 151.89 0 0 0-3.652-.002c-.15-8.093 1.932-11.025-2.192-10.438-.492-2.453 1.23-7.132-2.652-6.577-1.067.13-2.474-.417-3.269.813-.216 5.43-.16 11.045.008 16.731-.909-.244-3.623 1.19-.615.935-.004 0-.007 0-.011.002 6.608-.47 13.272-.132 20.094-.15h-.007c.72-.039 1.44-.102 2.162-.145h-.02.013-.002.009c1.744-.564 4.701.92 6.097-.755zM17.199 32.22a.035.035 0 0 0-.01.01l.003-.003-.006.006v-.001c-.172.173-.406.403-.768.785.016-.146.012-.218.013-.59.447-.477.637-.642 1.347-1.453-.007.207-.013.412-.017.619a7.94 7.94 0 0 1-.562.627zm-.06-6.133c.146-.15.448-.462.758-.802-.001.168-.008-.014-.012.794-.401.294-.83.872-1.345 1.439.006-.268.007-.535.009-.803.194-.212.39-.423.59-.629zm-.642 2.895l.013-.367c.403-.498.788-.971 1.373-1.669 0 .23-.005.53-.02 1.018-.488.593-.675.765-1.38 1.577.002-.187.008-.373.014-.56zm-.041 2.277c.005-.22.008-.442.01-.662.382-.45.648-.77 1.369-1.614l-.027 1.002c-.314.347-.787.874-1.355 1.44 0-.056.002-.111.003-.166zm1.509-7.32c-.011.138-.02.278-.028.416-.28.246-.626.653-1.097 1.117v.002l-.03.029.014-.014-.284.283c-.005-.377-.01-.752-.019-1.13.166-.165.39-.369.984-.97.113.018-.018-.031.477.051l-.017.216zm-1.317-.315l.027.001-.172.166c-.001-.063-.003-.124-.003-.187.05.009.1.015.148.02zm.58 9.48c.1-.115.198-.21.522-.576.003.174-.006.245.08.56-.2.004-.401.01-.602.016zm12.375-10.61l.03-.038c-.031.26-.09.797-.14 1.332-.339.45-.878.979-1.523 1.581.01-.234.029-.571.058-1.09.447-.49 1.024-1.048 1.575-1.785zm-.439 5.298c-.001.014-.003.028-.003.043v-.003c-.01.127-.02.256-.032.383-.386.313-.724.604-1.3 1.1l.038-.999c.158-.142.496-.453.819-.774.004-.004.001-.003.011-.01l-.003.003.052-.05a52.387 52.387 0 0 0 .477-.483c-.02.262-.038.525-.059.79zM29.3 26c-.247.239-.4.435-.956.982l-.007.008a.56.56 0 0 1-.007.007l.003-.003c-.143.141-.287.28-.433.417.011-.375.022-.752.035-1.128.416-.434.88-.83 1.467-1.476-.036.399-.07.796-.102 1.193zm.104-2.075c.004-.011-.002-.002.015-.036l.004-.006c-.022.045-.001 0-.034.135 0-.023-.002-.015.005-.06v.003l.01-.037zm-1.79 8.911c.022-.224.041-.446.078-.945.214-.195.36-.275 1.22-1.075-.018.264-.036.526-.052.79-.034.006-.265.387-1.245 1.23zm1.37-2.97c-.308.334-.697.688-1.236 1.136.008-.172.003.01.04-.806.233-.204.369-.32 1.264-1.102-.024.256-.046.515-.068.772zm.86-9.24c-.015.269-.026.351-.088.87-.492.298-.963 1.26-1.672 1.848.095-.264-.133-.825.233-1.228l-.005.008.087-.114-.003.003c.291-.396.718-.775 1.153-1.411.05.005.065-.002.295.024zm-1.2-.087c.063.006.125.01.187.017-.202.24-.414.469-.619.707l.044-.771c.13.018.26.033.388.047zm-.399 12.679c.13-.114.244-.215.567-.538-.001.135-.011.204.053.521-.207.008-.413.014-.62.017z"/></g><defs><clipPath id="clip0"><path fill="#fff" d="M0 0h48v48H0z"/></clipPath></defs></svg>