<svg width="48" height="48" viewBox="0 0 48 48" fill="none" xmlns="http://www.w3.org/2000/svg">
<circle cx="24" cy="24" r="23.5" fill="white" stroke="#949494"/>
<path d="M21.5841 28.704C21.4881 28.704 21.4041 28.668 21.3321 28.596C21.2601 28.524 21.2241 28.434 21.2241 28.326V27.588C21.2241 27.468 21.2541 27.366 21.3141 27.282C21.3741 27.198 21.4821 27.102 21.6381 26.994L26.4981 23.664L21.6381 20.334C21.4941 20.238 21.3861 20.148 21.3141 20.064C21.2541 19.98 21.2241 19.872 21.2241 19.74V19.002C21.2241 18.894 21.2541 18.81 21.3141 18.75C21.3861 18.678 21.4761 18.642 21.5841 18.642C21.6561 18.642 21.7401 18.672 21.8361 18.732C21.9441 18.78 22.0101 18.81 22.0341 18.822L27.6501 22.692C27.8421 22.824 27.9741 22.956 28.0461 23.088C28.1301 23.208 28.1721 23.352 28.1721 23.52V23.826C28.1721 23.994 28.1301 24.144 28.0461 24.276C27.9741 24.396 27.8421 24.516 27.6501 24.636L22.0341 28.506C21.8421 28.638 21.6921 28.704 21.5841 28.704Z" fill="#949494"/>
</svg>
