<svg width="11" height="8" viewBox="0 0 11 8" fill="none" xmlns="http://www.w3.org/2000/svg">
<path d="M0.296 0.583999C0.296 0.487999 0.332 0.403999 0.404 0.331999C0.476 0.259999 0.566 0.223999 0.674 0.223999L1.412 0.223999C1.532 0.223999 1.634 0.253999 1.718 0.313999C1.802 0.373999 1.898 0.481999 2.006 0.637999L5.336 5.498L8.666 0.638C8.762 0.494 8.852 0.386 8.936 0.314C9.02 0.254 9.128 0.224 9.26 0.224L9.998 0.224C10.106 0.224 10.19 0.254 10.25 0.314C10.322 0.386 10.358 0.476 10.358 0.584C10.358 0.656 10.328 0.74 10.268 0.836C10.22 0.944 10.19 1.01 10.178 1.034L6.308 6.65C6.176 6.842 6.044 6.974 5.912 7.046C5.792 7.13 5.648 7.172 5.48 7.172L5.174 7.172C5.006 7.172 4.856 7.13 4.724 7.046C4.604 6.974 4.484 6.842 4.364 6.65L0.494 1.034C0.362 0.841999 0.296 0.691999 0.296 0.583999Z" fill="#EC6C53"/>
</svg>
