<svg width="48" height="48" viewBox="0 0 48 48" fill="none" xmlns="http://www.w3.org/2000/svg">
<circle cx="24" cy="24" r="23.5" fill="white" stroke="#949494"/>
<path d="M27.236 28.704C27.152 28.704 27.008 28.638 26.804 28.506L21.188 24.636C20.996 24.516 20.858 24.396 20.774 24.276C20.702 24.144 20.666 23.994 20.666 23.826V23.52C20.666 23.352 20.702 23.208 20.774 23.088C20.858 22.956 20.996 22.824 21.188 22.692L26.804 18.822C26.828 18.81 26.888 18.78 26.984 18.732C27.08 18.672 27.164 18.642 27.236 18.642C27.344 18.642 27.434 18.678 27.506 18.75C27.578 18.81 27.614 18.894 27.614 19.002V19.74C27.614 19.872 27.578 19.98 27.506 20.064C27.446 20.148 27.344 20.238 27.2 20.334L22.34 23.664L27.2 26.994C27.356 27.102 27.464 27.198 27.524 27.282C27.584 27.366 27.614 27.468 27.614 27.588V28.326C27.614 28.446 27.578 28.542 27.506 28.614C27.434 28.674 27.344 28.704 27.236 28.704Z" fill="#949494"/>
</svg>
