<svg width="24" height="24" viewBox="0 0 24 24" fill="none" xmlns="http://www.w3.org/2000/svg">
<path d="M13.4292 12.0137L23.6812 1.79653C24.0682 1.41315 24.0682 0.792517 23.6812 0.410114C23.2953 0.0267324 22.6684 0.0267324 22.2824 0.410114L12.0373 10.6205L1.71769 0.29047C1.33173 -0.0968233 0.704827 -0.0968233 0.318866 0.29047C-0.0670957 0.678741 -0.0670957 1.3072 0.318866 1.69449L10.6326 12.0186L0.289471 22.326C-0.0964903 22.7094 -0.0964903 23.3301 0.289471 23.7125C0.675432 24.0958 1.30233 24.0958 1.6883 23.7125L12.0245 13.4119L22.3117 23.7095C22.6977 24.0968 23.3246 24.0968 23.7105 23.7095C24.0965 23.3213 24.0965 22.6928 23.7105 22.3055L13.4292 12.0137Z" fill="#949494"/>
</svg>
