<svg width="48" height="48" viewBox="0 0 48 48" fill="none" xmlns="http://www.w3.org/2000/svg"><g clip-path="url(#clip0)"><path d="M31.802 25.725c.032-.126.065-.253.095-.38l-.095.38zm-2.251 6.777c-4.112-.004-7.816 1.096-9.031.048.106.88-.69 1.853-.72-.015-.82-5.521 8.471-6.536 12.51-8.56 2.436-.473-1.419 8.744-2.76 8.527z" fill="#C5D362"/><path d="M33 10c-1.611-1.84-4.066-2.735-6.409-3.756l-.034-.016-.066-.03c-.054-.071-.142-.223-.427-.2.01 0 .018-.003.026-.005l-.05.008.018-.003C23.695 6.666 21.65 8.575 19.5 10c-2.04 1.653-15.085 8.727-12.149 9.076 3.204 1.237 6.32 3.607 7.579 7.133 0-.003-.002-.005-.003-.008 4.82 12.98-12.693 18.577 3.139 15.325 3.67-1.013 6.748-2.805 10.606-3.452l-.014.002c.872-.175 1.791.39 2.811 0 1.02.769 4.858-6.294 5.096-7 3.377-7.83.9-15.622-3.565-21.076zm.858 4.204c4.596 7.782 1.275 15.41-2.392 21.628l.003-.006c-.104.208-.267.336-.497.839C23.967 37.625 28.5 36.5 13.5 41c7.728-9.416 4.179-18.553-3.5-21.924.465-.139.003.002 0 0 .465-.139-.853-.379-1.5-.576a8.8 8.8 0 0 1 1.026-.75C15.37 14.427 20.782 11.915 26.09 7.5c1.574 1.268 3.755 1.552 5.256 3.217l-.013-.013c.903.92 1.82 2.22 2.525 3.5zM39.232 18.535c-1.336-1.57-1.367-4.996-3.543-6.716l.042.048a61.548 61.548 0 0 1-.03-.035c-4.303-4.946 1.473-.673 2.446 1.446l-.039-.06c.746 1.256 2.37 4.77 1.124 5.317zM40.195 14.507c-.592.04-.557-.202-.983-1.025-5.342-7.516 2.49-.481.983 1.025z" fill="#000"/><path d="M17.148 17.228c-.327-.191-.732.132-1.182.456-.114-.416-1.399-2.793-2.076-.574.024.493.21 1.14.445 1.819-1.17.484-1.83 2.55.406 1.039 3.17 7.972 7.202.447 4.177 1.634l.021-.01v.001c.007-.002.013-.007.02-.01-.78.86-2.068-2.045-2.483-2.884.315-.257 1.55-.862.672-1.47zM29.282 14.377c-3.61 2.098-8.462 6.68-8.831 5.517.21-1.141 4.764-3.9 5.508-4.481l-.056.035c.364-.236.73-.465 1.095-.7a.958.958 0 0 1-.054.034l.115-.074-.053.035c.61-.715 4.74-2.664 2.276-.366z" fill="#000"/><path d="M30.74 17.305c-2.11 1.343-4.227 2.846-6.496 4.28l.049-.031-.146.094.004-.003c-.735.48-1.477.945-2.212 1.421a.084.084 0 0 1 .015-.01c-.02.012-.037.025-.056.036l.002-.002-.041.028.002-.001c-.53.342-1.064.68-1.594 1.022.014-.01.027-.017.04-.027-7.355 3.915 8.7-6.894 9.52-7.316h-.001a1.306 1.306 0 0 1 .057-.035l.05-.033.07-.046-.004.003.05-.033c.578-.792 2.507-.445.692.653zM31.736 19.424c-2.103.99-13.496 8.462-12.712 6.78.21-.685 16.945-11.026 12.712-6.78zM32.98 23.473c-.097.005-.167.01-.405.162l.012-.011c-1.209.57-2.81 1.059-4.24 1.742-3.21 1.61-9.518 3.463-9.458 4.512-.09 1.008-.107 2.252-.368 3.456v-.002c-.027 1.47-1.706 2.792-1.233 3.817 4.176-.217 8.076-2.448 12.232-3.667 1.763.735 5.29-9.946 3.46-10.01zm-.236 1.148c-.066.402-.15.8-.24 1.197v-.001c-.382 1.467-.748 3.032-1.532 4.57l.008-.013-.005.01-.008.014.003-.004c-.009.015 0 0-.025.048l.002-.002c-.229.43-.466.855-.732 1.264-2.202-1.81-1.467-1.895-4.474-.317-.17-.09-.223-.145-.52-.417 0-.001 0-.002-.002-.002-.006-.006-.008-.006-.039-.037l.006.005c-.7-.699-1.856-1.902-3.388-.317l.038-.03c-.769.626-1.604 1.334-2.394 2.236.095-.889.101-1.792.041-2.91 3.392-1.354 6.96-2.735 10.452-4.366l.031-.014c.845-.38 1.807-.74 2.82-1.192-.013.092-.028.185-.043.278z" fill="#000"/><path d="M28.375 25.354l.049-.022a2.654 2.654 0 0 1-.049.022zM22.648 29.99c.009-.007.007-.004.043-.026l-.043.025zM27.151 30.638l.045-.027-.045.027zM29.255 29.4c-2.194.307-2.402-2.907-.071-2.726 1.421-.291 2.041 2.456.071 2.727z" fill="#000"/></g><defs><clipPath id="clip0"><path fill="#fff" d="M0 0h48v48H0z"/></clipPath></defs></svg>