<svg width="48" height="48" viewBox="0 0 48 48" fill="none" xmlns="http://www.w3.org/2000/svg"><g clip-path="url(#clip0)"><path d="M10.162 26.335c.003-.143.008-.287.015-.433-.003.08-.007.15-.015.413v-.02c0 .011-.002-.006 0 .04zm-.11 10.105l.007-.003a.66.66 0 0 1-.011-.067.655.655 0 0 1 .003.07zm2.932 1.237c-.868-.238-2.723.416-3.3-.7-.552-1.494-.27-3.46-.312-5.272l-.001.044c.03-.98.119-2.126.164-3.316l-.001.041c.305-1.96-.68-5.093 1.594-6.056l-.008.001c.009 0 .003 0 .036-.008 9.91.01 9.92-2.254 9.818 2.583l.003-.072c-.064 1.988-.345 3.982-.433 6.148l.001-.023v.005c-.319 5.636 1.972 6.669-2.776 6.435l.033.001-.047-.001h.002c-1.496-.066-3.063.206-4.773.19z" fill="#94C108"/><path d="M43.992 26.813c-.04-.046-.017-.102-.237-.198l.004.003c-.168-.063-.017-.006-.574-.193l.04.014c-.119-.047-.158-.025-.386-.173l.009.006c-2.106-.956-4.661-8.217-5.96-10.687v.002l-.002-.006v.001c-.003-.004.002-.001-.014-.027l.004.005c-1.029-1.89-2.21-4.364-3.844-6.077v.002c-1.019-.22-2.713 4.232-3.198 4.938-8.555-.168-25.15.08-24.69 1.496-1.574 1.206-.362 9.587-.538 11.09.416 4.082-.97 8.418 1.43 9.903 6.494 2.09 18.437 1.35 21.552.928.838.037 3.943-2.018 1.649-2.454-2.406.515-4.354 1.264-7.057 1.197.014-5.172.3-10.138 0-15.461.84-.146.835-.104 0 0 .488-4.265-8.783-2.489-11.473-2.431h.001l-.043.006h.003c-1.02.131-3.02.811-3.033 2.32-.128 4.907.14 9.856.449 14.807v-.001l.005.055v-.002l.004.042.01.135v-.005l.021.27.005.062c.002.014.002.012.006.078l.004.05c-1.991-.406-1.635-.871-1.716-3.872C6.475 28.686 4.89 15.968 7.649 16l-.014.001c8.11-.717 13.328-.656 21.602-.41a208.622 208.622 0 0 0-2.89 5.685l.008-.02c-.713 1.348-1.224 2.787-2.246 4.158-1.708 1.175-2.701 1.48.867 1.4h-.016.012l-.01.001c1.189-.097 3.959.42 1.185-1.328-.028-1.286 1.397-2.881 1.876-4.03 1.307-.09 3.019-.125 4.537-.198.135 3.798.808 7.63.872 11.669l-.001-.03c.483 3.111-2.416 1.932-2.095 3.618 5.49 1.21 2.778-9.717 2.602-12.846l.003.007-.008-.061.002.005c-.085-.701-.193-1.475-.242-2.405l.434-.008-.02.001a1.17 1.17 0 0 1 .065-.001l-.023.001c.318-.001.7.003 1.13 0l-.023.001c.146-.001.269.002.773-.008.335 1.534 2.987 4.115 1.022 5.537v.001c-1.498.745 1.508.644 2.52.694l-.014.002c-.097-.178 4.692.421 4.435-.623zm-35.18-5.795c.064-.399.45-1.257 2.112-1.46h-.009l.028-.003c3.15.07 10.136-1.917 9.734 1.804-2.262.027-4.744.374-7.264.305h.04l-.175.001h.04-.098.04c-1.392.033-2.899-.014-4.503.172.036-.259-.097-.044.055-.82zm.242 15.016c-.33-4.407-.119-9.041-.276-13.627 1.04-.07 2.256-.116 3.514-.118h-.005.106-.01c.26-.003.891 0 1.485-.003h-.04.163-.04c.288 0 .578 0 .866-.003h-.03l.12-.001h-.013l.459-.004h-.009c1.72-.044 3.398-.046 5.31-.357-.031 4.93-.356 9.868-.236 14.964-3.796-.155-7.399-.205-11.32-.302-.004-.181-.03-.367-.044-.55zm23.602-17.096c-.016.178-.031.355-.043.531-1.082.064-2.256.129-3.611.311a81.75 81.75 0 0 0 2.161-4.047c1.558-.01 1.732 1.267 1.493 3.205zm1.06.48a.377.377 0 0 0-.037.002c.018-.662.117-1.448.02-2.407-.125-1.046-.414-1.962-2.016-2.332.236-.486.529-1.078.883-1.86a188.652 188.652 0 0 0 2.624 6.53c-.485.018-.975.04-1.474.067z" fill="#000"/><path d="M28.653 30.82c-.852-1.245-10.436.673-3.599.522-.017.002-.035.002-.052.003.516-.193 3.648.332 3.651-.525zM26.93 33.158c2.258-1.837-7.79.029-2.594.1h-.001c.01 0 .008-.002.045-.003h-.006c.082-.004.308-.01.626-.023h-.008l.368-.015h-.008l.032-.001h-.002l.051-.002h-.012l.077-.003h-.001l.02-.001c.336-.011.846-.022 1.413-.052zM14.591 24.94c-1.933-.01-2.918 3.688.195 3.916 1.902.353 3.522-2.21.88-3.656l.042.018c-.119-.064-.144-.007-.301-.229-.139-.012-.433-.093-.816-.049zm-.241 4.573c-.731-.122-1.447-.402-2.02-1.351a.045.045 0 0 1 .006.01c-1.323-2.287 1.361-5.13 4.012-3.517 2.292 1.638 1.854 5.44-1.998 4.858zM18.143 31.5c.107-.777-5.857-.465-6.76-.398-2.278 2.173 1.445 2.712 3.678 2.28.9-.327 2.977.685 3.078-1.015l-.007.046c.011-.207.092-.417.011-.912zm-1.44 1.094c-1.602.026-3.33.32-5.154.068h-.001c-.003-.031-.003-.062-.003-.092v.028c-.007-.218.008-.223-.028-.867 1.821.116 3.904.114 5.944.125-.02.131.034.002-.06.77-.098-.026 0-.088-.698-.032zM12.899 35.006c-1.305-.262.137-.89 1.898-.76h-.006c1.217-.285 2.764.943-.254.72h.003c-.434.002-.987.03-1.641.04z" fill="#000"/><path d="M16.684 34.66c.155-.792 1.31.084.343.387-.124-.01-.292-.106-.343-.387z" fill="#000"/></g><defs><clipPath id="clip0"><path fill="#fff" d="M0 0h48v48H0z"/></clipPath></defs></svg>