<svg width="48" height="48" viewBox="0 0 48 48" fill="none" xmlns="http://www.w3.org/2000/svg"><path d="M36.819 15.585a34.15 34.15 0 0 0-.414-.03c.018.002.036.004.055.004l-.108-.006.467.031zm3.374.529l-.001-.124-.007-.003c.004.042.007.085.008.127zM11.39 36c-4.582-.526-3.836-5.737-4.386-16.093a1.117 1.117 0 0 0-.003.069c-.006-1.016.417-2.09 2.174-2.945l-.025.014.038-.022-.007.003c.402-.183.563-.362 1.877-.642l-.082.01c6.226-.646 12.722-.78 19.137-1.607 2.88-.387 6.91.882 7.752-.787 1.444.129 4.03-.57 4.147 2.15 1.812 15.054 2.046 18.84-7.411 19.281-7.905.664-15.335.526-23.212.569z" fill="#BCBA6D"/><path d="M38.466 38.622c-2.261-.988 2.022-.935 3.152-1.746l-.044.022c1.694-.713 2.388-2.64 2.43-4.732.722-.738 1.51 1.877.557 3.593-1.078 2.256-3.641 2.893-6.095 2.863z" fill="#000"/><path d="M43.849 24.902c-2.47-16.8 4.524-14.76-19.868-14.878-21.415.579-19.522-2.22-18.33 21.01l-.01-.081c-.134 5.686 2.992 5.254 8.142 4.854h-.002c.005 0 .006-.002.034-.005h-.001c.018-.07.48.114.746-.338 0 0-.002.001-.002.003a.386.386 0 0 0 .007-.08h.002c-.066-.693-2.065-.173-5.36-.622.024.005.05.008.074.014-2.273-.068-2.352-1.558-2.552-4.66-.737-4.381-.27-8.942-.687-13.67 11.771-.624 23.666-.88 35.637-1.308 1.172 19.102 3.576 20.518-13.429 19.947h.033c-.729-.02-.884-.036-1.909-.056h.02c-.578-.014-1.603-.031-2.48-.048h.004c-6.696-.318-5.234 1.413.886 1.112h-.013c1.178.024 2.587.077 4.016.13h-.018c.022 0 .046 0 .07.002h-.019c.082.002.166.003.247.006l-.07-.002c10.277-.304 15.072 2.549 14.832-11.33zm-2.275-10.488c-.772-.293-2.007-.031-3.124-.117h.002c-10.657.102-21.525.469-32.41 1.414-.08-.35.236-.23-.106-1.17.418-3.786 8.576-3.391 12.102-3.301h-.012c4.906.833 25.324-2.424 23.628 3.224a.68.68 0 0 0-.08-.05z" fill="#000"/><path d="M8.63 14.306c-.65-.505.43-1.91 1.112-.806.276.537-.407 1.36-1.112.806zM11.653 14.202c-.688-.558.463-2.034 1.182-.857.277.59-.426 1.46-1.182.857zM15.086 13.946c-.658-.511.435-1.934 1.127-.816.28.544-.413 1.378-1.127.816zM19.295 30.571c-3.492-.217 10.03-16.408 6.963-9.877l.044-.067c-2.745 3.789-4.7 9.36-7.007 9.944zM15.72 28.286c-.177-.042.089.028-.702-.212l.063.02c-8.577-2.254-2.664-3.674 2.001-6.665v.002c2.084.254-3.11 3.48-3.91 4.141.368.124.743.26 1.455.493-.039-.011-.077-.024-.115-.036.075.025.152.047.226.07-.038-.012-.076-.025-.115-.036 1.083-.075 4.444 1.983 1.096 2.223zM29.506 28.26c-2.145-1.013 3.167-3.198 4.088-3.776a23.362 23.362 0 0 1-1.74-.821c.029.016.06.031.09.046-1.144-.242-5.176-3.119-.838-2.039 3.65 1.298 7.773 2.25 1.526 5.268l.087-.053c-.907.373-1.853 1.59-3.213 1.376z" fill="#000"/></svg>