<svg width="24" height="24" viewBox="0 0 24 24" fill="none" xmlns="http://www.w3.org/2000/svg"><path fill-rule="evenodd" clip-rule="evenodd" d="M12 0C5.373 0 0 5.373 0 12s5.373 12 12 12 12-5.373 12-12S18.627 0 12 0zm-.149 16c-.644 0-1.202-.16-1.673-.478-.472-.318-.833-.778-1.086-1.378-.245-.6-.368-1.314-.368-2.144 0-.83.123-1.544.368-2.144.253-.6.614-1.06 1.086-1.378.471-.319 1.03-.478 1.673-.478.651 0 1.21.16 1.674.478.471.318.83.778 1.076 1.378.252.6.378 1.314.378 2.144 0 .83-.126 1.544-.378 2.144-.246.6-.605 1.06-1.076 1.378-.465.319-1.023.478-1.674.478zm0-1.267c.532 0 .947-.24 1.246-.722.305-.489.458-1.16.458-2.011 0-.852-.153-1.518-.458-2-.3-.489-.714-.733-1.246-.733-.524 0-.94.244-1.245.733-.299.482-.448 1.148-.448 2 0 .852.15 1.522.448 2.011.306.482.72.722 1.245.722zM3 8.111h2.49c1.906 0 2.86 1.248 2.86 3.745 0 .963-.107 1.74-.32 2.333-.212.585-.548 1.015-1.006 1.289-.451.274-1.052.41-1.803.41H3V8.112zm2.37 6.5c.38 0 .681-.093.907-.278.226-.185.389-.477.488-.877.107-.4.16-.934.16-1.6 0-.882-.113-1.512-.339-1.89-.226-.385-.601-.577-1.126-.577H4.434v5.222h.937zm10.898.589c.459.533 1.133.8 2.023.8.89 0 1.564-.267 2.022-.8.458-.533.687-1.315.687-2.344V8.11h-1.434v4.722c0 1.26-.425 1.89-1.275 1.89-.844 0-1.265-.63-1.265-1.89V8.111H15.59v4.745c0 1.03.226 1.81.678 2.344z" fill="#28B3BE"/></svg>