<svg width="48" height="48" viewBox="0 0 48 48" fill="none" xmlns="http://www.w3.org/2000/svg"><circle cx="23.68" cy="30.687" r="6.672" fill="#94C108"/><path fill-rule="evenodd" clip-rule="evenodd" d="M30.224 43.16c-2.555.921-10.2 1.849-16.59-1.692l-.004-.003c-6.55-3.489-9.332-11.22-3.272-18.58 4.683-4.823 8.114-5.864 8.436-5.838.448.29-3.857 3.807-6.887 5.837-5.978 4.006-2.93 11.089-.452 14.584.787 1.135 1.972 1.937 3.15 2.703 2.39 1.503 9.109 3.748 16.972.796.138-.058.248-.111.317-.16.221-.051.75-.32 1.38-.642.33-.167 1.645-1.193 2.097-1.56 1.167-.947 2.867-2.327 3.298-5.123.309-1.35.237-2.744-.07-4.09v.006c-.313-1.44-1.568-2.278-3.092-3.295-1.998-1.334-4.457-2.976-5.866-6.685-1.316-1.947-2.142-2.646-2.244-2.732l-.011-.01.011.008c.058.04.334.23.863.47 2.485.504 8.006 6.289 8.006 6.289 4.572 3.27 5.654 11.064 1.501 15.53a7.146 7.146 0 0 0-.67.598c-.411.397-.922.968-1.4 1.181-1.635 1.378-3.52 1.703-5.473 2.408zm8.445-9.678a6.516 6.516 0 0 1 0-.008l.003-.013-.003.021zm-6.78 7.326l.01-.004c-.002 0-.003.002-.005.003l-.004.001zm0 0a.023.023 0 0 1-.008.002l.009-.002z" fill="#000"/><path d="M23.058 23.844c.215-.494.688-1.285.86-.494.171.79.071 3.459 0 4.694-.072 2.882.046 8.647-.43 8.647s0-5.93-.215-6.424c-.215-.494-.332-6.176-.215-6.423z" fill="#000" stroke="#000" stroke-width="1.483"/><path d="M20.282 14.15c.005 0 .005-.004.01-.004l-.01.004z" fill="#000"/><path d="M22.994 4.186c-2.219 1.839-5.265 1.808-6.777 1.342-1.511-.466-3.64.035-3.856.138l.03-.011c-1.765.552-1.86 2.35-1.75 3.377.246 2.066 1.72 3.707 3.178 4.658l-.005-.004c3.274 2.181 6.636 4.505 7.72 3.89 4.125.987 12.744-15.498 1.46-13.39zm3.805 4.018c-.489 4.649-2.93 7.628-2.93 7.628l-3.415.575s-3.3-2.027-5.697-2.98c-2.396-.951-4.191-5.307-1.268-6.764.927-.464 5.175-.312 5.175-.312 2.441.312 5.876-1.634 7.325-1.365 1.198.218.81 1.677.81 3.218zM27.742 13.91c.004.001.005-.002.009-.002l-.01.003z" fill="#000"/><path d="M29.526 5.418c-2.459.943-1.643 2.042-1.643 2.042l-3.018 8.173c2.272 2.162.418 1.75 1.382 1.304 3.14 1.192 12.63-12.436 3.28-11.52zm2.407 3.8c-1.124 4-3.546 6.392-3.546 6.392l-2.819.223s1.062.822-.703-.2l3.018-8.173c-.596 1.614 2.795-1.455 3.91-1.104.924.287.383 1.523.14 2.862zM24.539 20.607c.043-.742.093-1.418.054-2.19-.276-1.168-.399-.966-.717-1.381.028-.282.636-.167.637-.164 0 0 .878.282.84 3.226l.002-.002c0 .045-.003.038 0 .045v-.045c-.001.002.026.618-.19.798-.226.163-.613-.018-.626-.287z" fill="#000"/><path d="M28.038 20.364c-.369.045-.359-.455-.455-.71-.279-.876-.746-1.858-1.504-2.369-.296-.835 1.074.349 1.213.561.393.383 1.383 2.19.746 2.518zM21.061 21.106c.57-.165.3-.557.312-.811-.034-.847.158-1.88 1.02-2.698.013-.824-1.414.861-1.511 1.106-.387.517-.933 2.489.18 2.403zM17.94 20.745c.676.17.847-1.469 1.361-1.898-.001.003-.005.005-.006.008l.028-.042c-.004.009-.009.013-.013.021.173-.239.353-.474.548-.693-.008.01-.018.019-.026.03.209-.224.413-.462.664-.628 0 0 0 .003-.003.002.142-.12.363-.177.44-.364.063-.193-.15-.355-.309-.229-.385.307-.84.5-1.222.819-.59.473-2.11 2.333-1.463 2.974z" fill="#000"/><path d="M31.267 17.849c-.58 1.154-2.003.313-2.92.183-3.062-.603-6.792-.823-9.72.572-2.975-.486 3.071-2.586 3.951-2.648 1.858-.532 8.966-.508 8.69 1.893z" fill="#000"/><path d="M15.17 18.66c.978 1.209 2.134.074 3.019-.197 2.894-1.097 6.594-1.856 10.03-.703 2.846-.953-3.984-2.463-4.896-2.411-2.06-.337-9.247.67-8.152 3.311z" fill="#000"/><path d="M15.707 9.432c.403-.051.383.447.483.699.288.867.78 1.836 1.597 2.33.307.825-1.166-.327-1.313-.536-.422-.374-1.468-2.153-.767-2.493zM23.662 6.905c-.634.362-.18.784-.113 1.109.317 1.06.42 2.419-.355 3.684.253 1.044 1.428-1.47 1.466-1.805.3-.758.317-3.397-.998-2.988z" fill="#000" stroke="#000" stroke-width="1.483"/><path fill-rule="evenodd" clip-rule="evenodd" d="M20.471 27.345c0-.065.028-.3.126-.614.096-.306.246-.65.463-.946.2-.273.45-.494.757-.621.547-.125 1.087-.104 1.48.024.747.242 1.15.424 1.398.57.053.032.1.062.142.092.484.497.75.88.75 1.373-.039.251.114.373.26.013.76-1.86-.358-2.485-1.614-3.059-.78-.25-2.1-.184-2.674.02l-.039.014c-.238.06-.475.14-.704.242-.95.424-1.799 1.245-2.069 2.543-.142.686-.071 1.269.226 1.743.29.462.748.744 1.223.935.476.19 1.023.309 1.55.41.148.028.294.055.438.08l.048.01c.331.09.7.165 1.11.225 1.621.237 2.203.818 2.426 1.276.24.492.156 1.007.104 1.326l-.001.008c-.062.38-.337.93-.781 1.344-.433.403-.974.63-1.578.506-.142-.09-.39-.21-.59-.325-1.515-.88-1.93-2.043-2.136-2.617-.133-.372-.393-.355-.59 0-.478.686.068 1.781.706 2.408.282.373.544.658.831.877.465.354 1.003.57 1.629.698-.035-.007-.04-.008 0 0-.036-.007 1.24.205 1.95.09a2.51 2.51 0 0 0 1.178-.51c.37-.294.675-.714.893-1.278.34-.884.38-1.657.173-2.32-.207-.66-.64-1.15-1.136-1.506-.95-.68-2.209-.923-2.935-.965-.337-.08-.692-.147-1.037-.21-.915-.254-1.39-.6-1.64-.895a1.385 1.385 0 0 1-.337-.96z" fill="#000"/><path d="M6.702 24.776c.22-2.454 3.143-4.951 4.73-4.963 1.586-.013 1.03.427.266.707-.764.28-3.752 1.664-3.985 4.637-.234 2.974-1.231 2.073-1.01-.38zM40.702 24.836c1.627 1.135 2.194 4.236 1.562 5.385-.632 1.149-.714.573-.602-.09.113-.662.351-3.366-1.634-4.718-1.986-1.352-.953-1.712.674-.577z" fill="#000"/></svg>