<svg width="48" height="48" viewBox="0 0 48 48" fill="none" xmlns="http://www.w3.org/2000/svg"><path d="M26.054 33.562c-.114 1.364-2.104 1.388-2.25.026-.126-1.16-1.714-1.393-2.167-.317-.53 1.263-2.43.67-2.149-.67.24-1.143-1.199-1.855-1.962-.971-.895 1.036-2.518-.114-1.836-1.302.58-1.013-.568-2.135-1.567-1.53-1.171.71-2.36-.886-1.344-1.805.866-.784.12-2.206-1.017-1.94-1.334.313-1.97-1.571-.72-2.132 1.065-.477.795-2.06-.368-2.158-1.365-.115-1.389-2.104-.027-2.25 1.161-.126 1.394-1.715.317-2.167-1.262-.531-.67-2.43.67-2.149 1.143.24 1.855-1.2.972-1.962-1.037-.895.113-2.518 1.301-1.837 1.013.581 2.135-.567 1.53-1.566-.71-1.172.886-2.36 1.805-1.344.784.865 2.206.12 1.94-1.017-.313-1.334 1.571-1.97 2.132-.72.478 1.065 2.06.795 2.158-.369.115-1.365 2.104-1.388 2.25-.026.126 1.16 1.715 1.393 2.167.317.531-1.263 2.43-.67 2.149.67-.24 1.143 1.2 1.855 1.962.971.896-1.037 2.519.114 1.837 1.302-.581 1.013.567 2.135 1.566 1.53 1.172-.71 2.36.886 1.345 1.805-.866.784-.12 2.206 1.016 1.94 1.334-.313 1.97 1.571.721 2.132-1.065.477-.796 2.06.368 2.158 1.365.115 1.388 2.104.026 2.25-1.16.126-1.393 1.714-.317 2.167 1.263.53.67 2.43-.67 2.149-1.143-.24-1.855 1.199-.971 1.962 1.037.895-.114 2.518-1.302 1.837-1.013-.582-2.134.567-1.53 1.566.71 1.172-.886 2.36-1.805 1.344-.784-.866-2.205-.12-1.939 1.017.313 1.334-1.572 1.97-2.132.72-.478-1.065-2.06-.795-2.159.369z" fill="#C5D362"/><path d="M17.564 19.566a7.233 7.233 0 0 1 7.232-7.233c3.995 0 7.434 3.239 7.434 7.233 0 3.995-3.439 7.434-7.434 7.434-3.994 0-7.232-3.44-7.232-7.434z" fill="#fff"/><mask id="a" fill="#fff"><path d="M30.885 23.641c.666.665 2-3.99.965-6.437-2.124-5.027-5.79-5.078-8.206-4.762-2.417.316-6.08 2.413-6.08 7.343 0 6.35 6.81 8.465 10.489 6.516 2.32-1.228-.582-.611-.833-.498-1.598.72-10.162.332-8.682-6.956.944-4.651 6.314-4.975 8.886-4.264 3.462.956 4.46 5.733 3.461 9.058z"/></mask><path d="M30.885 23.641c.666.665 2-3.99.965-6.437-2.124-5.027-5.79-5.078-8.206-4.762-2.417.316-6.08 2.413-6.08 7.343 0 6.35 6.81 8.465 10.489 6.516 2.32-1.228-.582-.611-.833-.498-1.598.72-10.162.332-8.682-6.956.944-4.651 6.314-4.975 8.886-4.264 3.462.956 4.46 5.733 3.461 9.058z" fill="#000"/><path d="M30.885 23.641l-.768-.23a.802.802 0 0 0 .201.798l.567-.568zm.965-6.437l.74-.312-.74.312zm-3.797 9.097l.375.71-.375-.71zm-.833-.498l.33.731-.33-.731zm-8.682-6.956l.786.16-.786-.16zm8.886-4.264l-.213.773.213-.773zm2.894 9.626a.998.998 0 0 0 .667.298c.274.011.492-.094.634-.193.26-.181.436-.46.552-.677.252-.475.468-1.153.62-1.884.298-1.441.41-3.412-.202-4.861l-1.478.625c.422.998.385 2.577.109 3.91-.136.655-.313 1.17-.466 1.457-.087.163-.116.158-.052.114a.573.573 0 0 1 .347-.094c.196.008.334.1.403.17l-1.134 1.135zm2.271-7.317c-1.132-2.68-2.722-4.123-4.43-4.816-1.678-.68-3.365-.593-4.619-.43l.208 1.592c1.162-.152 2.516-.198 3.807.325 1.26.51 2.565 1.607 3.556 3.954l1.478-.625zm-9.049-5.245c-2.697.352-6.779 2.695-6.779 8.138h1.605c0-4.418 3.246-6.268 5.382-6.547l-.208-1.591zm-6.779 8.138c0 3.512 1.905 5.889 4.31 7.088 2.357 1.177 5.256 1.25 7.357.137l-.75-1.418c-1.578.836-3.925.827-5.891-.155-1.921-.958-3.421-2.814-3.421-5.652H16.76zM28.43 27.01c.303-.16.545-.304.728-.432.09-.065.181-.135.26-.213.072-.069.18-.186.253-.35a.876.876 0 0 0-.525-1.197 1.58 1.58 0 0 0-.57-.071c-.301.01-.668.07-.951.127-.147.03-.286.06-.4.09-.087.022-.228.06-.333.107l.658 1.463c-.034.016-.05.02-.02.01l.093-.026c.083-.02.195-.047.318-.071.26-.052.52-.091.686-.096a.627.627 0 0 1 .064 0c.012.001-.024 0-.085-.022a.73.73 0 0 1-.402-.966c.027-.059.055-.098.07-.118.016-.02.027-.031.028-.032l-.016.014a5.363 5.363 0 0 1-.607.366l.75 1.417zm-1.538-1.939c-.09.04-.304.101-.655.141a7.632 7.632 0 0 1-1.216.031c-.932-.045-2.01-.24-2.981-.653-.971-.414-1.795-1.027-2.303-1.888-.501-.85-.75-2.03-.412-3.696l-1.573-.319c-.401 1.98-.135 3.58.603 4.83.731 1.239 1.871 2.044 3.056 2.549 1.184.504 2.455.727 3.532.78.54.026 1.044.01 1.477-.04.418-.048.82-.132 1.13-.272l-.658-1.463zm-7.567-6.065c.4-1.974 1.715-3.03 3.292-3.538 1.616-.52 3.44-.43 4.595-.112l.427-1.546c-1.418-.392-3.564-.497-5.513.13-1.987.64-3.83 2.07-4.373 4.747l1.572.32zm7.887-3.65c1.384.383 2.347 1.543 2.853 3.114.507 1.572.506 3.431.053 4.94l1.537.462c.545-1.816.545-4.008-.063-5.894-.609-1.889-1.876-3.595-3.953-4.168l-.427 1.546z" fill="#000" mask="url(#a)"/><mask id="b" fill="#fff"><path fill-rule="evenodd" clip-rule="evenodd" d="M29.97 33.328c-.694-1.826 1.386-3.676 3.93-2.057-.694-1.619-.694-4.393 3.005-3.006-1.948-.893-1.156-5.086 2.08-4.162-1.618-.462-2.856-3.93.663-4.623-1.356-.232-4.13-1.85-.662-4.393-1.619.462-4.453-1.618-2.081-4.162-2.08 1.388-3.93-.23-3.468-2.774-2.08 1.879-3.234-1.104-3.93-2.312-1.188 1.85-3.417 2.594-4.393-.462-.925 2.543-3.468 1.85-4.162.23.463 3.006-2.774 3.238-4.161 1.623.694 3.695-2.104 3.175-3.468 3.464 1.618 3.006-.881 3.234-2.089 3.93 2.552 2.544-.157 3.589-1.09 4.624 3.519 2.081 1.203 3.582.636 4.855 3.93 0 2.69 3.007 2.543 4.393 4.253-1.52 3.179 2.105 3.468 3.468 3.7-2.312 3.93.462 3.93 1.85 2.544-2.543 4.162-.925 4.855.462.232-2.543 3.237-3.005 4.393-.948zm-6.268 1.091c.329 1.22 2.059 1.22 2.388 0 .278-1.032 1.646-1.248 2.23-.353.689 1.058 2.334.523 2.27-.738-.054-1.067 1.18-1.696 2.011-1.025.983.793 2.382-.223 1.932-1.403-.381-.998.598-1.977 1.596-1.596 1.18.45 2.196-.95 1.403-1.932-.67-.832-.042-2.065 1.025-2.011 1.261.064 1.796-1.581.738-2.271-.895-.584-.678-1.951.353-2.23 1.22-.328 1.22-2.058 0-2.387-1.032-.278-1.248-1.646-.353-2.23 1.058-.69.523-2.334-.738-2.27-1.067.054-1.696-1.18-1.025-2.012.793-.982-.223-2.382-1.403-1.931-.998.38-1.977-.598-1.596-1.597.45-1.18-.949-2.196-1.932-1.403-.831.671-2.065.042-2.011-1.025.064-1.26-1.581-1.795-2.27-.738-.584.896-1.952.679-2.23-.353-.33-1.219-2.059-1.219-2.388 0-.278 1.032-1.646 1.249-2.23.353-.69-1.057-2.334-.523-2.27.738.054 1.067-1.18 1.696-2.012 1.025-.982-.793-2.382.224-1.931 1.403.381.999-.598 1.978-1.596 1.597-1.18-.45-2.197.949-1.404 1.931.671.832.043 2.066-1.025 2.012-1.26-.064-1.795 1.58-.737 2.27.895.584.678 1.952-.354 2.23-1.219.329-1.219 2.059 0 2.387 1.032.279 1.249 1.646.354 2.23-1.058.69-.524 2.335.737 2.27 1.068-.053 1.696 1.18 1.025 2.012-.793.983.224 2.382 1.404 1.932.998-.381 1.977.598 1.596 1.596-.45 1.18.949 2.196 1.931 1.403.832-.67 2.066-.042 2.012 1.025-.064 1.261 1.58 1.796 2.27.738.584-.895 1.952-.679 2.23.353z"/></mask><path fill-rule="evenodd" clip-rule="evenodd" d="M29.97 33.328c-.694-1.826 1.386-3.676 3.93-2.057-.694-1.619-.694-4.393 3.005-3.006-1.948-.893-1.156-5.086 2.08-4.162-1.618-.462-2.856-3.93.663-4.623-1.356-.232-4.13-1.85-.662-4.393-1.619.462-4.453-1.618-2.081-4.162-2.08 1.388-3.93-.23-3.468-2.774-2.08 1.879-3.234-1.104-3.93-2.312-1.188 1.85-3.417 2.594-4.393-.462-.925 2.543-3.468 1.85-4.162.23.463 3.006-2.774 3.238-4.161 1.623.694 3.695-2.104 3.175-3.468 3.464 1.618 3.006-.881 3.234-2.089 3.93 2.552 2.544-.157 3.589-1.09 4.624 3.519 2.081 1.203 3.582.636 4.855 3.93 0 2.69 3.007 2.543 4.393 4.253-1.52 3.179 2.105 3.468 3.468 3.7-2.312 3.93.462 3.93 1.85 2.544-2.543 4.162-.925 4.855.462.232-2.543 3.237-3.005 4.393-.948zm-6.268 1.091c.329 1.22 2.059 1.22 2.388 0 .278-1.032 1.646-1.248 2.23-.353.689 1.058 2.334.523 2.27-.738-.054-1.067 1.18-1.696 2.011-1.025.983.793 2.382-.223 1.932-1.403-.381-.998.598-1.977 1.596-1.596 1.18.45 2.196-.95 1.403-1.932-.67-.832-.042-2.065 1.025-2.011 1.261.064 1.796-1.581.738-2.271-.895-.584-.678-1.951.353-2.23 1.22-.328 1.22-2.058 0-2.387-1.032-.278-1.248-1.646-.353-2.23 1.058-.69.523-2.334-.738-2.27-1.067.054-1.696-1.18-1.025-2.012.793-.982-.223-2.382-1.403-1.931-.998.38-1.977-.598-1.596-1.597.45-1.18-.949-2.196-1.932-1.403-.831.671-2.065.042-2.011-1.025.064-1.26-1.581-1.795-2.27-.738-.584.896-1.952.679-2.23-.353-.33-1.219-2.059-1.219-2.388 0-.278 1.032-1.646 1.249-2.23.353-.69-1.057-2.334-.523-2.27.738.054 1.067-1.18 1.696-2.012 1.025-.982-.793-2.382.224-1.931 1.403.381.999-.598 1.978-1.596 1.597-1.18-.45-2.197.949-1.404 1.931.671.832.043 2.066-1.025 2.012-1.26-.064-1.795 1.58-.737 2.27.895.584.678 1.952-.354 2.23-1.219.329-1.219 2.059 0 2.387 1.032.279 1.249 1.646.354 2.23-1.058.69-.524 2.335.737 2.27 1.068-.053 1.696 1.18 1.025 2.012-.793.983.224 2.382 1.404 1.932.998-.381 1.977.598 1.596 1.596-.45 1.18.949 2.196 1.931 1.403.832-.67 2.066-.042 2.012 1.025-.064 1.261 1.58 1.796 2.27.738.584-.895 1.952-.679 2.23.353z" fill="#000"/><path d="M33.9 31.27l-5.37 8.437 27.314 17.381L43.09 27.331l-9.192 3.94zm-3.93 2.058l-8.72 4.898 18.068-8.448-9.349 3.55zm6.935-5.063l-3.511 9.363 7.679-18.453-4.168 9.09zm2.743-8.785l1.934 9.81-.253-19.668-1.68 9.858zm-.662-4.393l5.913 8.064-8.66-17.68 2.747 9.616zm-2.081-4.162l7.313 6.821-12.86-15.141 5.547 8.32zm-3.468-2.774l9.839 1.789 5.252-28.886L26.736.729l6.701 7.422zm-3.93-2.312L38.169.842l-8.206-14.223L21.092.436l8.415 5.403zm-4.393-.462l9.527-3.04-8.91-27.918L15.716 1.96l9.398 3.418zm-4.162.23l9.192-3.938-19.075 5.46 9.883-1.521zM16.791 7.23L24.376.714.086-27.561 6.964 9.075 16.79 7.23zm-3.468 3.464L11.247.912-1.81 3.682l6.328 11.753 8.805-4.74zm-2.089 3.93L6.237 5.963l-11.31 6.525 9.247 9.218 7.06-7.082zm-1.09 4.624l-7.43-6.693-8.181 9.08 10.52 6.221 5.09-8.608zm.636 4.855l-9.134-4.07-6.27 14.07H10.78v-10zm2.543 4.393l-9.945-1.048L1.71 43.265l14.978-5.352-3.365-9.417zm3.468 3.468L7.009 34.04l2.966 13.977 12.116-7.573-5.3-8.48zm3.93 1.85h-10v24.142l17.071-17.071-7.07-7.071zm4.855.462l-8.944 4.472 15.72 31.441 3.183-35.008-9.959-.905zm.514.143l-9.655-2.605 9.655 2.605zm-2.388 0l9.655-2.605-9.655 2.605zm4.617-.353l8.377-5.461-8.377 5.46zm2.27-.738l-9.986.506 9.987-.506zm2.012-1.025l6.28-7.782-6.28 7.782zm1.932-1.403l-9.342 3.567 9.342-3.567zm1.596-1.596l3.567-9.342-3.567 9.342zm1.403-1.932l7.783-6.28-7.783 6.28zm1.025-2.011l.506-9.988-.506 9.988zm.738-2.271l-5.461 8.377 5.461-8.377zm.353-2.23l-2.605-9.654 2.605 9.654zm0-2.387l-2.605 9.655 2.605-9.655zm-.353-2.23l-5.461-8.377 5.461 8.377zm-.738-2.27l-.505-9.988.505 9.988zm-1.025-2.012l-7.782-6.28 7.782 6.28zM36.13 10.03l3.567 9.342-3.567-9.342zm-1.596-1.597l9.342 3.568-9.342-3.568zM32.6 7.03l6.28 7.783L32.6 7.03zM30.59 6.005L20.603 5.5l9.987.505zm-2.27-.738l8.376 5.462-8.377-5.462zm-2.23-.353l9.654-2.605-9.654 2.605zm-2.388 0L14.047 2.31l9.655 2.605zm-2.23.353l-8.377 5.462 8.377-5.462zm-2.27.738l-9.987.506 9.987-.506zM17.19 7.03l-6.279 7.783 6.28-7.783zM15.26 8.433l-9.342 3.568 9.342-3.568zm-1.596 1.597L17.23.688l-3.567 9.342zm-1.404 1.931l7.783-6.28-7.783 6.28zm-1.025 2.012l.506-9.988-.506 9.988zm-.737 2.27l5.46-8.377-5.46 8.377zm-.354 2.23L7.538 8.818l2.605 9.655zm0 2.387l-2.605 9.655 2.605-9.655zm.354 2.23l5.46 8.377-5.46-8.377zm.737 2.27l-.505-9.986.505 9.987zm1.025 2.012l7.783 6.28-7.783-6.28zm1.404 1.932l3.567 9.342-3.567-9.342zm1.596 1.596l9.342 3.567-9.342-3.567zm1.931 1.403l6.28 7.783-6.28-7.783zm2.012 1.025l-9.987-.506 9.987.506zm2.27.738l8.377 5.461-8.377-5.461zm17.796-11.232c-3.852-2.451-9.297-3.266-13.997-.211-4.538 2.95-6.735 8.766-4.65 14.255l18.697-7.1c1.39 3.663-.113 7.642-3.148 9.614-3.197 2.078-6.33 1.148-7.64.315l10.738-16.873zm1.148-3.932c-1.748-.656-4.39-1.358-7.385-.827-3.545.63-6.516 2.814-8.148 5.952-1.38 2.653-1.42 5.22-1.29 6.746.14 1.646.569 3.163 1.115 4.437l18.383-7.879c.2.465.368 1.028.43 1.742.05.594.11 2.251-.894 4.181-1.256 2.416-3.577 4.066-6.104 4.514a7.247 7.247 0 0 1-2.344.047 4.077 4.077 0 0 1-.785-.187l7.022-18.726zm1.317-4.414c-2.937-.839-6.392-.755-9.566 1.007-3.027 1.681-4.788 4.33-5.623 6.756-1.3 3.784-1.245 11.694 6.193 15.104l8.336-18.18a8.222 8.222 0 0 1 4.47 5.098 7.32 7.32 0 0 1-.085 4.48 7.745 7.745 0 0 1-3.582 4.228c-2.176 1.208-4.318 1.115-5.637.738l5.494-19.23zm-4.018-4.82c-2.522.497-5.42 1.75-7.607 4.41-2.221 2.702-2.881 5.855-2.692 8.51a12.79 12.79 0 0 0 2.38 6.538c1.208 1.678 3.304 3.696 6.443 4.593l5.494-19.23c2.329.665 3.663 2.076 4.294 2.952a7.213 7.213 0 0 1 1.338 3.727 7.992 7.992 0 0 1-1.809 5.613c-1.48 1.8-3.212 2.36-3.974 2.51L37.715 9.668zm-4.643-2.645c-1.614 1.184-3.73 3.115-4.914 6.058a11.467 11.467 0 0 0 .669 10.033c1.424 2.491 3.44 3.912 4.74 4.647a13.753 13.753 0 0 0 4.4 1.576L41.33 9.622a6.26 6.26 0 0 1 2.073.724c.507.286 1.792 1.1 2.787 2.84 1.245 2.178 1.502 4.928.524 7.36a7.155 7.155 0 0 1-1.241 2.055c-.328.372-.564.544-.573.55L33.072 7.023zm-3.48-2.919c-1.725 1.85-3.3 4.493-3.56 7.832-.265 3.393.926 6.308 2.56 8.384 1.56 1.98 3.571 3.3 5.565 4.041 1.924.716 4.635 1.181 7.576.341l-5.494-19.23c2.131-.61 3.881-.231 4.893.145a7.244 7.244 0 0 1 3.174 2.33 7.99 7.99 0 0 1 1.666 5.544c-.176 2.248-1.215 3.678-1.754 4.255L29.592 4.104zm-5.994 2.258c-.676 3.722.022 8.867 4.25 12.36 4.794 3.96 10.74 3.1 14.604.524L31.358 2.605c.786-.524 2.15-1.155 3.984-1.17a8.164 8.164 0 0 1 5.244 1.867c2.899 2.395 2.904 5.459 2.69 6.638L23.598 6.362zm-2.753 4.474c-.026-.045-.029-.052.104.2.098.183.274.517.477.876.359.63 1.121 1.924 2.313 3.166 1.165 1.213 3.65 3.32 7.472 3.64 4.052.338 7.124-1.516 8.927-3.145L26.736.73c.763-.69 2.91-2.212 6.139-1.942 2.999.25 4.763 1.889 5.292 2.44.556.58.77 1.018.65.809-.034-.061-.078-.144-.186-.347-.071-.135-.262-.5-.462-.847l-17.324 9.994zm-5.257-2.419c.582 1.826 1.662 4.103 3.736 5.986 2.264 2.056 5.224 3.168 8.333 3.036 5.474-.234 8.835-3.97 10.265-6.197L21.092.436a5.825 5.825 0 0 1 1.515-1.57c.738-.532 2.164-1.322 4.198-1.41a8.383 8.383 0 0 1 5.961 2.138c1.345 1.22 1.78 2.445 1.875 2.742L15.588 8.417zm-3.827 1.13c1.777 4.146 5.797 7.158 10.498 7.482a11.873 11.873 0 0 0 7.673-2.142c2.36-1.663 3.793-3.929 4.58-6.093L15.716 1.96c.325-.892 1.093-2.291 2.694-3.42a8.128 8.128 0 0 1 5.225-1.462c3.024.208 5.426 2.065 6.509 4.592L11.761 9.547zm-2.555 4.2c3.117 3.628 8.13 5.272 12.79 4.105 2.592-.65 5.364-2.276 7.193-5.223C31 9.713 31.22 6.585 30.836 4.088L11.07 7.128c-.153-.993-.163-2.966 1.127-5.045a8.195 8.195 0 0 1 4.94-3.632c2.81-.704 5.51.248 7.24 2.263L9.206 13.746zm6.193 6.73c-.279.059-1.156.169.252.011.645-.072 2.476-.28 4.43-1.198 2.305-1.083 4.695-3.113 5.965-6.356 1.125-2.874.935-5.623.573-7.549L6.963 9.075c-.015-.078-.295-1.506.458-3.43a8.302 8.302 0 0 1 4.155-4.457c1.171-.55 2.09-.602 1.849-.575-.197.022-.029 0-.533.051-.268.027-.913.093-1.645.248L15.4 20.476zm.833 2.81c-.331.19-1.029.498.085.009.492-.216 2.164-.935 3.737-2.361 1.905-1.727 3.583-4.404 3.78-7.894.17-3.027-.854-5.504-1.706-7.088l-17.61 9.482c-.043-.08-.772-1.402-.653-3.519a8.534 8.534 0 0 1 2.758-5.8c1-.906 1.92-1.25 1.655-1.133l-.158.067c-.077.033-.227.096-.378.162-.279.121-.86.379-1.505.75l9.995 17.324zm1.34 2.655c-.432.48-1.083.99-.162.235.385-.316 1.762-1.421 2.892-3.107 1.343-2.004 2.485-5.046 1.791-8.674-.614-3.216-2.421-5.48-3.799-6.854L4.175 21.706c-.101-.1-1.29-1.28-1.725-3.554a8.417 8.417 0 0 1 1.24-6.218c.655-.978 1.34-1.469 1.034-1.218l-.196.16c-.089.07-.232.186-.385.314-.269.226-.838.71-1.428 1.365l14.859 13.387zm2.342 2.232c-.347.778-.956 1.607-.255.586.268-.39 1.417-2.006 2.004-4.228.73-2.766.495-5.98-1.256-8.93-1.48-2.495-3.596-4.028-5.174-4.962L5.053 27.857c.182.108-.903-.458-1.845-2.047a8.32 8.32 0 0 1-1.091-3.219 8.39 8.39 0 0 1 .209-3.165c.377-1.427 1.06-2.298.845-1.985l-.14.2c-.067.097-.181.261-.305.447-.22.332-.674 1.034-1.08 1.946l18.268 8.14zm3.354 1.37c-.03.279-.067.449-.022.206.022-.115.105-.543.171-.961.12-.756.389-2.6.012-4.742-.435-2.473-1.775-5.503-4.843-7.647-2.75-1.924-5.72-2.296-7.806-2.296v20c-.121 0-1.771.003-3.654-1.314a8.262 8.262 0 0 1-3.394-5.277c-.215-1.218-.038-2.05-.069-1.852-.01.059-.016.093-.075.407-.035.188-.144.755-.21 1.38l19.89 2.097zm3.305.344c.197.926.17 2.016.151.618-.006-.465.004-2.45-.706-4.555-.891-2.64-3.144-6.037-7.582-7.34-3.534-1.038-6.711-.163-8.478.468l6.73 18.834c.36-.128-1.357.63-3.887-.113a8.721 8.721 0 0 1-3.933-2.447 8.414 8.414 0 0 1-1.8-3.006c-.41-1.218-.35-2.137-.342-1.587l.002.316c.001.135.003.347.01.578.01.363.041 1.304.27 2.386l19.565-4.152zm4.148 3.926c0-.551-.014-1.721-.269-3.063-.226-1.19-.844-3.681-2.876-5.939-2.487-2.764-5.983-3.971-9.408-3.697-2.837.227-5.145 1.412-6.677 2.37l10.6 16.96c.317-.2-.574.466-2.328.606-2.341.187-5.085-.674-7.053-2.86-1.512-1.68-1.84-3.361-1.907-3.713-.096-.504-.082-.807-.082-.664h20zm3.8-4.01c-.774-1.548-2.97-5.259-7.618-6.753-5.781-1.858-10.564 1.003-13.253 3.692l14.142 14.142c-.063.063-.708.702-1.998 1.16-1.454.514-3.24.616-5.012.046-1.617-.52-2.649-1.41-3.181-1.976a5.727 5.727 0 0 1-.969-1.367l17.889-8.944zm4.166-1.374c-2.713-4.83-8.048-7.146-13.134-6.176-5.359 1.021-9.42 5.454-9.936 11.117l19.918 1.81c-.283 3.12-2.727 6.05-6.236 6.719-3.236.617-6.49-.902-8.048-3.674l17.436-9.796zm-22.252 3.384c2.332-8.64 14.59-8.64 16.922 0l-19.31 5.21c2.99 11.079 18.708 11.079 21.697 0l-19.309-5.21zm20.261-3.21c-5.303-8.134-17.731-6.165-20.261 3.21l19.31 5.21c-1.974 7.312-11.667 8.847-15.803 2.503l16.754-10.922zm-16.093 5.23c-.453-8.938 11.206-12.727 16.093-5.23L19.942 39.528c6.267 9.613 21.215 4.756 20.635-6.705l-19.974 1.012zM38.88 24.52c-7.558-6.098-18.77-.385-18.278 9.313l19.974-1.012c.383 7.564-8.361 12.02-14.255 7.264L38.88 24.52zm-13.69 9.946c-3.193-8.36 6.725-15.566 13.69-9.946L26.32 40.086c8.931 7.206 21.647-2.033 17.554-12.753l-18.684 7.134zm14.505-14.505c-9.072-3.464-17.97 5.433-14.505 14.505l18.684-7.134c2.702 7.075-4.238 14.014-11.313 11.313l7.134-18.684zm-9.946 13.69c-5.62-6.966 1.585-16.883 9.946-13.69l-7.134 18.684c10.72 4.093 19.959-8.623 12.753-17.553L29.75 33.65zm9.313-18.279c-9.698-.49-15.41 10.721-9.313 18.279l15.565-12.56c4.756 5.895.3 14.639-7.263 14.256l1.01-19.974zm-5.23 16.094c-7.496-4.887-3.708-16.546 5.23-16.093l-1.011 19.974c11.46.58 16.317-14.368 6.704-20.635L33.834 31.467zm3.21-20.261c-9.375 2.53-11.344 14.958-3.21 20.261l10.923-16.754c6.345 4.136 4.81 13.829-2.502 15.802l-5.211-19.31zm0 16.922c-8.64-2.332-8.64-14.59 0-16.922l5.21 19.31c11.08-2.99 11.08-18.708 0-21.698l-5.21 19.31zm-3.21-20.262c-8.134 5.303-6.165 17.732 3.21 20.262l5.21-19.31c7.312 1.973 8.848 11.666 2.503 15.802L33.834 7.866zm5.23 16.094c-8.938.452-12.726-11.206-5.23-16.094L44.757 24.62c9.613-6.267 4.756-21.215-6.704-20.635l1.01 19.975zM29.75 5.682c-6.098 7.557-.385 18.769 9.313 18.278L38.052 3.985c7.563-.383 12.019 8.362 7.263 14.256L29.75 5.68zm9.946 13.69c-8.36 3.192-15.566-6.725-9.946-13.69L45.315 18.24C52.521 9.31 43.282-3.406 32.562.688l7.134 18.684zM25.191 4.866c-3.464 9.072 5.434 17.97 14.505 14.506L32.562.688C39.637-2.014 46.577 4.925 43.875 12L25.191 4.866zm13.69 9.947c-6.965 5.62-16.883-1.586-13.69-9.947l18.684 7.135C47.968 1.28 35.252-7.96 26.322-.752L38.88 14.813zM20.603 5.5c-.491 9.698 10.72 15.41 18.278 9.313L26.32-.753c5.895-4.755 14.64-.3 14.256 7.264L20.603 5.5zm16.093 5.229c-4.887 7.497-16.546 3.709-16.093-5.23l19.974 1.012C41.157-4.95 26.21-9.806 19.942-.194L36.696 10.73zm-20.261-3.21c2.53 9.376 14.958 11.344 20.261 3.21L19.942-.194c4.136-6.344 13.83-4.809 15.802 2.503l-19.309 5.21zm16.922 0c-2.332 8.641-14.59 8.641-16.922 0l19.31-5.21c-2.99-11.079-18.708-11.079-21.698 0l19.31 5.21zm-20.262 3.21c5.304 8.134 17.732 6.166 20.262-3.21l-19.31-5.21C16.02-5.003 25.713-6.538 29.85-.194L13.095 10.73zm16.094-5.23c.453 8.939-11.206 12.727-16.094 5.23L29.85-.194C23.582-9.806 8.633-4.949 9.214 6.511L29.189 5.5zm-18.278 9.314c7.557 6.097 18.769.385 18.278-9.313L9.215 6.51C8.832-1.052 17.575-5.507 23.47-.752L10.91 14.813zm13.69-9.947c3.192 8.361-6.725 15.567-13.69 9.947L23.47-.752C14.54-7.958 1.823 1.28 5.917 12L24.6 4.866zM10.096 19.372c9.071 3.464 17.969-5.434 14.505-14.506L5.917 12.001C3.215 4.925 10.155-2.014 17.23.688l-7.135 18.684zm9.946-13.69c5.62 6.965-1.586 16.882-9.947 13.69L17.23.688C6.51-3.406-2.73 9.31 4.477 18.24L20.042 5.68zM10.729 23.96c9.698.49 15.41-10.72 9.313-18.278L4.477 18.24c-4.756-5.894-.3-14.639 7.263-14.256L10.73 23.96zm5.229-16.094c7.497 4.888 3.709 16.546-5.23 16.094L11.74 3.985C.28 3.405-4.577 18.354 5.035 24.62L15.958 7.866zm-3.21 20.262c9.376-2.53 11.345-14.959 3.21-20.262L5.035 24.62C-1.309 20.484.226 10.791 7.538 8.818l5.21 19.31zm0-16.922c8.641 2.331 8.641 14.59 0 16.922l-5.21-19.31c-11.079 2.99-11.079 18.708 0 21.697l5.21-19.31zm3.21 20.261c8.134-5.303 6.166-17.731-3.21-20.261l-5.21 19.31C.226 28.541-1.309 18.848 5.035 14.712l10.923 16.754zm-5.23-16.093c8.939-.453 12.727 11.205 5.23 16.093L5.035 14.713C-4.577 20.98.28 35.928 11.74 35.348L10.73 15.374zm9.314 18.277c6.098-7.557.385-18.769-9.313-18.278l1.011 19.975c-7.564.383-12.019-8.361-7.263-14.255L20.042 33.65zm-9.947-13.69c8.361-3.192 15.567 6.725 9.947 13.69L4.477 21.093C-2.73 30.023 6.51 42.739 17.23 38.646l-7.135-18.684zm14.506 14.506c3.464-9.072-5.434-17.97-14.505-14.505l7.134 18.684c-7.075 2.701-14.015-4.238-11.313-11.313L24.6 34.467zm-13.69-9.946c6.965-5.62 16.882 1.585 13.69 9.946L5.917 27.333C1.823 38.053 14.539 47.29 23.47 40.086L10.91 24.52zm18.278 9.313c.491-9.698-10.72-15.411-18.278-9.313L23.47 40.086c-5.894 4.756-14.638.3-14.255-7.264l19.974 1.012zm-16.094-5.23c4.888-7.496 16.547-3.708 16.094 5.23L9.215 32.822c-.58 11.46 14.368 16.318 20.634 6.705L13.095 28.605zm20.262 3.21c-2.53-9.375-14.958-11.344-20.262-3.21L29.85 39.528c-4.137 6.344-13.83 4.81-15.803-2.503l19.31-5.21z" fill="#000" mask="url(#b)"/><path d="M37.792 7c1.696.157 3.076 2.492 2.721 3.23-.354.738-.568.408-.68-.072-.111-.479-.214-1.81-1.897-2.334-1.682-.524-1.839-.98-.144-.824z" fill="#000"/><path d="M38.481 5.1c1.931.452 3.605 3.12 3.443 4.42-.161 1.301-.451.797-.592.14-.14-.655-.92-3.254-3.263-3.774s-1.518-1.237.412-.785z" fill="#000"/><path d="M8.596 37.804c0-1.18.957-2.137 2.137-2.137 1.18 0 2.197.956 2.197 2.137 0 1.18-1.016 2.196-2.197 2.196-1.18 0-2.137-1.016-2.137-2.196z" fill="#C5D362"/><mask id="c" fill="#fff"><path d="M14.047 39.293c.273.272.818-1.633.395-2.634-.869-2.056-2.368-2.077-3.357-1.948-.989.13-2.487.987-2.487 3.004 0 2.598 2.786 3.463 4.29 2.666.95-.503-.238-.25-.34-.204-.654.294-4.157.136-3.552-2.846.387-1.902 2.583-2.035 3.636-1.744 1.416.391 1.824 2.345 1.415 3.706z"/></mask><path d="M14.047 39.293c.273.272.818-1.633.395-2.634-.869-2.056-2.368-2.077-3.357-1.948-.989.13-2.487.987-2.487 3.004 0 2.598 2.786 3.463 4.29 2.666.95-.503-.238-.25-.34-.204-.654.294-4.157.136-3.552-2.846.387-1.902 2.583-2.035 3.636-1.744 1.416.391 1.824 2.345 1.415 3.706z" fill="#000"/><path d="M14.047 39.293l-.31-.094a.324.324 0 0 0 .081.323l.23-.23zm.395-2.634l.299-.126-.299.126zm-1.553 3.722l.152.286-.152-.286zm-.341-.204l.133.295-.133-.295zM8.996 37.33l.318.065-.318-.065zm3.636-1.744l-.087.313.087-.313zm1.186 3.935a.404.404 0 0 0 .527.043.776.776 0 0 0 .225-.276c.103-.194.191-.47.253-.77.122-.589.168-1.394-.082-1.986l-.598.252c.173.41.158 1.057.045 1.603a2.438 2.438 0 0 1-.19.596c-.036.067-.049.066-.023.048a.23.23 0 0 1 .14-.037c.078.003.134.04.162.068l-.459.46zm.923-2.989c-.463-1.096-1.113-1.685-1.81-1.968-.686-.278-1.375-.242-1.888-.175l.084.643c.476-.063 1.03-.081 1.56.133.516.21 1.05.659 1.457 1.62l.597-.253zm-3.698-2.144c-1.102.144-2.77 1.102-2.77 3.326h.649c0-1.81 1.33-2.568 2.205-2.682l-.084-.644zm-2.77 3.326c0 1.435.779 2.406 1.761 2.896.964.481 2.148.511 3.007.056l-.304-.573c-.647.343-1.608.339-2.413-.063-.787-.393-1.402-1.153-1.402-2.316h-.649zm4.768 2.952c.124-.065.223-.124.297-.176a.886.886 0 0 0 .106-.087.46.46 0 0 0 .103-.142.355.355 0 0 0-.213-.484.64.64 0 0 0-.232-.03 3.296 3.296 0 0 0-.552.089.907.907 0 0 0-.135.044l.266.591c-.014.007-.02.008-.008.004l.038-.01a2.77 2.77 0 0 1 .412-.069h.027c.005 0-.01 0-.034-.008a.294.294 0 0 1-.162-.39.232.232 0 0 1 .039-.06l-.007.005a2.227 2.227 0 0 1-.249.15l.304.573zm-.626-.786a1.025 1.025 0 0 1-.27.058 3.644 3.644 0 0 1-1.719-.255c-.397-.17-.734-.42-.943-.774-.205-.348-.307-.832-.169-1.514l-.636-.13c-.164.81-.055 1.463.246 1.974.299.506.765.835 1.249 1.04a4.293 4.293 0 0 0 2.047.303c.17-.02.335-.054.461-.11l-.266-.592zm-3.101-2.485c.164-.81.703-1.243 1.35-1.45a3.528 3.528 0 0 1 1.881-.046l.173-.626a4.173 4.173 0 0 0-2.253.054c-.812.261-1.565.845-1.787 1.939l.636.129zm3.231-1.496c.568.156.963.633 1.17 1.276.208.644.208 1.405.022 2.023l.621.187a4.193 4.193 0 0 0-.026-2.41c-.248-.771-.766-1.468-1.614-1.702l-.173.626z" fill="#000" mask="url(#c)"/><mask id="d" fill="#fff"><path fill-rule="evenodd" clip-rule="evenodd" d="M14.894 42.626c-.862-1.29.236-2.792 1.98-2.214-1.224-.406-1.74-2.916.446-3.1-1.137-.165-2.302-1.332-.784-2.612-1.12.838-2.773-.567-1.887-1.938-.58.899-2.925.65-3.03-.936-.235 1.631-2.1 1.862-2.939.742.595 1.652-1.052 2.68-2.124 2.026 1.957 1.448.556 3.079-.47 3.264 1.795.259 1.844 2.226.97 2.972 2.325-1.098 2.527 1.088 1.961 2.115 1.191-1.328 2.916-.58 2.925.513.482-2.188 2.043-1.378 2.952-.832zm-4.121.832a.896.896 0 0 0 1.647 0 .896.896 0 0 1 1.359-.364.896.896 0 0 0 1.426-.824.896.896 0 0 1 .995-.995.896.896 0 0 0 .823-1.426.896.896 0 0 1 .365-1.359.896.896 0 0 0 0-1.647.896.896 0 0 1-.365-1.359.896.896 0 0 0-.823-1.426.896.896 0 0 1-.995-.995.896.896 0 0 0-1.426-.824.896.896 0 0 1-1.36-.364.896.896 0 0 0-1.646 0 .896.896 0 0 1-1.36.364c-.63-.47-1.517.043-1.425.824a.896.896 0 0 1-.995.995.896.896 0 0 0-.824 1.426.896.896 0 0 1-.364 1.36.896.896 0 0 0 0 1.646c.532.229.71.895.364 1.36a.896.896 0 0 0 .824 1.425.896.896 0 0 1 .995.995c-.092.782.795 1.294 1.426.824a.896.896 0 0 1 1.359.364z"/></mask><path fill-rule="evenodd" clip-rule="evenodd" d="M14.894 42.626c-.862-1.29.236-2.792 1.98-2.214-1.224-.406-1.74-2.916.446-3.1-1.137-.165-2.302-1.332-.784-2.612-1.12.838-2.773-.567-1.887-1.938-.58.899-2.925.65-3.03-.936-.235 1.631-2.1 1.862-2.939.742.595 1.652-1.052 2.68-2.124 2.026 1.957 1.448.556 3.079-.47 3.264 1.795.259 1.844 2.226.97 2.972 2.325-1.098 2.527 1.088 1.961 2.115 1.191-1.328 2.916-.58 2.925.513.482-2.188 2.043-1.378 2.952-.832zm-4.121.832a.896.896 0 0 0 1.647 0 .896.896 0 0 1 1.359-.364.896.896 0 0 0 1.426-.824.896.896 0 0 1 .995-.995.896.896 0 0 0 .823-1.426.896.896 0 0 1 .365-1.359.896.896 0 0 0 0-1.647.896.896 0 0 1-.365-1.359.896.896 0 0 0-.823-1.426.896.896 0 0 1-.995-.995.896.896 0 0 0-1.426-.824.896.896 0 0 1-1.36-.364.896.896 0 0 0-1.646 0 .896.896 0 0 1-1.36.364c-.63-.47-1.517.043-1.425.824a.896.896 0 0 1-.995.995.896.896 0 0 0-.824 1.426.896.896 0 0 1-.364 1.36.896.896 0 0 0 0 1.646c.532.229.71.895.364 1.36a.896.896 0 0 0 .824 1.425.896.896 0 0 1 .995.995c-.092.782.795 1.294 1.426.824a.896.896 0 0 1 1.359.364z" fill="#000"/><path d="M14.894 42.626l-25.722 42.876 67.305-70.64-41.583 27.764zm2.426-5.315l4.206 49.823 2.925-99.311-7.13 49.488zm-.784-2.611l32.25 38.208-62.202-78.245L16.536 34.7zm-4.917-2.875l49.892-3.282-99.38-3.849 49.488 7.132zm-2.939.743L48.717 2.617l-87.08 46.889L8.68 32.567zm-2.124 2.026l26.05-42.678-55.792 82.87L6.556 34.595zm-.47 3.264L-2.8-11.346l1.753 98.693 7.132-49.489zm.97 2.972L-25.418 2.812l53.83 83.229L7.057 40.83zm1.961 2.115L-34.77 18.808l81.01 57.522L9.017 42.945zm2.925.513l-49.998.419 98.828 10.335-48.83-10.754zm.478 0L-33.51 23.695 12.42 43.458zm-1.647 0l45.928-19.763-45.928 19.763zm3.006-.364l-29.893 40.08 29.893-40.08zm1.426-.824l49.657-5.848-49.657 5.848zm.995-.995l-5.848 49.657L16.2 41.275zm.823-1.426l40.08-29.893-40.08 29.893zm.365-1.359L-2.376-7.438 17.388 38.49zm0-1.647L-2.376 82.772l19.764-45.929zm-.365-1.359l40.08 29.893-40.08-29.893zm-.823-1.426L10.352-15.6 16.2 34.058zm-.995-.995l49.657 5.848-49.657-5.848zm-1.426-.824l29.893 40.08L13.78 32.24zm-1.36-.364L-33.508 51.64 12.42 31.875zm-1.646 0l-45.928-19.763 45.928 19.763zm-1.36.364L39.308-7.84 9.414 32.24zm-1.425.824L-41.67 38.91l49.657-5.848zm-.995.995L12.84-15.6 6.993 34.058zm-.824 1.426L46.25 5.591 6.169 35.484zm-.364 1.36l19.763 45.928L5.805 36.843zm0 1.646l-19.763 45.928L5.805 38.49zm.364 1.36L-33.91 9.955 6.17 39.849zm.824 1.425l5.848 49.657-5.848-49.657zm.995.995l-49.657-5.848L7.988 42.27zm1.426.824l29.893 40.08-29.893-40.08zm23.2-50.14c-16.8-5.572-40.402-3.123-56.216 15.972C-39.276 27.853-38.32 52.97-26.69 70.39L56.477 14.86c10.77 16.13 11.843 39.851-3.062 57.849C38.37 90.876 16.19 92.864 1.132 87.87L32.614-7.046zm-19.5-5.465c-10.428.88-23.718 5.276-34.184 16.948C-31.242 15.78-34.307 29.074-34.178 39.4c.2 16.139 9.393 39.872 35.31 48.469L32.614-7.046c13.224 4.387 21.4 13.188 25.791 20.147a48.04 48.04 0 0 1 7.409 25.055c.12 9.627-2.74 22.232-12.432 33.04-9.986 11.137-22.521 15.15-31.856 15.938L13.115-12.51zM-15.714-3.51C-21.052.995-28.425 9.06-32.087 21.439c-3.965 13.4-2.08 26.928 3.581 37.903C-18.825 78.113-1.432 85.126 10.19 86.8L24.45-12.177c10.484 1.51 26.726 7.857 35.92 25.683 5.417 10.503 7.224 23.49 3.433 36.304a48.05 48.05 0 0 1-15.018 23.098L-15.715-3.509zm-11.636 9.142C-57.304 52.006-1.05 110.298 46.487 74.736L-13.416-5.337C31.88-39.223 84.831 16.261 56.65 59.891l-84-54.258zm-10.922 29.475C-36.255 65.78-11.617 79.01 2.196 82.055a52.164 52.164 0 0 0 24.265-.429c8.04-2.078 21.11-7.679 30.189-21.735l-84-54.258C-18.563-7.974-6.004-13.268 1.43-15.19a47.835 47.835 0 0 1 22.286-.412C36.184-12.855 59.598-.543 61.51 28.543l-99.784 6.565zm6.917 27.411c12.36 16.523 32.731 23.55 51.66 19.714 21.25-4.305 37.664-21.483 40.804-43.276L-37.87 24.694C-34.965 4.533-19.6-11.713.447-15.776c17.728-3.591 36.747 2.99 48.27 18.393l-80.073 59.902zm11.863 14.753c20.988 12.811 44.595 7.859 59.2-3.968 17.264-13.979 23.41-37.14 16.017-57.673l-94.088 33.874c-6.797-18.88-1.178-40.702 15.142-53.917 13.663-11.064 35.91-15.829 55.827-3.672l-52.098 85.356zm34.463 9.79c17.443-3.15 32.581-15.269 39.172-32.506 3.974-10.393 4.892-23.044.42-35.62C50.282 6.898 42.547-.975 36.297-5.599l-59.483 80.385c-5.27-3.9-12.447-11.027-16.471-22.345-4.217-11.857-3.346-23.817.394-33.599A48.102 48.102 0 0 1-24.891-1.145 48.238 48.238 0 0 1-2.8-11.346L14.97 87.062zm24.563-8.215C55.659 65.072 59.84 45.023 56.537 29.04c-4.271-20.66-21-37.453-43.32-40.67L-1.046 87.347A48.175 48.175 0 0 1-27.41 74.49a48.415 48.415 0 0 1-13.983-25.207c-3.049-14.75.721-33.442 15.974-46.472l64.952 76.035zm13.273-11.766a52.289 52.289 0 0 0 6.338-21.411c.467-6.392-.008-16.414-5.355-27.045C47.611 6.34 35.431-5.074 18.125-8.497 3.235-11.442-8.605-7.069-14.297-4.38l42.708 90.422c-4.53 2.14-15.474 6.373-29.69 3.562-16.632-3.29-28.36-14.299-34.27-26.047a48.2 48.2 0 0 1-5.042-25.172 47.713 47.713 0 0 1 5.82-19.576l87.577 48.273zM61.94 43.04c-.24-28.733-21.839-44.636-37.924-49C4.747-11.19-15.31-4.816-28.204 9.559l74.443 66.77C34.536 89.379 15.936 95.463-2.171 90.55-17.092 86.5-37.824 71.517-38.055 43.876l99.996-.837zM40.615-.25c-.718-.431-3.454-2.082-7.118-3.623a52.2 52.2 0 0 0-20.488-4.109C1.702-7.926-11.657-4-22.475 6.577c-9.628 9.412-13.079 20.069-14.413 26.127l97.66 21.508c-1.094 4.964-4.168 14.902-13.34 23.868C37.072 88.21 24.25 91.963 13.507 92.016c-9.21.046-16.012-2.548-18.77-3.707-3.1-1.304-5.3-2.648-5.564-2.807L40.615-.25zm-74.124 23.946c17.038-39.593 73.173-39.593 90.21 0L-35.155 63.22c17.659 41.038 75.844 41.039 93.503 0l-91.857-39.526zM43.672 3.014c-26.365-19.665-64.18-9.532-77.18 20.68l91.856 39.527C45.805 92.37 9.323 102.146-16.115 83.173L43.672 3.014zm-78.124 45.105C-39.493 5.312 9.121-22.756 43.672 3.014l-59.786 80.16c35.812 26.71 86.202-2.383 80.976-46.752l-99.314 11.697zm56.5-56.5c-32.665-3.848-60.347 23.834-56.5 56.5l99.314-11.697c3.712 31.515-22.995 58.222-54.51 54.51L22.049-8.38zm-45.104 78.124c-25.77-34.551 2.298-83.166 45.105-78.124L10.352 90.932c44.37 5.226 73.462-45.164 46.751-80.976l-80.16 59.787zm20.68-77.181c-30.213 13-40.345 50.815-20.68 77.18l80.16-59.786C76.074 35.393 66.3 71.876 37.15 84.418L-2.376-7.438zm0 90.21c-39.593-17.038-39.593-73.173 0-90.21l39.527 91.856c41.038-17.659 41.038-75.844 0-93.503L-2.376 82.772zM-23.056 5.59c-19.665 26.365-9.533 64.18 20.68 77.18L37.151-9.084C66.3 3.458 76.075 39.94 57.103 65.377l-80.16-59.786zm45.105 78.124C-20.758 88.756-48.826 40.142-23.056 5.59l80.16 59.786c26.71-35.812-2.383-86.202-46.752-80.976l11.697 99.314zm-56.5-56.5c-3.848 32.665 23.834 60.347 56.5 56.5L10.35-15.6c31.516-3.712 58.223 22.995 54.51 54.51l-99.313-11.697zm78.123 45.104c-34.55 25.77-83.165-2.298-78.124-45.105l99.314 11.697C70.088-5.459 19.698-34.55-16.114-7.84l59.786 80.16zm-77.18-20.68c13 30.213 50.815 40.345 77.18 20.68L-16.114-7.84c25.436-18.971 61.919-9.196 74.462 19.953l-91.857 39.527zm90.21 0c-17.038 39.592-73.173 39.592-90.21 0l91.856-39.527c-17.66-41.038-75.844-41.038-93.503 0L56.7 51.639zm-77.182 20.68C5.886 91.984 43.7 81.852 56.701 51.64l-91.856-39.527C-22.612-17.037 13.87-26.812 39.307-7.84L-20.48 72.32zm78.124-45.105C62.686 70.021 14.071 98.09-20.48 72.32L39.307-7.84C3.495-34.55-46.895-5.457-41.669 38.912l99.313-11.697zm-56.5 56.5c32.666 3.848 60.348-23.834 56.5-56.5l-99.313 11.697c-3.712-31.515 22.995-58.222 54.51-54.51L1.144 83.715zM46.249 5.592c25.77 34.55-2.298 83.166-45.105 78.124L12.841-15.6c-44.37-5.226-73.462 45.164-46.752 80.976L46.25 5.591zm-20.68 77.18c30.213-13 40.345-50.815 20.68-77.18l-80.16 59.786C-52.882 39.941-43.107 3.458-13.958-9.085l39.526 91.857zm0-90.21c39.592 17.038 39.592 73.173 0 90.21L-13.959-9.084c-41.039 17.66-41.038 75.844 0 93.503L25.568-7.438zm20.68 77.182c19.665-26.366 9.532-64.18-20.68-77.181l-39.527 91.856c-29.15-12.543-38.925-49.025-19.953-74.462l80.16 59.787zM1.144-8.381C43.951-13.423 72.02 35.192 46.25 69.743l-80.16-59.787c-26.71 35.812 2.383 86.202 46.752 80.976L1.144-8.38zm56.5 56.5c3.848-32.666-23.834-60.348-56.5-56.5l11.697 99.313c-31.515 3.712-58.222-22.995-54.51-54.51l99.313 11.697zM-20.48 3.014c34.551-25.77 83.166 2.298 78.124 45.105l-99.313-11.697c-5.226 44.37 45.164 73.462 80.976 46.751L-20.48 3.013zm77.181 20.68c-13-30.212-50.815-40.345-77.18-20.68l59.786 80.16C13.87 102.145-22.613 92.37-35.155 63.22L56.7 23.695z" fill="#000" mask="url(#d)"/><path d="M32.262 38.306c0-1.09.883-1.973 1.972-1.973 1.09 0 2.028.884 2.028 1.973 0 1.09-.938 2.027-2.028 2.027s-1.972-.938-1.972-2.027z" fill="#C5D362"/><mask id="e" fill="#fff"><path d="M37.41 39.702c.258.257.772-1.541.373-2.487-.82-1.942-2.237-1.962-3.17-1.84-.934.122-2.35.932-2.35 2.837 0 2.454 2.631 3.271 4.053 2.518.896-.475-.225-.236-.322-.193-.618.278-3.926.129-3.355-2.687.365-1.797 2.44-1.922 3.434-1.648 1.337.37 1.723 2.216 1.337 3.5z"/></mask><path d="M37.41 39.702c.258.257.772-1.541.373-2.487-.82-1.942-2.237-1.962-3.17-1.84-.934.122-2.35.932-2.35 2.837 0 2.454 2.631 3.271 4.053 2.518.896-.475-.225-.236-.322-.193-.618.278-3.926.129-3.355-2.687.365-1.797 2.44-1.922 3.434-1.648 1.337.37 1.723 2.216 1.337 3.5z" fill="#000"/><path d="M37.41 39.702l-.286-.086a.299.299 0 0 0 .075.298l.211-.212zm.373-2.487l.275-.116-.275.116zm-1.467 3.515l.14.264-.14-.264zm-.322-.193l.123.273-.123-.273zm-3.355-2.687l.293.06-.293-.06zm3.434-1.648l-.08.288.08-.288zm1.126 3.712a.374.374 0 0 0 .488.039.725.725 0 0 0 .21-.258c.097-.182.18-.443.238-.725.116-.556.158-1.314-.077-1.871l-.55.233c.164.388.15 1.001.042 1.517a2.305 2.305 0 0 1-.18.566c-.034.063-.047.063-.024.048a.21.21 0 0 1 .127-.034.224.224 0 0 1 .148.062l-.422.423zm.86-2.815c-.438-1.033-1.05-1.588-1.707-1.855-.645-.261-1.295-.228-1.778-.165l.077.593c.45-.06.975-.077 1.477.126.49.198.996.624 1.38 1.533l.55-.232zm-3.485-2.02c-1.038.136-2.61 1.038-2.61 3.133h.598c0-1.714 1.26-2.432 2.089-2.54l-.078-.593zm-2.61 3.133c0 1.352.733 2.267 1.659 2.729.908.453 2.024.481 2.833.053l-.28-.528c-.613.325-1.524.32-2.286-.06-.746-.372-1.328-1.092-1.328-2.194h-.598zm4.492 2.782c.117-.062.21-.117.28-.166a.831.831 0 0 0 .1-.081.427.427 0 0 0 .094-.132.327.327 0 0 0-.196-.447.602.602 0 0 0-.216-.027 3.095 3.095 0 0 0-.52.084.841.841 0 0 0-.127.04l.246.545c-.013.005-.019.007-.007.003a2.621 2.621 0 0 1 .427-.075.27.27 0 0 1 .026 0c.005 0-.008 0-.03-.008a.27.27 0 0 1-.149-.358.206.206 0 0 1 .035-.054l-.007.006a2.06 2.06 0 0 1-.236.142l.28.528zm-.585-.729a.976.976 0 0 1-.256.055 3.448 3.448 0 0 1-1.627-.241c-.377-.16-.697-.398-.895-.734-.196-.33-.292-.79-.16-1.436l-.586-.119c-.155.763-.052 1.378.231 1.859.281.476.72.785 1.176.98a4.046 4.046 0 0 0 1.93.285c.16-.019.314-.051.433-.104l-.246-.545zm-2.939-2.356c.156-.767.667-1.178 1.28-1.375a3.341 3.341 0 0 1 1.781-.044l.16-.576a3.935 3.935 0 0 0-2.124.051c-.765.246-1.473.796-1.682 1.825l.585.12zm3.061-1.419c.54.15.914.602 1.11 1.21.197.61.197 1.331.02 1.916l.573.172c.21-.7.21-1.544-.024-2.27-.234-.728-.722-1.383-1.52-1.604l-.159.576z" fill="#000" mask="url(#e)"/><mask id="f" fill="#fff"><path fill-rule="evenodd" clip-rule="evenodd" d="M38.133 42.734c-.793-1.188.218-2.572 1.824-2.039-1.127-.373-1.603-2.686.411-2.856-1.047-.15-2.12-1.226-.722-2.405-1.032.772-2.554-.522-1.738-1.785-.535.828-2.694.6-2.79-.862-.217 1.503-1.936 1.715-2.708.684.548 1.521-.969 2.468-1.956 1.866 1.802 1.333.512 2.835-.433 3.006 1.653.238 1.699 2.05.894 2.737 2.14-1.01 2.327 1.003 1.806 1.948 1.097-1.223 2.685-.533 2.694.473.443-2.015 1.881-1.27 2.718-.767zm-3.795.767a.826.826 0 0 0 1.517 0 .826.826 0 0 1 1.252-.336.826.826 0 0 0 1.313-.758.826.826 0 0 1 .917-.917.826.826 0 0 0 .758-1.313.826.826 0 0 1 .335-1.252.826.826 0 0 0 0-1.517.826.826 0 0 1-.335-1.252.826.826 0 0 0-.758-1.313.826.826 0 0 1-.917-.917.826.826 0 0 0-1.313-.758.826.826 0 0 1-1.252-.335.826.826 0 0 0-1.517 0 .826.826 0 0 1-1.252.335.826.826 0 0 0-1.313.758.826.826 0 0 1-.917.917.826.826 0 0 0-.758 1.313.826.826 0 0 1-.336 1.252.826.826 0 0 0 0 1.517c.49.21.655.824.336 1.252a.826.826 0 0 0 .758 1.313.826.826 0 0 1 .917.917.826.826 0 0 0 1.313.758.826.826 0 0 1 1.252.336z"/></mask><path fill-rule="evenodd" clip-rule="evenodd" d="M38.133 42.734c-.793-1.188.218-2.572 1.824-2.039-1.127-.373-1.603-2.686.411-2.856-1.047-.15-2.12-1.226-.722-2.405-1.032.772-2.554-.522-1.738-1.785-.535.828-2.694.6-2.79-.862-.217 1.503-1.936 1.715-2.708.684.548 1.521-.969 2.468-1.956 1.866 1.802 1.333.512 2.835-.433 3.006 1.653.238 1.699 2.05.894 2.737 2.14-1.01 2.327 1.003 1.806 1.948 1.097-1.223 2.685-.533 2.694.473.443-2.015 1.881-1.27 2.718-.767zm-3.795.767a.826.826 0 0 0 1.517 0 .826.826 0 0 1 1.252-.336.826.826 0 0 0 1.313-.758.826.826 0 0 1 .917-.917.826.826 0 0 0 .758-1.313.826.826 0 0 1 .335-1.252.826.826 0 0 0 0-1.517.826.826 0 0 1-.335-1.252.826.826 0 0 0-.758-1.313.826.826 0 0 1-.917-.917.826.826 0 0 0-1.313-.758.826.826 0 0 1-1.252-.335.826.826 0 0 0-1.517 0 .826.826 0 0 1-1.252.335.826.826 0 0 0-1.313.758.826.826 0 0 1-.917.917.826.826 0 0 0-.758 1.313.826.826 0 0 1-.336 1.252.826.826 0 0 0 0 1.517c.49.21.655.824.336 1.252a.826.826 0 0 0 .758 1.313.826.826 0 0 1 .917.917.826.826 0 0 0 1.313.758.826.826 0 0 1 1.252.336z" fill="#000"/><path d="M38.133 42.734l-23.69 39.492 61.99-65.064-38.3 25.572zm2.235-4.895l3.874 45.89 2.695-91.471-6.569 45.581zm-.722-2.405L69.35 70.626 12.06-1.442l27.587 36.876zm-4.529-2.647l45.954-3.023-91.535-3.546 45.581 6.569zm-2.707.684L69.286 5.884-10.919 49.07l43.33-15.6zm-1.956 1.866l23.993-39.31L3.06 72.358l27.394-37.02zm-.433 3.006l-8.183-45.32 1.614 90.902 6.569-45.582zm.894 2.737L1.003 6.064l49.58 76.658L30.915 41.08zm1.806 1.948l-40.332-22.23 74.615 52.98-34.283-30.75zm2.694.473l-46.051.385 91.025 9.52L35.415 43.5zm.44 0L-6.448 25.298 35.855 43.5zm-1.517 0L76.64 25.298 34.338 43.5zm2.769-.336L9.573 80.081l27.534-36.916zm1.313-.758l45.737-5.387-45.737 5.387zm.917-.917L33.95 87.227l5.387-45.737zm.758-1.313L77.01 12.643 40.095 40.177zm.335-1.252L22.227-3.377 40.43 38.925zm0-1.517L22.227 79.711 40.43 37.408zm-.335-1.252L77.01 63.69 40.095 36.156zm-.758-1.313L33.95-10.894l5.387 45.737zm-.917-.917l45.737 5.387-45.737-5.387zm-1.313-.758L64.64 70.084 37.107 33.168zm-1.252-.335L-6.448 51.035l42.303-18.203zm-1.517 0L-7.964 14.629l42.302 18.204zm-1.252.335L60.62-3.748 33.085 33.168zm-1.313.758l-45.737 5.387 45.737-5.387zm-.917.917l5.387-45.737-5.387 45.737zm-.758 1.313L67.013 8.623 30.098 36.156zm-.336 1.252l18.203 42.303-18.203-42.303zm0 1.517L11.56 81.227l18.203-42.302zm.336 1.252L-6.818 12.643l36.916 27.534zm.758 1.313l5.387 45.737-5.387-45.737zm.917.917l-45.737-5.387 45.737 5.387zm1.313.758L60.62 80.081 33.086 43.165zm21.37-46.18C38.98-8.149 17.241-5.894 2.675 11.694-11.76 29.128-10.878 52.262-.166 68.306l76.6-51.144c9.92 14.856 10.909 36.704-2.82 53.281-13.856 16.733-34.286 18.563-48.155 13.963L54.455-3.016zM36.494-8.05C26.89-7.24 14.649-3.19 5.009 7.56-4.361 18.009-7.183 30.252-7.064 39.764c.185 14.865 8.652 36.724 32.522 44.642L54.455-3.016c12.18 4.04 19.71 12.147 23.755 18.556a44.247 44.247 0 0 1 6.824 23.077c.11 8.867-2.524 20.477-11.451 30.433-9.198 10.257-20.743 13.953-29.341 14.679l-7.747-91.78zM9.94.242C5.026 4.39-1.765 11.818-5.139 23.22c-3.651 12.342-1.914 24.802 3.3 34.911C7.076 75.421 23.096 81.88 33.8 83.421L46.937-7.742c9.655 1.39 24.615 7.237 33.083 23.655 4.99 9.675 6.654 21.635 3.162 33.439A44.255 44.255 0 0 1 69.35 70.626L9.941.242zM-.776 8.662c-27.589 42.712 24.225 96.402 68.009 63.648L12.059-1.442c41.72-31.21 90.49 19.893 64.534 60.078L-.777 8.662zm-10.06 27.148c1.859 28.252 24.552 40.437 37.274 43.24a48.045 48.045 0 0 0 22.35-.394c7.404-1.915 19.442-7.073 27.805-20.02L-.777 8.662c8.096-12.533 19.664-17.41 26.51-19.18a44.058 44.058 0 0 1 20.526-.379c11.484 2.53 33.05 13.87 34.812 40.66l-91.907 6.047zm6.37 25.247C6.92 76.276 25.683 82.747 43.118 79.215c19.571-3.966 34.69-19.787 37.582-39.86l-91.163-13.137C-7.79 7.648 6.361-7.315 24.825-11.056c16.33-3.309 33.847 2.753 44.46 16.94L-4.465 61.057zM6.462 74.646c19.332 11.8 41.075 7.238 54.528-3.655 15.9-12.876 21.56-34.21 14.751-53.12l-86.66 31.2C-17.18 31.68-12.004 11.58 3.028-.59c12.584-10.19 33.075-14.58 51.42-3.382L6.46 74.646zm31.743 9.017c16.066-2.901 30.009-14.064 36.08-29.94 3.66-9.573 4.505-21.225.386-32.809C70.727 9.828 63.604 2.577 57.847-1.683L3.06 72.357A43.873 43.873 0 0 1-12.11 51.775c-3.884-10.921-3.082-21.938.363-30.947A44.305 44.305 0 0 1 1.489 2.42a44.43 44.43 0 0 1 20.349-9.396l16.366 90.64zm22.623-7.567C75.68 63.408 79.532 44.942 76.489 30.22 72.555 11.19 57.147-4.276 36.589-7.24L23.452 83.925A44.372 44.372 0 0 1-.83 72.083a44.593 44.593 0 0 1-12.878-23.216c-2.809-13.586.663-30.802 14.712-42.803l59.824 70.032zM73.052 65.26a48.161 48.161 0 0 0 5.838-19.721c.43-5.887-.007-15.118-4.931-24.91C68.267 9.314 57.049-1.2 41.108-4.351 27.395-7.065 16.49-3.037 11.247-.562l39.336 83.284c-4.172 1.97-14.252 5.87-27.345 3.28-15.32-3.03-26.122-13.169-31.564-23.99a44.394 44.394 0 0 1-4.645-23.184 43.945 43.945 0 0 1 5.36-18.03l80.663 44.461zm8.414-22.144C81.244 16.651 61.35 2.003 46.536-2.017 28.787-6.833 10.313-.962-1.563 12.279l68.566 61.499c-10.779 12.017-27.91 17.621-44.587 13.096-13.745-3.73-32.84-17.53-33.053-42.988l92.102-.77zM61.824 3.242c-.662-.397-3.181-1.917-6.556-3.336a48.078 48.078 0 0 0-18.87-3.785C25.983-3.827 13.678-.21 3.714 9.531-5.153 18.2-8.33 28.016-9.56 33.596l89.95 19.81c-1.008 4.572-3.84 13.725-12.287 21.984-9.543 9.33-21.353 12.786-31.248 12.835-8.482.043-14.748-2.346-17.287-3.414-2.856-1.2-4.882-2.44-5.125-2.585L61.824 3.242zM-6.448 25.298c15.692-36.468 67.396-36.467 83.088 0L-7.964 61.704c16.265 37.798 69.856 37.798 86.121 0L-6.448 25.298zM64.64 6.25C40.356-11.863 5.527-2.53-6.448 25.298l84.605 36.406C66.604 88.55 33.002 97.555 9.573 80.08L64.64 6.25zM-7.316 47.794C-11.96 8.366 32.817-17.486 64.64 6.25L9.573 80.08c32.985 24.603 79.397-2.193 74.584-43.06L-7.316 47.794zm52.04-52.04C14.637-7.79-10.86 17.707-7.316 47.794L84.157 37.02c3.418 29.027-21.18 53.626-50.207 50.207L44.723-4.246zM3.178 67.71C-20.556 35.887 5.296-8.89 44.723-4.246L33.95 87.227c40.867 4.813 67.662-41.598 43.06-74.584L3.18 67.71zM22.227-3.377C-5.6 8.597-14.933 43.426 3.18 67.71L77.01 12.644c17.475 23.428 8.471 57.03-18.377 68.583L22.227-3.377zm0 83.088c-36.467-15.692-36.467-67.396 0-83.088l36.406 84.604c37.799-16.265 37.799-69.856 0-86.121L22.227 79.71zM3.18 8.623C-14.933 32.907-5.6 67.736 22.227 79.71L58.633-4.894C85.481 6.659 94.486 40.26 77.01 63.69L3.18 8.623zm41.544 71.956C5.296 85.223-20.556 40.446 3.18 8.623L77.01 63.69c24.602-32.985-2.193-79.397-43.06-74.584L44.723 80.58zm-52.04-52.04c-3.543 30.087 21.954 55.584 52.04 52.04L33.95-10.894c29.027-3.418 53.626 21.18 50.207 50.207L-7.316 28.54zM64.64 70.084C32.817 93.82-11.96 67.968-7.316 28.54l91.473 10.773C88.97-1.554 42.558-28.349 9.573-3.747l55.067 73.83zM-6.448 51.037C5.527 78.863 40.356 88.196 64.64 70.084L9.573-3.748c23.429-17.474 57.031-8.47 68.584 18.377L-6.448 51.036zm83.088 0c-15.692 36.467-67.396 36.467-83.088 0l84.605-36.407c-16.265-37.798-69.856-37.798-86.121 0L76.64 51.036zM5.553 70.083c24.284 18.113 59.113 8.78 71.087-19.047L-7.964 14.629C3.588-12.218 37.19-21.22 60.62-3.748L5.553 70.084zM77.509 28.54c4.644 39.427-40.133 65.279-71.956 41.544L60.619-3.748C27.635-28.349-18.777-1.554-13.964 39.313L77.51 28.54zM25.47 80.58c30.087 3.543 55.584-21.954 52.04-52.04l-91.473 10.773c-3.419-29.027 21.18-53.626 50.207-50.207L25.469 80.58zM67.013 8.622c23.736 31.823-2.116 76.6-41.544 71.956l10.774-91.473C-4.624-15.707-31.42 30.705-6.817 63.69l73.83-55.067zM47.965 79.711c27.828-11.975 37.16-46.804 19.048-71.088L-6.817 63.69C-24.293 40.26-15.289 6.659 11.558-4.894L47.965 79.71zm0-83.088c36.467 15.692 36.468 67.395 0 83.088L11.56-4.894c-37.798 16.265-37.798 69.856 0 86.121L47.965-3.377zM67.013 67.71c18.112-24.284 8.78-59.113-19.048-71.087L11.56 81.227C-15.288 69.675-24.292 36.072-6.818 12.643L67.013 67.71zM25.47-4.246C64.897-8.89 90.75 35.887 67.013 67.71l-73.83-55.066C-31.42 45.629-4.625 92.04 36.242 87.227L25.469-4.246zm52.04 52.04C81.053 17.707 55.556-7.79 25.47-4.246l10.774 91.473C7.216 90.646-17.383 66.047-13.964 37.02L77.51 47.794zM5.553 6.25c31.823-23.736 76.6 2.116 71.956 41.544L-13.964 37.02c-4.813 40.867 41.598 67.663 74.584 43.06L5.553 6.25zM76.64 25.298C64.666-2.53 29.837-11.862 5.553 6.25L60.62 80.08C37.19 97.556 3.588 88.552-7.965 61.705L76.64 25.298z" fill="#000" mask="url(#f)"/><path d="M6.933 20.41c-.686 2.371.875 6.06 1.946 6.751 1.07.692 1.14.119.578-.504-.562-.623-2.274-3.864-1.575-6.102.699-2.239-.264-2.516-.95-.145z" fill="#000"/><path d="M3.764 19.71c-.648 3.3 2.474 8.906 4.282 10.098 1.809 1.192 1.814.377.818-.624-.996-1-4.275-5.988-3.581-9.093.694-3.105-.87-3.679-1.519-.38z" fill="#000"/></svg>