<svg width="48" height="48" viewBox="0 0 48 48" fill="none" xmlns="http://www.w3.org/2000/svg"><path d="M8.891 15.092a6.723 6.723 0 0 1 6.723-6.722h16.733a6.723 6.723 0 0 1 6.723 6.722H8.89z" fill="#D0D0D0"/><path fill-rule="evenodd" clip-rule="evenodd" d="M7.925 29.767c.155-3.678 0-9.465.043-16.184-.043-4.993 4.352-5.577 6.903-5.81 4.622-.421 17.27-.938 21.472.817 3.745 2.62 2.975 9.023 2.975 11.04V31.06c0 4.546.788 9.134-2.931 11.715-4.215 1.748-16.903 1.237-21.54.819l-.04-.004c-2.57-.231-6.882-.97-6.882-5.772v-8.05zm1.555-1.901c-.208 2.184-.173 5.275-.243 5.714-.64 7.059 2.377 8.15 6.349 8.772 2.488.389 5.593.326 8.557.267 1.767-.036 3.484-.07 4.99-.008 6.693-.254 7.368-2.498 7.981-4.535.048-.159.095-.316.145-.471.575-1.79.577-3.707.615-5.538.038-1.83-.21-6.548-.16-8.907.013-.65-.05-3.345 0-4.034.074-1.03-.122-2.17-.161-3.173-3.56.163-7.024.129-10.49.095-3.24-.032-6.48-.064-9.804.065-.823-.1-2.133-.026-3.495.05-1.706.097-3.495.198-4.513-.032.032.649.107 1.36.23 2.14.264 1.695.208 7.41 0 9.595zm27.731-14.08c.085.268.152.544.203.828-2.173.12-4.276.08-6.377.04-.942-.018-1.884-.035-2.832-.039-.959.087-3.207.066-5.858.042-4.798-.044-10.918-.1-13.11.447.124-4.8 3.037-5.556 6.37-6.083 2.48-.392 5.575-.33 8.53-.27 1.761.035 3.473.069 4.975.005 6.672.254 7.344 2.51 7.955 4.556.047.16.095.318.144.474z" fill="#000"/><path d="M21.103 25.153l.842-.333.518-.744 1.823-2.624.01-.015.011-.015.003-.004.003.004c.553.817.94 1.398 1.204 1.802a31.772 31.772 0 0 1 .382.597l.022.037.006.01c0 .002.001.003.002.003h0l.593 1.043 1.148.346 2.17.654c-.563.681-.923 1.122-1.145 1.398-.136.169-.252.315-.331.422a3.577 3.577 0 0 0-.257.405 3.019 3.019 0 0 0-.331 1.78v3.014a68.868 68.868 0 0 1-2.186-.814l-1.004-1.058-1.892.76-2.181.877V28.793l-.7-.835-1.524-1.822a56.26 56.26 0 0 0 2.814-.983zm-.58 8.928v-.003.003zm7.256-.03a.01.01 0 0 1 0-.004v.004zm-11.132-7.389l.005-.002a.05.05 0 0 1-.005.002z" stroke="#000" stroke-width="6"/><path d="M20.665 23.336l1.52-2.186c.69-1.02 2.487-2.448 4.144 0 .93 1.373 1.324 1.985 1.45 2.207l2.833.854c.875.242 2.238 1.195.691 3.06-1.547 1.866-1.75 2.138-1.658 2.04v3.644c.046.923-.442 2.565-2.763 1.749-2.321-.816-2.993-1.118-3.04-1.166l-2.9 1.166c-.784.291-2.35.35-2.35-1.75v-3.351l-2.072-2.478c-.552-.631-1.188-2.04.691-2.623 1.88-.583 3.086-1.02 3.454-1.166z" fill="#C5D362"/><path d="M18.2 5.673c0 .683.157 2.622.157 3.514.022 1.506.788 2.008 1.103 1.841.315-.167.368-.74.119-1.004-.315-.335-.907-4.685.51-4.853 1.135-.134 1.208 1.618 1.103 2.51.21.223.693.636.945.502.315-.167.315-.669 0-2.342C21.822 4.167 20.78 4 19.46 4c-.669 0-1.26 1.004-1.26 1.673zM24.62 5.673c0 .683.158 2.622.158 3.514.021 1.506.788 2.008 1.103 1.841.315-.167.368-.74.119-1.004-.315-.335-.907-4.685.51-4.853 1.135-.134 1.208 1.618 1.103 2.51.21.223.693.636.945.502.315-.167.315-.669 0-2.342C28.243 4.167 27.2 4 25.881 4c-.669 0-1.26 1.004-1.26 1.673zM30.72 6.01c0 .682.158 2.621.158 3.514.021 1.506.788 2.008 1.103 1.84.315-.167.367-.74.118-1.004-.314-.335-.906-4.685.512-4.853 1.134-.133 1.207 1.618 1.102 2.51.21.224.693.636.945.503.315-.168.315-.67 0-2.343-.315-1.674-1.358-1.84-2.677-1.84-.669 0-1.26 1.003-1.26 1.672zM12.1 6.01c0 .682.157 2.621.157 3.514.021 1.506.788 2.008 1.103 1.84.315-.167.368-.74.119-1.004-.315-.335-.907-4.685.51-4.853 1.135-.133 1.208 1.618 1.103 2.51.21.224.693.636.945.503.315-.168.315-.67 0-2.343-.315-1.674-1.358-1.84-2.677-1.84-.669 0-1.26 1.003-1.26 1.672z" fill="#000"/><path d="M13.421 11.289c.12-.075.12-.213.03-.306a.68.68 0 0 1-.1.018c.018.099.04.195.07.288zm-.536.66a.904.904 0 0 1-.137-1.488c.18-.682 1.417-.436 1.536.166.298.672-.506 1.811-1.399 1.321zM32.042 11.289c.12-.075.12-.213.03-.306a.68.68 0 0 1-.1.018c.019.099.04.195.07.288zm-.536.66a.904.904 0 0 1-.137-1.488c.18-.682 1.417-.436 1.536.166.298.672-.506 1.811-1.399 1.321zM19.521 10.953c.12-.075.12-.213.03-.306-.033.007-.066.015-.1.018.019.098.04.194.07.288zm-.536.659a.904.904 0 0 1-.137-1.487c.18-.682 1.417-.436 1.536.166.298.672-.506 1.811-1.399 1.321zM25.942 10.953c.12-.075.12-.213.03-.306-.033.007-.066.015-.1.018.018.098.04.194.07.288zm-.536.659a.904.904 0 0 1-.137-1.487c.18-.682 1.417-.436 1.536.166.298.672-.506 1.811-1.399 1.321zM36.13 7.445c-.482 0-.22-.614 0-.672.642-.168 3.21-.336 4.173 2.185.771 2.017.75 3.473.643 4.874 0 .336-.065.336-.322.336-.32 0-.32-.632-.32-1.008 0-.505.802-6.219-4.174-5.715zM10.868 42.992c.482 0 .322.504.16.672-.32.336-3.37.504-4.333-2.017-.77-2.017-.75-5.322-.642-6.723 0-.336.224-.672.481-.672.321 0 .482.84.321 1.177-.16.336-.963 9.075 4.013 7.563z" fill="#000"/></svg>