<svg width="48" height="48" viewBox="0 0 48 48" fill="none" xmlns="http://www.w3.org/2000/svg"><path d="M25.87 29.993c-.652-.254-1.787-1.939-3.309-3.346l.003.004-.014-.013-.35-.343-.015-.015.002.002c-3.351-2.555 1.299-5.035 2.854-7.504l-.026.034c2.715-3.228 4.688-7.356 6.748-7.81.358-.132 5.386 5.858 6.8 7.195 1.414 1.607 6.294 4.883 1.097 5.784l.033-.01c-.57.162-1.353.46-2.245.826l-.164.07.031-.014c-1.759.713-3.678 1.479-5.67 2.314l.035-.014c-.732.307-1.617.705-2.518 1.202l.002-.002c-.59.338-1.174.684-1.765 1.02a1.276 1.276 0 0 0-.047.027l.003-.002-.075.043.039-.022c-.352.137-.806.648-1.448.574z" fill="#E2DE69"/><path d="M38.214 39.173c-.746-.226.347-.638 1.132-.76 1.14-.233 2.176-1.042 2.291-2.586 0 .002 0 .005-.002.007-.033-.344.723-1.13.566.603v-.005c.172 1.939-1.697 2.585-3.987 2.74zM36.711 11.597c-.416-1.3 2.058-3.673 3.182-5.154 2.211-2.517-2.337 6.55-3.182 5.154zM38.93 13.165c-.703-.322.377-1.07 1.2-1.712.002 0 .002 0 .003-.002l-.001.001.038-.029-.004.002.044-.035a.991.991 0 0 0-.043.034c.609-.482 1.383-1.052 2.192-1.673l-.028.022c2.836-2.073-1.982 3.342-3.4 3.392z" fill="#000"/><path d="M42.321 21.41c-.012-.038-.082.442-.046-.111-.06-.869-2.602-2.89-3.202-3.953 0 .002.003.004.005.007-2.887-3.574-6.53-9.97-8.162-10.353-1.35-.633-5.942 8.048-7.422 9.65l.006-.008-.052.072.028-.038c-1.49 2.07-3.084 3.456-4.547 5.733-.079.012-.5.255-1.119.775l.019-.016c-3.927 4.145-5.669 2.668-.846 8.481l-.036-.045c.147.181.291.365.44.546l-.035-.043c.755.498.345 1.888.458 3.109-.155.815-.115 1.193-.827 2.016-2.232.04-3.992.093-6.391-.003l.062.003c-3.641 0-2.807-.242-3.526-4.93.622 0-.12.007-.12.007-.185-3.06.32-6.048 0-9.32v.008L7 22.926l-.028-.31a194.79 194.79 0 0 0-.07-.764v.001c-.004-.051-.007-.102-.012-.152v.001l-.006-.074v.004l-.006-.072c0 .006 0 .011.002.017-.097-1.116-.184-2.437-.128-3.797V17.776v.004c.294-1.63-.995-3.874 1.56-3.796l-.015.001c2.653-.452 5.929-.201 8.49-1.321-12.849-1.394-12.151.772-11.492 9.683v-.001l.012.135-.006-.072c1.216 16.693-1.79 17.073 12.826 16.068 1.401-.292.986-3.166.892-4.655.386.12.952-.78-.09-.636a5.444 5.444 0 0 0-.05-.243c1.418.06 2.094-.912-.344-.803a225.842 225.842 0 0 0-2.192-3.279c1.395-.926 3.643-3.939-.29-.381-.043-.054-.083-.109-.127-.16 3.435-2.653 4.037-4.55-.336-.386a7.858 7.858 0 0 0-.36-.367l.003.004-.014-.012h.002l-.032-.028-.074-.068c1.341-1.135 2.867-2.398 4.206-3.922.32.345.744.762 1.226 1.294l-.004-.004c.429.472.934 1.055 1.605 1.779l-.002-.001c.284.307.57.61.853.917a.032.032 0 0 1-.006-.007l.08.086a45.81 45.81 0 0 1 2.183 2.544c-.5.402-1.173.95-1.626 1.686l.002-.004c-.364.582-1.062 5.154.261 6.888.64.417 4.06-.245 5.314-.111 11.602-.627 12.042-.322 11.26-6.672-.16-.882-.597-8.012-1.338-3.777-.542 2.037 2.336 7.88-.892 8.211l.007-.001c-1.236.256-2.791.442-4.312.576l.01-.001c-3.049.289-6.025.05-9.314.346-.173-1.466-.067-2.561-.316-4.289l.008.046c-.479-2.395 11.457-7.543 13.042-8.357.175.145-.012.006-.02.009.58-.567 4.923-1.234 4.978-3.29zm-.638.152c-.209.523-1.654.505-2.183 1.054-3.451.49-10.863 4.635-13.267 6.422A.368.368 0 0 0 26 29c-1.687-2.246-3.631-3.814-5.929-5.884 3.462-3.994 6.446-7.368 9.137-12.116 1.123 1.658 1.873 2.332 3.298 4.006.02.024.045.052-.006-.006.027.03.006.006.012.015l-.001-.002c.002.004.005.005.02.022l-.004-.005a.27.27 0 0 1 .024.028l-.015-.015c.03.034.061.068.09.103l-.003-.005.013.016-.004-.004c2.524 3.031 9.051 9.678 5.205 3.707l.027.03a5.834 5.834 0 0 0-.083-.094l-.025-.03.003.005-.159-.183a.02.02 0 0 1 .005.006l-.041-.047-.04-.045.028.03-.04-.046c.008.011.018.02.026.032a2.981 2.981 0 0 0-.068-.078c-.028-.032-.002-.004-.062-.07l.004.003c-.01-.01-.018-.022-.028-.033v.002l-.055-.062.027.03c-.599-.691-1.308-1.47-2.09-2.353l.002.002-.006-.006s.002.004.005.005a3.12 3.12 0 0 0-.064-.072l.009.01-.072-.082.001.002-.021-.026v.002s0-.002-.008-.01l.002.001-.022-.025a.057.057 0 0 0 .008.01c-.062-.071-.025-.031-.132-.152.01.01.02.023.029.034-.33-.38-.663-.756-.996-1.133l.002.003c-.032-.035-.03-.034-.166-.191l.03.035c-.02-.024-.03-.033-.13-.15l.03.036-.192-.22.011.012c-1.3-1.49-2.195-2.893-3.586-4.542.346-.253.374-.756 1-1 .68.985 1.431 1.667 2.318 2.822l-.035-.043c.251.318.56.7.978 1.222l-.015-.02c.01.012.001.003.035.045l-.002-.002.165.208-.001-.002c2.257 2.79 4.571 5.69 7.244 8.453-.045.07.026.095-.004.38zM40.492 15.132c-1.407-.782 3.541-2.028 4.508-1.63-.867.807-2.966 1.323-4.508 1.63z" fill="#000"/><path d="M12.494 36c-.992-.09-2.816-.218-3.462-2.288l.014.037c-.482-1.267-.752-2.726-.881-4.167v.002c-.186-2.323.016-4.848-.165-7.358l.005.008c1.189-1.181 1.154 2.46 1.288 3.068 0-.005 0-.009-.003-.013l.003.03c0-.004 0-.008-.003-.012l.003.032v-.002.009-.003l.01.096v-.002.007c0-.003 0-.005-.003-.009.15 1.831.174 3.57.317 5.577v-.001l.002.015v-.002c.069.744.257 1.818.6 2.729l-.014-.037c.282.473.209 1.148 1.457 1.675.26.074 2.252.362.832.609z" fill="#000"/></svg>