<svg width="24" height="20" viewBox="0 0 24 20" fill="none" xmlns="http://www.w3.org/2000/svg">
<path fill-rule="evenodd" clip-rule="evenodd" d="M1 0C0.447715 0 0 0.447715 0 1C0 1.55228 0.447716 2 1 2H23C23.5523 2 24 1.55228 24 1C24 0.447715 23.5523 0 23 0H1ZM0 10C0 9.44771 0.447715 9 1 9H23C23.5523 9 24 9.44771 24 10C24 10.5523 23.5523 11 23 11H1C0.447716 11 0 10.5523 0 10ZM0 19C0 18.4477 0.447715 18 1 18H23C23.5523 18 24 18.4477 24 19C24 19.5523 23.5523 20 23 20H1C0.447716 20 0 19.5523 0 19Z" fill="#949494"/>
</svg>
