<svg width="48" height="48" viewBox="0 0 48 48" fill="none" xmlns="http://www.w3.org/2000/svg"><path fill-rule="evenodd" clip-rule="evenodd" d="M38.433 17.085c-2.996-6.368-11.96-8.258-16.74-8.258-2.75 0-6.03 1.764-7.727 3.128-.606.336-1.228.707-1.866 1.118C6.313 18.3 5.854 27.258 8.708 33.324c2.996 6.368 11.187 7.981 15.967 7.981 2.24 0 5.605-.892 7.405-2.063a18.933 18.933 0 0 0 2.961-1.906c5.788-5.225 6.246-14.184 3.392-20.25zM19.237 39.03c7.096 1.442 16.035-1.489 18.099-7.354 1.646-4.68 2.332-12.505-4.392-18.228-2.483-1.77-6.966-2.976-10.754-2.956-5.361.83-10.773 3.662-12.384 8.242-1.647 4.68-2.333 12.504 4.391 18.227 1.335.951 3.102 1.64 5.04 2.07z" fill="#000"/><circle cx="23.571" cy="25.066" r="12.262" fill="#BCBA6D"/><circle cx="23.736" cy="24.9" r="8.451" fill="#fff"/><ellipse cx="23.57" cy="25.066" rx="4.64" ry="4.308" fill="#BCBA6D"/><path fill-rule="evenodd" clip-rule="evenodd" d="M34.534 18.793c-2.277-4.874-9.09-6.32-12.723-6.32-2.09 0-4.583 1.35-5.872 2.393-.46.257-.934.542-1.418.856-4.399 4-4.747 10.856-2.578 15.498 2.277 4.874 8.501 6.108 12.135 6.108 1.702 0 4.259-.683 5.628-1.58a14.376 14.376 0 0 0 2.25-1.457c4.398-4 4.747-10.856 2.578-15.498zm-14.59 16.794c5.393 1.104 12.187-1.14 13.756-5.628 1.25-3.582 1.772-9.57-3.338-13.95-1.887-1.354-5.294-2.278-8.173-2.262-4.074.635-8.188 2.803-9.412 6.307-1.251 3.582-1.773 9.57 3.337 13.95 1.015.728 2.358 1.254 3.83 1.583z" fill="#000"/><path d="M17.38 18.309l-.028.018-.026.023c-3.178 2.872-3.402 7.746-1.861 11.025.838 1.784 2.395 2.881 4.026 3.53 1.63.648 3.372.863 4.654.863.63 0 1.397-.124 2.121-.323.715-.197 1.423-.475 1.94-.807a10.271 10.271 0 0 0 1.586-1.024l.012-.009.01-.01c3.18-2.872 3.404-7.746 1.862-11.025-.841-1.791-2.506-2.922-4.228-3.602a13.89 13.89 0 0 0-4.854-.936c-.796 0-1.64.253-2.384.584a8.98 8.98 0 0 0-1.867 1.114c-.313.174-.634.367-.963.579zm12.955 9.893c-.48 1.367-1.785 2.443-3.48 3.088-1.685.642-3.688.828-5.451.47-.965-.215-1.82-.552-2.451-.999-3.294-2.816-2.974-6.664-2.147-9.018.379-1.077 1.213-1.974 2.316-2.66 1.093-.681 2.426-1.14 3.764-1.35 1.893-.004 4.103.603 5.303 1.45 3.293 2.817 2.974 6.665 2.146 9.019z" fill="#000" stroke="#000" stroke-width=".834"/><path d="M25.272 28.099a5.36 5.36 0 0 1-2.83.24c-.5-.109-.931-.278-1.244-.493-1.676-1.416-1.521-3.344-1.09-4.55.184-.515.596-.96 1.165-1.308.56-.342 1.248-.577 1.942-.686.985 0 2.121.313 2.726.729 1.676 1.415 1.521 3.344 1.09 4.55-.232.648-.874 1.187-1.759 1.518zm.887 1.07c.295-.152.588-.336.876-.558l.012-.009.011-.01c1.792-1.592 1.907-4.275 1.049-6.07-.483-1.012-1.431-1.636-2.381-2.005a7.78 7.78 0 0 0-2.682-.508c-.465 0-.947.145-1.36.325-.402.176-.769.4-1.034.605-.168.092-.34.194-.515.305l-.029.018-.025.023c-1.792 1.592-1.908 4.274-1.05 6.07.481 1.005 1.368 1.612 2.273 1.966.905.353 1.867.47 2.575.47.36 0 .79-.07 1.191-.178.391-.105.79-.257 1.089-.445z" fill="#000" stroke="#000" stroke-width=".834"/><path d="M32.826 10.734c1.2-.045 4.045-.851 5.538-3.813.022-.043 1.45-2.648 1.178-2.545-.65.195-1.985.66-2.29.859-.305.199-3.078 3.75-4.426 5.5z" stroke="#000" stroke-width="2.5"/><path d="M23.655 24.455L36.993 3.193c.828-.995 1.42-1.388 1.619-1.16.198.227.714.828 0 1.802-1.157 1.579-10.337 14.315-14.545 20.62-.553.296-1.03.924-.412 0z" fill="#000" stroke="#000" stroke-width="1.422"/><mask id="a" fill="#fff"><path d="M33.678 8.33l-.331-1.823c-.006-.022-.166-.497-.504-.3-.105.06-.26.325-.238.566.019.193.306 2.217.348 2.954.03.062.412-.752.725-1.398z"/></mask><path d="M33.678 8.33l-.331-1.823c-.006-.022-.166-.497-.504-.3-.105.06-.26.325-.238.566.019.193.306 2.217.348 2.954.03.062.412-.752.725-1.398z" fill="#000"/><path d="M33.678 8.33l1.18-.243.108.588-.24.495-1.048-.84zm-.331-1.823l1.15-.382.017.069.013.07-1.18.243zm-.504-.3l.568 1.374-.568-1.375zm-.238.566l-1.202.084 1.202-.084zm.348 2.954l-1.035.699-.152-.323-.02-.365 1.207-.01zm-.455-1.155l-.332-1.823 2.361-.485.332 1.823-2.361.485zm-.301-1.683a1.55 1.55 0 0 0 .083.237.976.976 0 0 0 .595.514.697.697 0 0 0 .536-.059l-1.137-2.75a1.25 1.25 0 0 1 .978-.136c.345.095.6.317.766.51.161.19.267.384.328.515.053.11.111.254.15.405l-2.299.764zm1.214.692a.844.844 0 0 0 .243-.209.652.652 0 0 0 .076-.124 1.06 1.06 0 0 0 .078-.558l-2.405.167c-.054-.561.1-1.008.219-1.26.108-.23.317-.571.652-.766l1.137 2.75zm.397-.891l.012.09.036.281c.03.228.07.526.11.842.078.604.17 1.365.196 1.813l-2.417.022c-.016-.29-.089-.909-.17-1.55-.072-.558-.16-1.197-.172-1.331l2.405-.167zm.18 2.339c-.183-.391-.52-.724-.95-.795a.964.964 0 0 0-.66.13c-.177.107-.282.247-.289.256-.049.062-.07.105-.053.074a5.82 5.82 0 0 0 .134-.257c.133-.266.296-.609.461-.948l2.094 1.681c-.148.306-.333.694-.476.98-.07.14-.147.29-.215.407a2.096 2.096 0 0 1-.163.246c-.021.027-.137.179-.323.291a.981.981 0 0 1-.672.133c-.432-.071-.773-.406-.958-.801l2.07-1.397z" fill="#000" mask="url(#a)"/><circle opacity=".5" cx="23.738" cy="24.9" r="1.491" fill="#ED982A"/><path d="M23.075 25.232c-.335-.263-.119-2.19.196-2.32.315-.13 2.669 1.49 2.787 1.823.063.179-1.195.93-2.154.994-.445-.296-.706-.401-.83-.497z" fill="#000"/><path d="M32.999 10.673c-.548-.992-1.065-3.662 1.498-6.235.037-.037 2.235-2.393 2.255-2.125.107.615.253 1.908.182 2.246-.07.338-2.652 4.217-3.935 6.114z" fill="#fff" stroke="#000" stroke-width="2.5"/><path d="M36.9 11.101c.27.196.712-.003.925-.162.267-.2 3.058-2.577 4.153-4.079 1.096-1.501-.67-.827-.836-.523-.166.303-3.356 3.695-3.704 3.939-.275.192-.69.669-.539.825zM41.046 4.426c-.18-.006-.361-.227-.096-.581.33-.443.358-.472.874-1.006 2.067-2.136 1.889-.875.958 0-.49.461-.617.6-1.052 1.151-.127.162-.471.443-.684.436zM30.62 8.059c-.167.065-.422-.066-.319-.496.129-.538.142-.575.405-1.27 1.053-2.78 1.388-1.551.88-.379-.267.618-.33.796-.51 1.474-.054.199-.259.593-.457.67z" fill="#000"/></svg>