<svg width="48" height="48" viewBox="0 0 48 48" fill="none" xmlns="http://www.w3.org/2000/svg"><ellipse cx="23.52" cy="27.78" rx="11.57" ry="11.549" fill="#E2DE69"/><path d="M22.889 25.768c0 1.8.332 17.554.99 17.554.657 0 .206-4.486.163-6.633-.054-2.684.82-10.56.82-10.92 0-1.019-1.973-1.517-1.973 0z" fill="#000"/><path d="M24.24 24.618c-1.136-.451-11.189-4.095-11.422-3.48-.233.615 2.756 1.319 4.125 1.817 1.712.623 6.37 3.417 6.596 3.507.642.256 1.656-1.464.7-1.844z" fill="#000"/><path d="M24.125 24.618c1.136-.451 11.188-4.095 11.421-3.48.234.615-2.756 1.319-4.125 1.817-1.711.623-6.369 3.417-6.596 3.507-.642.256-1.656-1.464-.7-1.844zM13.934 22.975c-.146-1.261-1.314-3.418-4.816-1.957-2.627 1.044-2.29 2.757-1.751 3 .765.346 1.167 0 1.75-.652.585-.652 2.336-1.826 3.065-.913.73.913.73 1.435.438 1.957-.233.417.779-.783 1.314-1.435zM28.472 11.059c1.168.498 3.648.517 4.217-3.39.472-2.906-1.188-3.457-1.68-3.09-.7.522-.612 1.06-.353 1.915.259.856.358 3.032-.815 3.237-1.173.205-1.625-.055-1.924-.581-.239-.42.27 1.097.555 1.909zM18.988 11.273c-1.025-.013-2.444.271-3.064-3.649-.51-2.915 1.113-3.44 1.603-3.065.696.533.618 1.07.377 1.922-.242.852-.305 3.028.85 3.252 1.157.224 1.597-.03 1.882-.551.229-.417-1.38 1.283-1.648 2.09z" fill="#000"/><path d="M32.778 22.975c.153-1.261 1.376-3.418 5.045-1.957 2.752 1.044 2.399 2.757 1.835 3-.802.346-1.223 0-1.835-.652-.611-.652-2.446-1.826-3.21-.913-.765.913-.765 1.435-.459 1.957.245.417-.815-.783-1.376-1.435zM32.777 38.236l.973-1.627c.378-.217 1.395-.456 2.433.325 1.298.976 2.596 3.254 2.109 4.555-.487 1.301-1.622.976-1.947 0-.324-.976.163-3.741-2.27-3.579-.78 0-1.19.217-1.298.326zM34.43 29.971l.973-1.627c.378-.216 1.395-.455 2.433.326 1.298.976 2.595 3.253 2.109 4.554-.487 1.302-1.623.976-1.947 0-.324-.976.162-3.74-2.27-3.578-.78 0-1.19.217-1.299.325zM14.925 38.236l-.973-1.627c-.379-.217-1.395-.456-2.433.325-1.298.976-2.596 3.254-2.109 4.555.487 1.301 1.622.976 1.947 0 .324-.976-.163-3.741 2.27-3.579.78 0 1.19.217 1.298.326zM12.61 29.971l-.974-1.627c-.378-.216-1.395-.455-2.433.326-1.298.976-2.595 3.253-2.109 4.554.487 1.302 1.622.976 1.947 0 .324-.976-.163-3.741 2.27-3.578.78 0 1.19.217 1.298.325zM25.65 13.8c-.59-.33-.63-1.059-.141-1.462.185-.671 1.459-.429 1.581.163.308.661-.52 1.782-1.44 1.3zM21.025 13.8c-.59-.33-.63-1.059-.141-1.462.185-.671 1.459-.429 1.581.163.308.661-.52 1.782-1.44 1.3z" fill="#000"/><path fill-rule="evenodd" clip-rule="evenodd" d="M17.576 16.129c0-1.995.263-5.32 2.63-7.314 2.957-2.494 7.393-.333 7.886.166.05.05.107.1.172.156.58.502 1.718 1.49 2.457 7.324.395 2.527 2.246 4.378 3.122 4.987 1.534.776 3.812 4.621.657 13.797-3.779 10.992-11.321 8.915-13.622 7.918-2.3-.998-9.874-4.593-9.217-16.23.263-4.787 1.174-6.482 2.3-7.147.175-.103.36-.208.552-.316 1.384-.784 3.063-1.734 3.063-3.341zm.856.22c-.01-1.88-.024-4.664 1.985-6.415 2.678-2.335 6 .194 6.446.661l.06.062c.455.465 1.212 1.238 1.924 7.046.357 2.366 2.677 4.222 3.47 4.793 1.39.727 2.06 5.9.957 11.421-1.85 9.256-9.335 9.06-11.418 8.126-2.083-.934-9.142-4.354-8.547-15.25.239-4.482 1.46-5.492 2.48-6.115 1.304-.796 2.644-2.255 2.644-3.967v-.363z" fill="#000"/><path d="M33.61 14.687c-.231-.398.151-.967.428-1.233.347-.332 2.795-2.72 5.218-3.982 2.423-1.263 1.635.646 1.157.826-.478.18-5.057 3.345-5.485 3.781-.338.344-1.121.835-1.319.608zM14.062 14.687c.23-.398-.152-.967-.43-1.233-.346-.332-2.794-2.72-5.217-3.982-2.423-1.263-1.635.646-1.157.826.478.18 5.057 3.345 5.485 3.781.338.344 1.121.835 1.319.608zM32.495 13.03c-.238-.077-.562-.471-.35-.887.265-.52.29-.553.763-1.136 1.896-2.33 2.147-.555 1.26.369-.467.486-.582.64-.941 1.279-.106.188-.45.467-.732.375zM15.177 13.03c.237-.077.561-.471.35-.887-.266-.52-.29-.553-.764-1.136-1.896-2.33-2.147-.555-1.26.369.467.486.582.64.941 1.279.106.188.45.467.733.375zM38.641 14.81c.164.188.238.692-.158.94-.496.309-.534.323-1.24.578-2.827 1.018-2.125-.632-.889-.965.651-.176.829-.249 1.466-.61.188-.107.627-.168.821.056zM9.027 14.81c-.164.188-.238.692.158.94.496.309.534.323 1.24.578 2.827 1.018 2.125-.632.889-.965-.651-.176-.829-.249-1.466-.61-.188-.107-.627-.168-.821.056z" fill="#000"/></svg>