<svg width="48" height="48" viewBox="0 0 48 48" fill="none" xmlns="http://www.w3.org/2000/svg"><path d="M17.366 38.997c-1.75-.126-.382-2.164-.508-3.55-.42-.538-.776-.596-1.358-1.595.028-.014.054.001.18-.096-.037-.017 1.494 1.583 1.08.628-1.704-1.787-2.9-4.688-2.557-7.505l-.002.016.002-.018v.003c.01-.068.004-.036.022-.167l-.003.018c.042-.25.011-.394.193-1.295.003-.007-.001.008 0 0 9.92-22.105 32.846 7.558 11.489 9.374-3.271 1.213-3.441-.535-7.132 3.42-.329.125-.797.821-1.406.767z" fill="#E2DE69"/><path d="M17.621 33.786c-.02-.01-.017-.048-.011-.067.017-.046.078-.013.059.034-.006.016-.023.036-.04.036-.003-.001-.006-.001-.008-.003z" fill="#000"/><path d="M35.277 24.31c-4.65-21.793-33.56-5.297-19.428 10.412.194.324-1.937 7.189-.08 5.545 2.085.228 4.688-3.33 6.477-4.622 7.482-.037 13.778-1.768 13.031-11.335zM33.572 27c-.303 5.119-5.231 7.248-9.14 7.163h.008-.072.03c-3.376-.844-4.938 2.833-7.968 4.266.342-1.043 1.085-2.01 1.143-3.429.424.053.638-.182.149-.947C3.858 19 33.572 6.43 33.572 27z" fill="#000"/><path d="M15.402 40.55a.247.247 0 0 1-.207-.106.35.35 0 0 1-.021-.363.268.268 0 0 1 .16-.128h.006l.009-.003a.637.637 0 0 0 .048-.019.65.65 0 0 1 .102-.073c.072-.042.152-.072.227-.109l-.036.019c.053-.026.105-.05.158-.074.042-.025.084-.051.123-.079.063-.04.125-.083.188-.12a.62.62 0 0 1 .15-.112c.1-.054.21-.086.32-.046.053.02.096.052.13.094a.536.536 0 0 1 .287.086.797.797 0 0 1-.074.289 1.022 1.022 0 0 1-.266.36c-.072.064-.16.099-.243.138-.09.043-.18.085-.271.123-.111.046-.226.086-.339.125a1.295 1.295 0 0 1-.231.06c-.014.003-.027.003-.04.003a.314.314 0 0 1-.18-.064zM21.764 26.796c-.612-2.903 2.886-2.912 3.41-5.539.073-1.725-2.332-2.7-3.307-.09-.178-.012.082 2.424-.752 1.23-.569-8.047 10.564-2.65 2.304 3.41-.11.208-.108.119-.117.572l-.001-.089c.161.761-.91 2.208-1.537.506zM43.393 19.834c-.97-.212-.731-2.941-3.814-3.743-1.029-1.317 1.906-.976 2.482-.23.998.66 2.33 3.028 1.331 3.973h.001zM44.352 17.244h.013c-.8-.133-1.058-1.65-2.49-2.002-1.083-.732.41-1.221 1.079-.726.769.35 2.209 2.043 1.398 2.728z" fill="#000"/><path d="M42.602 23.854c-.156-2.768-1.918-6.116-4.674-4.723-2.116-18.1-24.651-14.413-27.876.972-.508-.108-1.375-.253-2.023.395-4.881.496-3.491 12.553 1.52 10.92 0 .006.527.439 1.124-.538.65.814-.54-9.342.379-10.45 2.444-10.008 13.433-14.749 20.959-9.7 5.591 4.65 4.287 12.495 4.99 19.352.256.072.467.556 1.815.016 2.323.055 3.956-3.272 3.786-6.244zM8.72 30.5c-.51.05-1.353-.83-1.838-1.724l.044.07c-1.318-2.072-1.955-5.938.914-7.5-.002 2.175.313 6.239 1.262 9.13-.15.022-.004.004-.382.024zm1.316-.034l-.027.016c-.773-2.784-1.16-6.013-1.257-9.255.147-.04-.077-.04 1.164-.283-.442 3.06-.227 6.182.52 9.444-.09-.008-.15-.01-.4.078zm28.3-1.326a.47.47 0 0 1-.01.04c-.197 0-.254.004-.793 0 .049-.224.064-.29.153-.728-.002.01-.005.019-.006.03l.015-.072s0-.002.002-.003c.45-2.52.766-5.614.357-8.464.093-.018.402-.096.813-.114l.006.134v-.07c-.17 2.59-.26 5.513-.43 8.456v-.005c-.026.27-.056.535-.108.796zm3.366-4.189c-.157 1.584-.732 3.75-2.484 4.081.212-2.932.541-5.983.522-9.271.977.522 2.276 2.728 1.962 5.19zM8.707 35.356c-.967.67-4.857-3.714-3.113-3.509.387.706.83 1.33 1.633 1.799.42.316 2.48.996 1.48 1.71zM7.015 36.324c-.404.02-2.382-1.491-1.3-1.721.28.33 3.262 1.599 1.3 1.72zM27.971 36.735c-.253.032-.417-.515-.028-.57l-.03.003c4.184-.28 4.229-1.353 6.582-2.92-.234 2.439-4.852 3.66-6.524 3.487z" fill="#000"/><path d="M22.504 31.433c.591 0 1.07-.568 1.07-1.269 0-.7-.479-1.268-1.07-1.268-.591 0-1.07.568-1.07 1.268 0 .7.479 1.268 1.07 1.268z" fill="#000"/></svg>