<svg width="90" height="50" viewBox="0 0 90 50" fill="none" xmlns="http://www.w3.org/2000/svg"><g opacity=".4"><path opacity=".4" d="M44.43 49.086a4.906 4.906 0 0 1-3.664-1.448 5.005 5.005 0 0 1-1.339-3.746v-24.33c0-1.587.455-2.806 1.39-3.746a4.906 4.906 0 0 1 3.663-1.448c3.448 0 5.343 1.842 5.343 5.181v24.356c0 1.46-.543 2.755-1.554 3.759a5.37 5.37 0 0 1-3.84 1.434v-.012zm-12.127 0a4.907 4.907 0 0 1-3.65-1.448 5.094 5.094 0 0 1-1.302-3.746V6.381c0-1.587.455-2.819 1.377-3.746a4.906 4.906 0 0 1 3.663-1.448c3.41 0 5.356 1.892 5.356 5.194v37.511a5.148 5.148 0 0 1-1.579 3.759 5.4 5.4 0 0 1-3.852 1.435h-.013zM44.39 12.933c-1.692 0-3.158-.622-4.37-1.84a6.012 6.012 0 0 1-1.832-4.382c0-1.701.62-3.174 1.832-4.393A5.998 5.998 0 0 1 44.39.476c1.68 0 3.158.622 4.358 1.842a6.012 6.012 0 0 1 1.832 4.38c0 1.69-.607 3.175-1.82 4.394a5.957 5.957 0 0 1-4.37 1.841z" fill="url(#paint0_linear)"/><path opacity=".4" d="M44.39 1.314c1.453 0 2.716.534 3.777 1.588a5.191 5.191 0 0 1 1.579 3.81c0 1.46-.53 2.73-1.579 3.783-1.061 1.067-2.324 1.6-3.79 1.6-1.465 0-2.715-.533-3.764-1.6a5.175 5.175 0 0 1-1.591-3.797c0-1.46.53-2.73 1.591-3.796a5.178 5.178 0 0 1 3.777-1.588zm-12 .724c2.918 0 4.522 1.448 4.522 4.343v37.511c0 1.308-.505 2.35-1.339 3.15-.808.8-1.97 1.206-3.259 1.206-1.288 0-2.273-.407-3.07-1.207-.795-.8-1.047-1.84-1.047-3.149V6.381c0-1.295.328-2.35 1.124-3.15.795-.8 1.768-1.193 3.056-1.193h.013zm12.101 13.168c2.918 0 4.484 1.46 4.484 4.356v24.33c0 1.308-.48 2.35-1.3 3.15-.809.8-1.946 1.206-3.234 1.206-1.289 0-2.287-.407-3.082-1.207-.796-.8-1.1-1.84-1.1-3.149v-24.33c0-1.308.354-2.35 1.15-3.15a4.126 4.126 0 0 1 3.082-1.206zm-.1-15.568a6.835 6.835 0 0 0-4.965 2.083 6.8 6.8 0 0 0-1.364 1.866C37.178 1.517 35.169.35 32.378.35c-1.718 0-3.108.559-4.245 1.69-1.073 1.079-1.616 2.539-1.616 4.342v37.524c0 1.18.164 2.933 1.553 4.33 1.137 1.143 2.526 1.702 4.244 1.702 1.769 0 3.335-.61 4.434-1.69a5.976 5.976 0 0 0 1.832-4.342V10.699c.252.342.53.685.846 1.003a6.762 6.762 0 0 0 3.663 1.968c-2.766.546-4.686 3.073-4.51 5.892v24.33c0 1.854.518 3.276 1.592 4.343a5.782 5.782 0 0 0 4.27 1.702c1.768 0 3.284-.585 4.408-1.69a5.953 5.953 0 0 0 1.806-4.342V19.549c0-3.301-1.768-5.435-4.787-5.917a6.925 6.925 0 0 0 3.486-1.943 6.857 6.857 0 0 0 2.072-4.99c0-1.918-.695-3.607-2.072-4.978A6.835 6.835 0 0 0 44.39-.362z" fill="#030202"/></g><g opacity=".4"><path opacity=".4" d="M52.03 49.162a5 5 0 0 1-3.688-1.435 5.056 5.056 0 0 1-1.427-3.708V29.467c0-4.114 1.427-7.62 4.232-10.413a14.22 14.22 0 0 1 10.383-4.216c2.753-.076 5.04 2.12 5.115 4.89v.24c0 2.172-.884 4.826-5.178 5.207-1.264.114-2.274.558-3.082 1.346-.796.762-1.175 1.727-1.175 2.946v14.552c0 1.524-.505 2.768-1.478 3.72a5.12 5.12 0 0 1-3.701 1.423z" fill="url(#paint1_linear)"/><path opacity=".4" d="M61.531 15.676c2.286-.076 4.194 1.74 4.27 4.038v.254c0 2.667-1.466 4.102-4.396 4.369a5.798 5.798 0 0 0-3.6 1.574 4.755 4.755 0 0 0-1.44 3.556v14.552c0 1.283-.405 2.324-1.213 3.111-.808.787-1.844 1.194-3.133 1.194-1.288 0-2.299-.407-3.082-1.194a4.19 4.19 0 0 1-1.187-3.11V29.466c0-3.899 1.326-7.162 3.992-9.816a13.382 13.382 0 0 1 9.789-3.975zm0-1.689c-4.307 0-7.996 1.511-10.977 4.47a14.998 14.998 0 0 0-4.471 11.01v14.552c0 1.74.555 3.187 1.667 4.318A5.846 5.846 0 0 0 52.032 50c1.718 0 3.158-.559 4.295-1.65a5.808 5.808 0 0 0 1.718-4.318V29.454c0-1.003.29-1.74.91-2.35.681-.647 1.528-1.015 2.601-1.104 3.764-.33 5.937-2.54 5.937-6.044.076-3.213-2.45-5.893-5.659-5.969h-.303z" fill="#030202"/></g><g opacity=".4"><path opacity=".4" d="M5.99 48.984a5.035 5.035 0 0 1-3.726-1.435 5.074 5.074 0 0 1-1.44-3.733V15.892c0-4.19 1.427-7.746 4.244-10.565a14.311 14.311 0 0 1 10.51-4.267c4.117 0 7.642 1.448 10.458 4.305a14.518 14.518 0 0 1 4.232 10.54v.444c0 1.524-.48 2.794-1.428 3.759a4.964 4.964 0 0 1-3.726 1.486 5.036 5.036 0 0 1-3.713-1.511 5.102 5.102 0 0 1-1.516-3.734v-.457c0-1.244-.392-2.273-1.226-3.124-.833-.863-1.844-1.27-3.082-1.27-1.238 0-2.248.407-3.107 1.27-.859.864-1.263 1.88-1.263 3.124v8.42h14.172c1.516 0 2.767.507 3.714 1.485a5.233 5.233 0 0 1 1.44 3.771 5.074 5.074 0 0 1-1.44 3.734 5.019 5.019 0 0 1-3.713 1.447H11.194v9.067c0 1.524-.505 2.794-1.478 3.746a5.126 5.126 0 0 1-3.726 1.422z" fill="url(#paint2_linear)"/><path opacity=".4" d="M15.589 1.898c3.903 0 7.187 1.36 9.852 4.064a13.622 13.622 0 0 1 3.992 9.93v.457c0 1.296-.404 2.35-1.187 3.175a4.127 4.127 0 0 1-3.133 1.232c-1.25 0-2.274-.42-3.12-1.27-.846-.838-1.263-1.892-1.263-3.137v-.457c.063-2.832-2.173-5.18-4.99-5.244h-.164a5.02 5.02 0 0 0-3.7 1.524 5.073 5.073 0 0 0-1.517 3.72v9.27h15.02a4.154 4.154 0 0 1 3.12 1.219c.795.825 1.187 1.88 1.187 3.175 0 1.307-.392 2.349-1.188 3.149-.796.8-1.831 1.194-3.12 1.194H10.36v9.904c0 1.308-.404 2.35-1.225 3.15-.821.8-1.87 1.193-3.158 1.193-1.288 0-2.324-.394-3.12-1.194a4.258 4.258 0 0 1-1.2-3.136V15.892c0-3.974 1.34-7.289 4.004-9.968a13.474 13.474 0 0 1 9.916-4.026h.013zM15.576.222A15.139 15.139 0 0 0 4.473 4.73 15.27 15.27 0 0 0 .001 15.905v27.91c0 1.753.556 3.2 1.68 4.318a5.818 5.818 0 0 0 4.308 1.702 5.819 5.819 0 0 0 6.063-5.575 2.748 2.748 0 0 0 0-.457v-8.216H25.39c1.743 0 3.183-.571 4.295-1.689a5.91 5.91 0 0 0 1.692-4.342c.14-3.226-2.35-5.956-5.545-6.096a2.57 2.57 0 0 0-.442 0H12.039v-7.568c0-1.016.329-1.829 1.01-2.54a3.315 3.315 0 0 1 2.527-1.015c1.01 0 1.806.317 2.476 1.015.682.699 1.01 1.511 1.01 2.54v.457c0 1.702.581 3.175 1.744 4.33a5.844 5.844 0 0 0 4.307 1.753c3.196.127 5.886-2.375 6-5.587.013-.166 0-.343 0-.508v-.445c0-4.368-1.516-8.127-4.484-11.124A14.952 14.952 0 0 0 15.576.222z" fill="#030202"/></g><g opacity=".4"><path opacity=".4" d="M74.426 48.92c-4.118 0-7.617-1.422-10.396-4.215a14.303 14.303 0 0 1-4.194-10.451V12.222c0-1.51.48-2.755 1.415-3.733.948-.978 2.186-1.473 3.689-1.473 1.503 0 2.753.508 3.713 1.473a5.066 5.066 0 0 1 1.453 3.733v2.54h13.756c1.49 0 2.728.482 3.676 1.435a5.056 5.056 0 0 1 1.427 3.708c0 3.352-1.819 5.193-5.103 5.193H70.106v9.143c0 1.232.417 2.248 1.263 3.086.834.85 1.844 1.27 3.07 1.27a4.216 4.216 0 0 0 4.257-4.178v-.749c0-1.473.505-2.705 1.49-3.683a5.055 5.055 0 0 1 3.663-1.447c2.754-.076 5.04 2.12 5.116 4.889v.811c0 4.102-1.415 7.607-4.194 10.426A14.023 14.023 0 0 1 74.44 48.92h-.013z" fill="url(#paint3_linear)"/><path opacity=".4" d="M64.942 7.867c1.263 0 2.311.406 3.12 1.219.808.8 1.212 1.854 1.212 3.136v3.39h14.59c1.263 0 2.299.394 3.082 1.182.796.8 1.187 1.828 1.187 3.11 0 2.909-1.427 4.356-4.27 4.356H69.275v9.981c0 1.46.505 2.68 1.503 3.683a4.972 4.972 0 0 0 3.664 1.51c2.791.026 5.065-2.234 5.09-5.04v-.724c0-1.232.417-2.26 1.238-3.073a4.215 4.215 0 0 1 3.095-1.22c2.299-.063 4.206 1.753 4.27 4.064v.8c0 3.886-1.327 7.175-3.954 9.829a13.127 13.127 0 0 1-9.752 4.013c-3.903 0-7.175-1.334-9.815-3.975a13.403 13.403 0 0 1-3.94-9.867V12.222c0-1.282.39-2.324 1.174-3.136a4.117 4.117 0 0 1 3.095-1.22zm0-1.69c-3.184-.1-5.836 2.413-5.937 5.6v22.465c0 4.38 1.49 8.1 4.433 11.047a14.949 14.949 0 0 0 10.99 4.47c4.32 0 7.996-1.511 10.939-4.495A15.111 15.111 0 0 0 89.8 34.24v-.571c.088-3.2-2.413-5.88-5.609-5.968h-.328c-3.247-.077-5.937 2.527-6.013 5.79v.75c0 1.016-.316 1.816-.985 2.515-.657.673-1.44.99-2.438.99-1.01 0-1.781-.317-2.476-1.016a3.333 3.333 0 0 1-1.01-2.489V25.95h12.922c3.777 0 5.937-2.21 5.937-6.044a5.872 5.872 0 0 0-1.668-4.305 5.829 5.829 0 0 0-4.27-1.676H70.955v-1.702c.089-3.25-2.45-5.955-5.684-6.044h-.328z" fill="#080404"/></g><path d="M44.72 48.159a4.753 4.753 0 0 1-3.55-1.397c-.885-.889-1.301-2.032-1.301-3.632V18.787c0-1.523.442-2.717 1.351-3.619a4.753 4.753 0 0 1 3.55-1.396c3.334 0 5.166 1.777 5.166 5.015v24.356c.05 2.73-2.122 4.99-4.838 5.041-.126 0-.252 0-.379-.025zm-12.127 0a4.725 4.725 0 0 1-3.537-1.397c-.859-.864-1.25-2.02-1.25-3.632V5.62c0-1.55.429-2.731 1.326-3.633A4.725 4.725 0 0 1 32.669.591c3.347 0 5.191 1.777 5.191 5.028V43.13a4.973 4.973 0 0 1-1.516 3.632 5.226 5.226 0 0 1-3.739 1.397h-.012zm12.076-36.153c-1.642 0-3.07-.61-4.244-1.79a5.808 5.808 0 0 1-1.782-4.28c0-1.65.594-3.085 1.769-4.266a5.783 5.783 0 0 1 4.257-1.778c1.642 0 3.07.597 4.257 1.778 1.174 1.18 1.768 2.628 1.768 4.267 0 1.65-.594 3.098-1.769 4.279a5.783 5.783 0 0 1-4.256 1.778v.012z" fill="url(#paint4_linear)"/><path d="M44.668.552a5.207 5.207 0 0 1 3.79 1.588c1.047 1.066 1.565 2.324 1.565 3.81 0 1.485-.518 2.73-1.579 3.783a5.121 5.121 0 0 1-3.776 1.6 5.121 5.121 0 0 1-3.777-1.6c-1.049-1.054-1.58-2.323-1.58-3.796 0-1.473.531-2.73 1.58-3.797A5.178 5.178 0 0 1 44.668.552zm-12 .712c2.93 0 4.522 1.46 4.522 4.355V43.13c0 1.295-.505 2.35-1.327 3.15-.82.8-1.97 1.206-3.258 1.206-1.302 0-2.274-.407-3.07-1.207-.796-.8-1.061-1.84-1.061-3.149V5.62c0-1.296.328-2.35 1.137-3.15.796-.8 1.768-1.206 3.057-1.206zm12.1 13.18c2.931 0 4.498 1.448 4.498 4.343v24.356c0 1.295-.493 2.35-1.314 3.15-.809.8-1.945 1.206-3.234 1.206-1.288 0-2.274-.407-3.082-1.207-.796-.8-1.086-1.841-1.086-3.15V18.788c0-1.295.34-2.336 1.137-3.136a4.126 4.126 0 0 1 3.082-1.207zm-.1-15.238c-1.82 0-3.41.673-4.725 1.981a6.754 6.754 0 0 0-1.629 2.578c-.632-2.463-2.615-3.847-5.646-3.847-1.642 0-2.944.52-4.017 1.6a5.47 5.47 0 0 0-1.516 4.101V43.13c0 1.143.152 2.794 1.453 4.102a5.363 5.363 0 0 0 4.017 1.6 5.953 5.953 0 0 0 4.193-1.587c1.137-1.105 1.73-2.54 1.73-4.115V8.667c.33.736.81 1.41 1.415 2.031a6.442 6.442 0 0 0 4.725 1.981c1.819 0 3.41-.673 4.724-1.98a6.51 6.51 0 0 0 1.97-4.75c0-1.841-.657-3.428-1.97-4.749a6.434 6.434 0 0 0-4.724-1.994zm.1 13.893c-1.616 0-2.968.533-4.029 1.6-1.01 1.015-1.54 2.4-1.54 4.101v24.33c0 1.765.492 3.099 1.49 4.102 1.048 1.066 2.4 1.6 4.03 1.6 3.081.165 5.709-2.21 5.873-5.295.013-.127.013-.254.013-.394V18.787c0-3.631-2.123-5.714-5.836-5.714v.025z" fill="#fff"/><path d="M74.706 47.981c-4.068 0-7.516-1.397-10.27-4.152-2.754-2.756-4.143-6.248-4.143-10.35V11.462c0-1.46.455-2.667 1.364-3.62a4.761 4.761 0 0 1 3.575-1.396c1.44 0 2.653.47 3.587 1.396.935.953 1.415 2.16 1.415 3.632v2.718h13.907c1.453 0 2.653.457 3.563 1.384a4.886 4.886 0 0 1 1.402 3.568c0 3.289-1.718 5.029-4.952 5.029h-13.92v9.308c0 1.27.417 2.323 1.301 3.212a4.228 4.228 0 0 0 3.183 1.295c2.4.038 4.37-1.892 4.409-4.304v-.762c0-1.422.492-2.616 1.452-3.556.948-.94 2.148-1.397 3.55-1.397 2.665-.063 4.875 2.058 4.939 4.737v.786c0 4.064-1.39 7.518-4.143 10.311a13.77 13.77 0 0 1-10.22 4.178z" fill="url(#paint5_linear)"/><path d="M65.233 7.105c1.263 0 2.311.406 3.12 1.219.808.813 1.2 1.854 1.2 3.136v3.39h14.59c1.275 0 2.31.395 3.094 1.182.783.8 1.175 1.828 1.175 3.11 0 2.909-1.415 4.357-4.27 4.357h-14.59v9.993c0 1.448.506 2.667 1.516 3.683.986.99 2.21 1.498 3.65 1.498 2.792.026 5.066-2.235 5.091-5.041v-.724c0-1.232.417-2.26 1.251-3.073a4.237 4.237 0 0 1 3.082-1.22c2.286-.075 4.194 1.74 4.27 4.039v.838c0 3.886-1.314 7.162-3.942 9.829a13.115 13.115 0 0 1-9.751 4c-3.916 0-7.175-1.334-9.815-3.975a13.404 13.404 0 0 1-3.94-9.867V11.46c0-1.282.378-2.336 1.174-3.149a4.106 4.106 0 0 1 3.095-1.206zm0-1.346A5.41 5.41 0 0 0 61.19 7.37a5.634 5.634 0 0 0-1.566 4.09v22.018c0 4.293 1.465 7.924 4.345 10.82a14.605 14.605 0 0 0 10.75 4.368 14.459 14.459 0 0 0 10.699-4.407 14.798 14.798 0 0 0 4.345-10.768v-.584c.088-3.022-2.286-5.55-5.305-5.638h-.303c-1.592 0-2.943.533-4.042 1.6a5.427 5.427 0 0 0-1.642 4.038v.584c.063 2.057-1.554 3.784-3.6 3.848h-.152c-1.074 0-1.97-.369-2.703-1.118a3.679 3.679 0 0 1-1.112-2.73v-8.635h13.25c3.563 0 5.61-2.082 5.61-5.701 0-1.651-.531-3.01-1.58-4.064a5.415 5.415 0 0 0-4.042-1.575H70.917V11.46c0-1.65-.543-3.022-1.604-4.101a5.544 5.544 0 0 0-4.068-1.6h-.012z" fill="#fff"/><path d="M6.263 48.057a4.886 4.886 0 0 1-3.6-1.397 4.94 4.94 0 0 1-1.39-3.619v-27.91c0-4.14 1.403-7.658 4.195-10.452C8.234 1.873 11.733.464 15.838.464c4.093.012 7.579 1.434 10.358 4.254a14.325 14.325 0 0 1 4.181 10.412v.457c.126 2.68-1.933 4.953-4.585 5.08a2.149 2.149 0 0 1-.405 0c-2.715.076-4.976-2.083-5.052-4.826v-.711a4.456 4.456 0 0 0-1.288-3.25 4.25 4.25 0 0 0-3.184-1.321c-1.288 0-2.35.432-3.233 1.32-.885.89-1.314 1.956-1.314 3.251v8.597h14.337c1.465 0 2.678.483 3.6 1.435.922.94 1.39 2.159 1.39 3.632 0 1.485-.468 2.692-1.39 3.619a4.886 4.886 0 0 1-3.6 1.397H11.316v9.244c0 1.473-.48 2.692-1.427 3.62a4.932 4.932 0 0 1-3.626 1.383z" fill="url(#paint6_linear)"/><path d="M15.865 1.137c3.916 0 7.2 1.346 9.853 4.05 2.652 2.705 3.991 6.02 3.991 9.943v.457c0 1.296-.391 2.35-1.187 3.175a4.154 4.154 0 0 1-3.12 1.219c-1.25 0-2.286-.419-3.133-1.257-.833-.838-1.263-1.892-1.263-3.15v-.444c.064-2.832-2.172-5.18-4.99-5.244h-.15c-1.466 0-2.704.508-3.714 1.524-1.01 1.015-1.516 2.247-1.516 3.72v9.27h15.019a4.2 4.2 0 0 1 3.132 1.22c.784.825 1.188 1.878 1.188 3.174 0 1.295-.405 2.349-1.188 3.149-.795.8-1.844 1.194-3.132 1.194H10.648v9.904a4.172 4.172 0 0 1-1.225 3.15c-.82.8-1.87 1.193-3.158 1.193a4.228 4.228 0 0 1-3.132-1.194 4.276 4.276 0 0 1-1.188-3.149v-27.91c0-3.988 1.327-7.29 3.992-9.982 2.665-2.666 5.975-4.012 9.928-4.012zm0-1.346c-4.295 0-7.958 1.485-10.863 4.406C2.072 7.13.606 10.8.606 15.13v27.924c0 1.65.53 3.035 1.58 4.089a5.522 5.522 0 0 0 4.08 1.6c3.018.14 5.582-2.222 5.721-5.257 0-.14.013-.28 0-.432v-8.559h13.668c1.642 0 3.031-.546 4.08-1.6a5.623 5.623 0 0 0 1.579-4.101c0-1.651-.53-3.035-1.567-4.115a5.497 5.497 0 0 0-4.092-1.638H11.987v-7.91c0-1.106.367-2.007 1.125-2.769s1.642-1.13 2.753-1.13a3.767 3.767 0 0 1 3.815 3.733v.622a5.56 5.56 0 0 0 1.642 4.09 5.53 5.53 0 0 0 4.08 1.65c3.02.114 5.558-2.26 5.66-5.295v-.902c0-4.28-1.479-7.936-4.384-10.895A14.61 14.61 0 0 0 15.865-.209z" fill="#fff"/><path d="M52.309 48.222c-1.453 0-2.653-.457-3.562-1.371a4.883 4.883 0 0 1-1.39-3.594V28.705c0-4.064 1.415-7.53 4.194-10.286a13.99 13.99 0 0 1 10.27-4.19c2.665-.064 4.875 2.057 4.938 4.736v.241c0 2.096-.859 4.674-5.014 5.042-1.301.114-2.35.558-3.196 1.384a4.052 4.052 0 0 0-1.225 3.073v14.552c0 1.46-.48 2.667-1.415 3.594a4.915 4.915 0 0 1-3.6 1.371z" fill="url(#paint7_linear)"/><path d="M61.82 14.914a4.163 4.163 0 0 1 4.27 4.064v.228c0 2.654-1.465 4.102-4.396 4.369a5.817 5.817 0 0 0-3.612 1.562 4.697 4.697 0 0 0-1.428 3.555V43.27c0 1.27-.404 2.324-1.212 3.111-.809.787-1.857 1.181-3.133 1.181-1.263 0-2.312-.394-3.095-1.18a4.228 4.228 0 0 1-1.175-3.112V28.705c0-3.898 1.327-7.162 3.98-9.816a13.41 13.41 0 0 1 9.802-3.975zm0-1.346c-4.218 0-7.831 1.46-10.736 4.369A14.663 14.663 0 0 0 46.7 28.705v14.552c0 1.651.531 3.023 1.567 4.064 1.048 1.054 2.4 1.574 4.042 1.574s2.994-.52 4.067-1.562a5.46 5.46 0 0 0 1.617-4.076V28.705c0-1.08.329-1.93 1.01-2.59a4.389 4.389 0 0 1 2.805-1.194c3.625-.318 5.62-2.35 5.62-5.715.077-3.034-2.31-5.561-5.33-5.638h-.277z" fill="#fff"/><defs><linearGradient id="paint0_linear" x1="43.084" y1="14.281" x2="28.414" y2="49.032" gradientUnits="userSpaceOnUse"><stop stop-color="#FAB577"/><stop offset=".09" stop-color="#F9AE71"/><stop offset=".41" stop-color="#F6985F"/><stop offset=".72" stop-color="#F58B55"/><stop offset="1" stop-color="#F48651"/></linearGradient><linearGradient id="paint1_linear" x1="58.665" y1="19.028" x2="46.415" y2="50.083" gradientUnits="userSpaceOnUse"><stop stop-color="#F48B72"/><stop offset=".34" stop-color="#F27764"/><stop offset=".69" stop-color="#F16A5B"/><stop offset="1" stop-color="#F16558"/></linearGradient><linearGradient id="paint2_linear" x1="5.489" y1="44.324" x2="25.1" y2="1.151" gradientUnits="userSpaceOnUse"><stop stop-color="#F48020"/><stop offset=".15" stop-color="#F68E2B"/><stop offset=".45" stop-color="#F9A43C"/><stop offset=".74" stop-color="#FAB146"/><stop offset="1" stop-color="#FBB64A"/></linearGradient><linearGradient id="paint3_linear" x1="77.397" y1="15.663" x2="66.763" y2="45.266" gradientUnits="userSpaceOnUse"><stop stop-color="#F38475"/><stop offset=".35" stop-color="#F16E66"/><stop offset=".69" stop-color="#F0615D"/><stop offset="1" stop-color="#F05C5A"/></linearGradient><linearGradient id="paint4_linear" x1="43.34" y1="13.584" x2="28.772" y2="48.119" gradientUnits="userSpaceOnUse"><stop stop-color="#FAB577"/><stop offset=".09" stop-color="#F9AE71"/><stop offset=".41" stop-color="#F6985F"/><stop offset=".72" stop-color="#F58B55"/><stop offset="1" stop-color="#F48651"/></linearGradient><linearGradient id="paint5_linear" x1="77.632" y1="15.03" x2="67.1" y2="44.367" gradientUnits="userSpaceOnUse"><stop stop-color="#F38475"/><stop offset=".35" stop-color="#F16E66"/><stop offset=".69" stop-color="#F0615D"/><stop offset="1" stop-color="#F05C5A"/></linearGradient><linearGradient id="paint6_linear" x1="5.828" y1="43.437" x2="25.299" y2=".555" gradientUnits="userSpaceOnUse"><stop stop-color="#F48020"/><stop offset=".15" stop-color="#F68E2B"/><stop offset=".45" stop-color="#F9A43C"/><stop offset=".74" stop-color="#FAB146"/><stop offset="1" stop-color="#FBB64A"/></linearGradient><linearGradient id="paint7_linear" x1="58.903" y1="18.367" x2="46.767" y2="49.143" gradientUnits="userSpaceOnUse"><stop stop-color="#F48B72"/><stop offset=".34" stop-color="#F27764"/><stop offset=".69" stop-color="#F16A5B"/><stop offset="1" stop-color="#F16558"/></linearGradient></defs></svg>