<svg width="200" height="50" viewBox="0 0 200 50" fill="none" xmlns="http://www.w3.org/2000/svg"><path d="M25.116 50.203c13.872 0 25.117-11.238 25.117-25.101C50.233 11.238 38.988 0 25.116 0 11.245 0 0 11.238 0 25.102c0 13.863 11.245 25.101 25.116 25.101z" fill="#FDC41B"/><path d="M44.508 41.066c-.364-4.882-2.31-11.37-2.31-11.37 0-1.67-.603-5.373-.603-5.373-.239-5.27-.59-8.735-.59-8.735-.78-4.543-3.178-5.623-3.178-5.623-2.511-.652-4.659 1.557-4.659 1.557-1.796-.59-1.858-1.306-1.858-1.306l-.176-2.033c.891 1.004 2.637.59 2.637.59-1.08-1.13-.427-2.146-.427-2.146-.352-.665-.126-2.096-.126-2.096.59.276 1.143.64 1.633 1.08-.251-.892-1.683-1.908-1.683-1.908-.414-.942 0-1.256 0-1.256.955-.188 1.67 2.26 1.67 2.26 0-1.306-1.13-3.1-1.13-3.1V1.53a24.96 24.96 0 0 0-21.311 1.96c-.05 8.76 4.408 10.48 4.408 10.48-4.245-2.548-3.102-8.785-3.102-8.785-.603 6.438 2.951 8.132 2.951 8.132-3.29-2.422-2.713-8.396-2.713-8.396.126 1.13 1.821 3.326 1.821 3.326-.376 1.393-.653 1.782-.653 1.782.239.54 1.633.213 1.633.213l-.113.716c-.126.54.251.565.251.565l.415.15c-.603.69.175.841.175.841.377-.25.754.176.754.176s-.013.778.653 1.104c.942.477 1.909-.087 3.265-.979 1.331-.903 1.808.54 1.808.54l.779 1.519c.427 1.732-.716 2.033-.716 2.033-.477.125-2.75.602-2.75.602-2.035.126-2.512 1.256-2.512 1.256-.841 1.493-.59 6.4-.59 6.4-.49.766-1.256 1.481-1.256 1.481l-.603.364v.477a3.237 3.237 0 0 0 .892 4.506c.075.05.163.1.239.15.364 1.444 0 4.13 0 4.13-1.382 2.636-5.852 8.246-5.852 8.246a6.035 6.035 0 0 0-1.03 1.004 24.978 24.978 0 0 0 23.433 3.037 7.006 7.006 0 0 0-1.004-1.104s-.176-.364 0-.779c0 0-.113-1.506-.88-3.413-.79-1.908.528-3.452.83-4.443l4.206-9.062s.038.891.515 3.64c0 0 .54 1.443 1.67 5.836 0 0 1.106 2.635 1.884 5.146a25.738 25.738 0 0 0 3.303-3.314zm19.428-6.012V19.052h1.57v16.002h-1.57zm10.549-16.002h1.33l6.657 16.002h-1.683l-2.072-5.007h-7.183l-2.06 5.007H67.79l6.694-16.002zm3.868 9.752l-3.215-7.907-3.266 7.907h6.48zm23.559 6.25h-1.532V28.49c0-1.355-.226-2.372-.653-3.012a2.177 2.177 0 0 0-1.947-.966 3.1 3.1 0 0 0-1.268.25 3.897 3.897 0 0 0-1.105.691 4.713 4.713 0 0 0-1.47 2.435v7.154h-1.544V28.49c0-1.38-.201-2.41-.628-3.037-.415-.627-1.068-.941-1.934-.941-.88 0-1.67.3-2.361.916a5.174 5.174 0 0 0-1.495 2.435v7.191h-1.532V23.32h1.394v2.649a5.539 5.539 0 0 1 1.897-2.096 4.697 4.697 0 0 1 2.6-.753c.991 0 1.782.276 2.373.828.59.552.954 1.28 1.092 2.184 1.093-2.008 2.612-3.012 4.521-3.012.666 0 1.23.125 1.683.351a2.9 2.9 0 0 1 1.105 1.03c.289.438.49.978.615 1.593.126.615.189 1.318.189 2.084v6.877z" fill="#152943"/><path d="M109.595 24.8v10.254h-3.115V19.052h2.412l8.338 10.505v-10.48h3.115v15.977h-2.512L109.595 24.8zm17.355 10.468a4.442 4.442 0 0 1-1.595-.276 3.826 3.826 0 0 1-2.134-1.97 3.59 3.59 0 0 1 .062-3.026 3.561 3.561 0 0 1 1.043-1.204c.439-.327.967-.59 1.595-.779a6.896 6.896 0 0 1 2.021-.276c.528 0 1.043.038 1.545.126s.955.226 1.344.376v-.665c0-.778-.226-1.38-.666-1.807-.439-.414-1.105-.628-1.971-.628a5.17 5.17 0 0 0-1.846.34 8.672 8.672 0 0 0-1.859.99l-.917-1.92c1.507-1.004 3.152-1.506 4.91-1.506 1.696 0 3.014.414 3.956 1.255.942.829 1.407 2.034 1.407 3.615v3.665c0 .314.063.54.176.677.113.139.288.214.552.226v2.573c-.502.1-.954.15-1.331.15-.578 0-1.005-.125-1.319-.376-.314-.25-.502-.59-.577-1.004l-.076-.665a5.153 5.153 0 0 1-1.908 1.581 5.65 5.65 0 0 1-2.412.54v-.012zm.854-2.197c.503 0 1.005-.1 1.457-.276.465-.175.816-.414 1.068-.715.339-.251.502-.54.502-.854v-1.355a7.729 7.729 0 0 0-2.386-.452c-.791 0-1.432.176-1.922.527a1.606 1.606 0 0 0-.163 2.61c.389.34.879.503 1.444.503v.012zm12.91 2.197c-1.205 0-2.135-.377-2.763-1.168-.628-.778-.954-1.932-.954-3.464v-7.392h3.026v6.74c0 1.82.653 2.723 1.96 2.723.59 0 1.155-.175 1.707-.527.553-.351.993-.89 1.344-1.619v-7.317h3.014v8.334c0 .314.05.54.163.677a.806.806 0 0 0 .553.226v2.573a6.49 6.49 0 0 1-1.306.126c-.54 0-.98-.126-1.319-.377-.339-.238-.527-.577-.59-1.004l-.075-.954a5.053 5.053 0 0 1-2.022 1.82 6.16 6.16 0 0 1-2.725.615l-.013-.012zm15.409-.15a4.87 4.87 0 0 1-3.843-1.758 5.922 5.922 0 0 1-1.105-1.908 7.016 7.016 0 0 1-.377-2.31c0-.853.126-1.643.402-2.384a6.441 6.441 0 0 1 1.13-1.933 5.126 5.126 0 0 1 3.969-1.782c.917 0 1.72.214 2.411.628a5.205 5.205 0 0 1 1.708 1.644v-2.071h2.637v11.245a5.17 5.17 0 0 1-1.858 4.105c-.578.477-1.256.84-2.073 1.092a8.835 8.835 0 0 1-2.637.376c-1.281 0-2.361-.2-3.24-.627a6.59 6.59 0 0 1-2.26-1.82l1.632-1.594a5.133 5.133 0 0 0 5.212 1.594c.44-.126.816-.34 1.143-.603.326-.263.59-.627.778-1.041.189-.415.289-.917.289-1.481v-1.494a3.964 3.964 0 0 1-1.645 1.569 4.752 4.752 0 0 1-2.273.552zm1.005-2.41c.339 0 .653-.05.954-.164.59-.2 1.118-.565 1.507-1.054.201-.239.352-.502.452-.753v-2.824c-.276-.69-.69-1.255-1.281-1.67-.59-.413-1.18-.627-1.808-.627-.465 0-.879.1-1.256.301a3.204 3.204 0 0 0-.979.816 4.209 4.209 0 0 0-.829 2.51c0 .904.339 1.783.942 2.448a3.052 3.052 0 0 0 2.31 1.004l-.012.012zm20.093 2.346h-3.014v-6.627c0-.928-.188-1.619-.528-2.058-.339-.44-.841-.665-1.469-.665-.264 0-.552.063-.854.176-.301.125-.59.288-.854.502-.263.213-.515.49-.753.778-.239.288-.377.627-.49 1.004v6.89h-3.014V18.613h3.014v6.815c.439-.753 1.03-1.356 1.758-1.757a5.075 5.075 0 0 1 4.345-.239c.49.264.854.628 1.13 1.055.277.439.453.928.566 1.48.1.553.15 1.13.15 1.72l.013 7.367zm10.046-.615c-.401.189-.904.364-1.481.54a6.062 6.062 0 0 1-1.859.276c-.414 0-.816-.05-1.181-.163-.364-.113-.69-.264-.967-.502a2.502 2.502 0 0 1-.665-.904 3.265 3.265 0 0 1-.251-1.343v-6.777h-1.545v-2.322h1.545v-3.828h3.026v3.828h2.474v2.322h-2.474v5.773c0 .415.113.716.327.879.213.163.49.263.804.263.313 0 .627-.05.916-.15l.729-.276.602 2.384zm2.273 2.912c.44.126.892.2 1.357.226.389.013.766-.176.992-.502a5.5 5.5 0 0 0 .402-.778c.138-.326.289-.753.427-1.255l-4.659-11.798h3.114l3.202 9.2 2.839-9.2h2.838l-4.961 14.157a4.127 4.127 0 0 1-4.031 2.812 5.112 5.112 0 0 1-1.507-.239v-2.61l-.013-.013z" fill="#FDC41A"/></svg>