<svg width="200" height="45" viewBox="0 0 200 45" fill="none" xmlns="http://www.w3.org/2000/svg"><path opacity=".2" d="M47.638.051H7.4C2.987 4.518 0 10.595 0 17.025c0 14.029 13.787 27.882 27.7 27.882 13.912.013 27.7-13.853 27.7-27.882 0-6.43-3.362-12.507-7.762-16.974z" fill="#949494"/><path d="M44.425 9.753c-6.2 0-12.775 4.252-13.125 9.776-.025.352 2.263 1.976 8.5 1.8.925-.026 12.875-1.662 14.4-1.875 1.025-.139 1.2-.101 1.2-.101.038-5.423-3.862-9.6-10.975-9.6z" fill="#BA3731"/><path d="M55.4 18.233c-4.375.818-8.1 1.17-11.288 1.208H42.9c-13.375-.151-16.3-6.052-16.3-6.052 0 .012.337-.063 0 0-2.388-3.75-7.275-6.077-12.15-6.077-5.887 0-11.362 3.397-13.25 8.48-.512.919-1.2 2.19-1.2 3.649 0 .126-.15 15.967 16.962 22.811 3.4 1.674 7.063 2.643 10.738 2.643 13.113 0 26.1-12.306 27.563-25.454h-.138c.087-.403.188-.793.275-1.208z" fill="#FF483F"/><path d="M81.502 13.376c-1.288.529-2.288 1.322-3 2.378-.713 1.057-1.063 2.378-1.063 3.964 0 .365.025.667.063.906.037.239.087.415.137.566.05.15.088.252.138.327a.465.465 0 0 1 .062.201c-.5 0-.95-.05-1.337-.15a2.384 2.384 0 0 1-.975-.491 2.16 2.16 0 0 1-.6-.869c-.138-.364-.2-.805-.2-1.32 0-.642.137-1.284.412-1.9a6.83 6.83 0 0 1 1.15-1.775 11.01 11.01 0 0 1 1.725-1.56 12.212 12.212 0 0 1 2.113-1.233 12.65 12.65 0 0 1 2.35-.805 10.86 10.86 0 0 1 2.45-.29c.212 0 .412.013.6.026.187.012.375.025.562.05l-4.462 20.861c.5.114 1.012.29 1.512.516.5.24 1.013.49 1.538.768.525.276 1.05.566 1.587.855.538.29 1.075.554 1.638.793.55.239 1.125.44 1.7.591a7.058 7.058 0 0 0 1.8.227c.4 0 .8-.025 1.2-.1.4-.064.812-.19 1.237-.366a11.052 11.052 0 0 1-.387 1.9c-.175.566-.388 1.044-.65 1.447-.263.39-.55.705-.888.919a2 2 0 0 1-1.1.314 4.58 4.58 0 0 1-2.037-.49c-.675-.328-1.35-.73-2.025-1.221a42.986 42.986 0 0 1-2.05-1.585 25.199 25.199 0 0 0-2.125-1.586 13.164 13.164 0 0 0-2.263-1.22 6.283 6.283 0 0 0-2.462-.49h-.325c-.1 0-.213.012-.338.024l4.313-20.182z" fill="#955746"/><path d="M101.902 21.781c-.563.604-1.3 1.108-2.2 1.523-.9.415-1.888.717-2.95.893-.113 1.346-.375 2.554-.775 3.636-.4 1.082-.913 2-1.525 2.756a6.783 6.783 0 0 1-2.113 1.749 5.55 5.55 0 0 1-2.525.616 6.67 6.67 0 0 1-1.862-.251 3.721 3.721 0 0 1-1.475-.793 3.618 3.618 0 0 1-.963-1.422c-.225-.579-.35-1.283-.35-2.126 0-.566.063-1.22.175-1.938.113-.717.313-1.472.563-2.24.262-.767.6-1.522 1.012-2.252a8.862 8.862 0 0 1 1.5-1.963 7.06 7.06 0 0 1 2.05-1.396c.775-.352 1.663-.529 2.65-.529 2.488 0 3.725 1.548 3.725 4.643v.013c.05.025.088.025.138.025h.175c.337 0 .712-.05 1.1-.151a9.857 9.857 0 0 0 2.35-.944 15.34 15.34 0 0 0 1.037-.641l.263.792zm-7.563 2.504c-.3-.075-.512-.226-.612-.44a1.688 1.688 0 0 1-.163-.768c0-.402.088-.742.25-1.006a1.49 1.49 0 0 1 .663-.58 5.65 5.65 0 0 0-.1-.792 1.724 1.724 0 0 0-.2-.528.686.686 0 0 0-.313-.29c-.125-.063-.287-.088-.487-.088-.35 0-.688.139-1.013.403-.325.264-.625.629-.912 1.07-.288.44-.55.956-.8 1.522a14.87 14.87 0 0 0-.613 1.774c-.162.604-.3 1.208-.4 1.8a11.209 11.209 0 0 0-.137 1.61c0 .478.025.868.075 1.182.05.302.137.541.25.718a.93.93 0 0 0 .462.364c.188.063.425.101.7.101.35 0 .7-.163 1.063-.465.362-.302.687-.743.987-1.284.3-.54.575-1.183.8-1.912.213-.743.388-1.548.5-2.39z" fill="#955746"/><path d="M100.287 18.283h4.187l-2.087 9.89c-.05.214-.088.415-.113.591a3.305 3.305 0 0 0-.037.466c0 .29.075.528.237.704.163.177.413.265.763.265.475 0 .925-.164 1.362-.504.438-.327.838-.767 1.213-1.32.362-.542.7-1.158 1.012-1.863.313-.704.563-1.396.775-2.114.213-.717.388-1.421.5-2.113a10.26 10.26 0 0 0 .175-1.825c-.025.05-.075.088-.15.126a.924.924 0 0 1-.262.088 1.956 1.956 0 0 1-.288.05c-.1.013-.175.013-.225.013a.686.686 0 0 1-.45-.138 1.14 1.14 0 0 1-.337-.353 1.813 1.813 0 0 1-.2-.478 2.394 2.394 0 0 1-.063-.516c0-.453.138-.83.438-1.132.287-.302.75-.44 1.375-.44.35 0 .637.075.875.213.237.139.412.328.562.566.15.24.238.504.3.818.063.302.088.617.088.931 0 .78-.075 1.636-.2 2.567a19.488 19.488 0 0 1-.625 2.819 17.39 17.39 0 0 1-1.1 2.755c-.438.88-.963 1.674-1.588 2.366a7.4 7.4 0 0 1-2.112 1.648c-.8.415-1.688.629-2.675.629-1.1 0-1.963-.29-2.6-.843-.638-.554-.963-1.422-.963-2.58 0-.163.013-.364.025-.616.025-.252.05-.516.113-.793l2.075-9.877zm22.211 9.337a17.255 17.255 0 0 1-1.4 1.987 10.479 10.479 0 0 1-1.775 1.724 9.054 9.054 0 0 1-2.187 1.22c-.8.303-1.675.466-2.625.466a6.25 6.25 0 0 1-1.875-.264c-.55-.176-1.038-.44-1.438-.818-.4-.365-.7-.843-.912-1.434-.213-.58-.325-1.284-.325-2.114 0-.554.05-1.195.175-1.925.112-.73.287-1.472.537-2.24.25-.767.575-1.522.975-2.265.4-.742.9-1.396 1.475-1.975a6.815 6.815 0 0 1 2.025-1.41c.775-.351 1.663-.528 2.65-.528.65 0 1.188.076 1.6.24.413.163.738.364.975.616.238.252.413.553.5.88.088.328.138.68.138 1.045 0 .843-.188 1.623-.55 2.353a6.079 6.079 0 0 1-1.488 1.9 7.82 7.82 0 0 1-2.137 1.308c-.8.328-1.638.529-2.513.58-.025.213-.037.427-.05.616-.012.188-.025.377-.025.553 0 .491.038.894.138 1.22.087.315.225.567.4.743.175.189.387.302.65.378.262.075.562.113.912.113.575 0 1.1-.076 1.563-.227.462-.15.9-.365 1.312-.629.413-.264.8-.579 1.163-.944.362-.352.725-.742 1.1-1.144l1.012-.026zm-7.937-2.064a3.841 3.841 0 0 0 1.587-.466 4.804 4.804 0 0 0 1.35-1.07c.388-.44.7-.943.925-1.509.238-.566.35-1.145.35-1.761 0-.365-.05-.655-.15-.869-.1-.214-.3-.327-.575-.327-.362 0-.725.176-1.087.529-.35.352-.688.818-1 1.384a11.313 11.313 0 0 0-.825 1.925c-.238.73-.425 1.447-.575 2.164z" fill="#955746"/><path d="M138 27.62a13.857 13.857 0 0 1-.888 2.05c-.325.58-.65 1.07-1 1.46-.35.39-.7.717-1.062.969-.363.239-.713.44-1.05.566a5.232 5.232 0 0 1-.975.277c-.313.05-.6.075-.85.075-.813 0-1.475-.226-1.963-.68-.487-.452-.787-1.119-.887-2-.238.34-.5.654-.775.969a6.19 6.19 0 0 1-.95.856c-.35.251-.738.453-1.175.604a4.042 4.042 0 0 1-1.425.239c-.5 0-.988-.076-1.45-.24a3.265 3.265 0 0 1-1.238-.792c-.362-.378-.65-.856-.862-1.447-.213-.604-.325-1.334-.325-2.19 0-.666.062-1.37.2-2.126.137-.755.337-1.51.612-2.277a12.39 12.39 0 0 1 1.025-2.177 8.791 8.791 0 0 1 1.45-1.85 6.639 6.639 0 0 1 1.875-1.283 5.596 5.596 0 0 1 2.313-.478c.825 0 1.425.138 1.8.428s.562.642.562 1.057v.214l.288-1.548h4.187l-2.087 9.89c-.05.163-.075.314-.1.478-.025.15-.025.314-.025.453 0 .83.4 1.245 1.187 1.245.288 0 .55-.075.788-.226a2.65 2.65 0 0 0 .662-.591c.2-.24.375-.542.525-.869.15-.34.275-.692.388-1.057H138zm-7.325-6.569c0-.088-.025-.188-.063-.314a1.123 1.123 0 0 0-.187-.365 1.267 1.267 0 0 0-.363-.302c-.15-.088-.337-.126-.575-.126-.412 0-.8.126-1.162.403-.363.277-.7.616-1 1.057-.3.44-.575.944-.813 1.497a13.506 13.506 0 0 0-.6 1.724c-.162.591-.287 1.17-.375 1.749a12.037 12.037 0 0 0-.125 1.547c0 .554.05.982.163 1.284.1.302.225.528.375.68.15.15.3.238.475.263.175.026.325.038.45.038.225 0 .45-.05.687-.163.238-.114.475-.265.7-.479.225-.213.425-.478.613-.805a3.84 3.84 0 0 0 .412-1.12l1.388-6.567z" fill="#955746"/><path d="M152.677 27.62c-.4 1.195-.85 2.138-1.313 2.855-.475.705-.937 1.246-1.425 1.624-.487.377-.95.616-1.412.73a5.432 5.432 0 0 1-1.275.176c-.65 0-1.175-.089-1.613-.277-.437-.189-.787-.428-1.05-.743-.275-.302-.45-.654-.575-1.056a4.381 4.381 0 0 1-.175-1.221c0-.49.075-1.07.2-1.724.138-.654.288-1.334.45-2.026a95.85 95.85 0 0 0 .45-2c.138-.642.213-1.195.213-1.66 0-.995-.35-1.498-1.05-1.498-.263 0-.513.075-.738.214-.237.138-.437.34-.625.579a4.308 4.308 0 0 0-.512.855c-.15.327-.288.68-.4 1.044l-1.975 9.336h-4.188l4.213-19.792 4.3-.578-1.563 7.335c.313-.352.625-.629.925-.843.313-.214.613-.377.9-.49.288-.114.575-.19.825-.227.263-.038.5-.063.738-.063.462 0 .887.063 1.287.189.4.126.738.314 1.025.579.288.264.513.604.675 1.019.163.415.238.918.238 1.497a7.7 7.7 0 0 1-.113 1.258 29.312 29.312 0 0 1-.6 2.768c-.125.466-.225.919-.337 1.334-.1.428-.188.818-.263 1.183a4.8 4.8 0 0 0-.112.956c0 .352.075.654.237.88.175.227.475.34.913.34.312 0 .587-.062.825-.188.237-.126.45-.29.637-.529a3.94 3.94 0 0 0 .513-.817c.15-.315.312-.667.45-1.045l1.3.025z" fill="#955746"/><path d="M167.776 21.781c-.575.604-1.3 1.108-2.2 1.523-.9.415-1.887.717-2.95.893-.112 1.346-.375 2.554-.775 3.636-.4 1.082-.912 2-1.525 2.756a6.638 6.638 0 0 1-2.112 1.749c-.8.402-1.638.616-2.525.616-.675 0-1.3-.088-1.863-.251a3.724 3.724 0 0 1-1.475-.793 3.623 3.623 0 0 1-.962-1.422c-.238-.579-.35-1.283-.35-2.126 0-.566.062-1.22.175-1.938.125-.717.312-1.472.575-2.24.262-.767.6-1.522 1.012-2.252a8.892 8.892 0 0 1 1.5-1.963 7.067 7.067 0 0 1 2.05-1.396c.775-.352 1.663-.529 2.65-.529 2.488 0 3.725 1.548 3.725 4.643v.013c.05.025.088.025.125.025h.188c.337 0 .7-.05 1.1-.151a9.35 9.35 0 0 0 1.187-.39c.388-.164.788-.34 1.163-.554.375-.214.725-.427 1.037-.641l.25.792zm-7.562 2.504c-.3-.075-.513-.226-.613-.44a1.694 1.694 0 0 1-.162-.768c0-.402.087-.742.25-1.006.162-.265.387-.453.662-.58a5.65 5.65 0 0 0-.1-.792 1.711 1.711 0 0 0-.2-.528.651.651 0 0 0-.325-.29c-.125-.063-.287-.088-.487-.088-.35 0-.688.139-1.013.403-.325.264-.625.629-.912 1.07-.288.44-.55.956-.8 1.522-.238.579-.438 1.17-.613 1.774a16.08 16.08 0 0 0-.4 1.8 11.275 11.275 0 0 0-.137 1.61c0 .478.025.868.075 1.182.05.302.137.541.262.718a.88.88 0 0 0 .463.364c.187.063.425.101.7.101.35 0 .7-.163 1.062-.465.35-.315.688-.743.988-1.284.3-.54.575-1.183.812-1.912.2-.743.375-1.548.488-2.39z" fill="#955746"/><path d="M173.186 27.62c-.275.792-.575 1.471-.912 2.05a8.307 8.307 0 0 1-1.05 1.46 6.11 6.11 0 0 1-1.125.969c-.388.239-.75.44-1.113.566-.362.126-.7.226-1.025.277-.325.05-.612.075-.875.075-.437 0-.837-.075-1.225-.201a2.5 2.5 0 0 1-.987-.63c-.288-.289-.5-.641-.663-1.069-.162-.428-.237-.969-.237-1.573 0-.264.025-.553.05-.868.037-.314.1-.654.175-1.031l3.1-14.583 4.3-.58-3.338 15.716c-.05.164-.075.315-.087.478a5.585 5.585 0 0 0-.025.466c0 .402.087.692.287.843.188.15.488.239.9.239.288 0 .563-.063.825-.189a2.71 2.71 0 0 0 .75-.528c.225-.227.438-.504.613-.818a5.08 5.08 0 0 0 .437-1.032h1.225v-.038z" fill="#955746"/><path d="M180.939 27.62c-.275.792-.575 1.471-.912 2.05a8.302 8.302 0 0 1-1.05 1.46 6.11 6.11 0 0 1-1.125.969c-.388.239-.75.44-1.113.566-.362.126-.7.226-1.025.277-.325.05-.612.075-.875.075a3.91 3.91 0 0 1-1.225-.201 2.418 2.418 0 0 1-.987-.63 3.16 3.16 0 0 1-.663-1.069c-.162-.428-.237-.969-.237-1.573 0-.264.025-.553.05-.868.037-.314.1-.654.175-1.031l1.975-9.337h4.187l-2.087 9.89a2.17 2.17 0 0 0-.088.478 6.05 6.05 0 0 0-.025.466c0 .402.088.692.288.843.187.15.487.239.9.239.287 0 .562-.063.825-.189.262-.126.512-.302.75-.528a3.79 3.79 0 0 0 .612-.818c.175-.315.325-.654.438-1.032h1.212v-.038zm-1.8-13.2a2.246 2.246 0 0 1-.687 1.623 2.712 2.712 0 0 1-.738.491 2.342 2.342 0 0 1-.9.177 2.33 2.33 0 0 1-.9-.177 1.957 1.957 0 0 1-.725-.49 2.246 2.246 0 0 1-.5-.718 2.395 2.395 0 0 1-.175-.905c0-.327.063-.63.175-.906a2.51 2.51 0 0 1 .5-.743 2.43 2.43 0 0 1 .725-.503 2.18 2.18 0 0 1 .9-.189c.325 0 .625.063.9.19.288.125.525.288.738.502.212.214.387.453.5.743.112.29.187.591.187.906z" fill="#955746"/><path d="M191.862 27.62a17.38 17.38 0 0 1-1.4 1.987 10.985 10.985 0 0 1-1.775 1.724 8.836 8.836 0 0 1-2.188 1.22c-.8.303-1.675.466-2.625.466-.7 0-1.312-.088-1.875-.264a3.62 3.62 0 0 1-1.437-.818c-.4-.365-.7-.843-.913-1.434-.212-.579-.325-1.284-.325-2.114 0-.554.05-1.208.175-1.938.113-.73.288-1.484.55-2.252.25-.767.588-1.522.975-2.265.4-.742.888-1.396 1.475-1.975a7.238 7.238 0 0 1 2.013-1.397c.775-.352 1.637-.528 2.625-.528.637 0 1.175.075 1.587.239.413.163.75.365.988.616.25.252.412.541.512.856.088.327.138.642.138.969a3 3 0 0 1-.125.93c-.088.265-.188.479-.338.655a1.5 1.5 0 0 1-.5.403 1.385 1.385 0 0 1-.6.126c-.337 0-.675-.114-1.012-.34.237-.63.35-1.195.35-1.711 0-.365-.063-.655-.188-.868a.68.68 0 0 0-.612-.328c-.3 0-.6.139-.913.416-.3.276-.6.641-.875 1.094a9.598 9.598 0 0 0-.775 1.56 16.737 16.737 0 0 0-.612 1.837c-.175.63-.313 1.271-.413 1.9-.1.63-.15 1.22-.15 1.762 0 .503.05.893.138 1.22.087.315.225.567.4.743.175.176.387.302.65.377.262.076.562.1.912.1.575 0 1.1-.075 1.563-.226a5.272 5.272 0 0 0 1.312-.629 6.84 6.84 0 0 0 1.163-.943c.362-.353.725-.743 1.1-1.145l1.025-.026z" fill="#955746"/><path d="M199.363 17.39c.062 1.258.112 2.353.162 3.271.05.919.1 1.724.15 2.404.05.68.088 1.258.125 1.723.038.479.075.894.1 1.259.025.365.05.692.075.994.013.302.025.604.025.93a5.16 5.16 0 0 1-.262 1.7 4.427 4.427 0 0 1-.7 1.295c-.3.365-.65.68-1.038.944a5.453 5.453 0 0 1-1.237.63 6.11 6.11 0 0 1-1.313.339 7.57 7.57 0 0 1-1.262.113c-.725 0-1.363-.113-1.9-.34a4.049 4.049 0 0 1-1.325-.868 3.512 3.512 0 0 1-.776-1.195 3.828 3.828 0 0 1-.249-1.334c0-.34.05-.654.125-.944.087-.289.2-.553.35-.767.15-.227.3-.428.487-.591.188-.164.375-.302.575-.39.812-1.46 1.5-2.907 2.063-4.329a60.855 60.855 0 0 0 1.512-4.303l4.313-.54zm-7.875 11.286c0 .68.124 1.196.399 1.535.263.34.726.504 1.376.504.325 0 .637-.038.937-.139.3-.088.575-.239.813-.453.237-.213.425-.49.575-.83.15-.34.212-.768.212-1.284 0-.239-.012-.49-.025-.717-.012-.239-.025-.478-.05-.742s-.05-.554-.075-.868a43.36 43.36 0 0 1-.112-1.133c-.05-.427-.088-.918-.138-1.472-.05-.553-.1-1.208-.162-1.963a23.607 23.607 0 0 1-1.038 2.756 49.25 49.25 0 0 1-1.325 2.743c.188.1.35.239.475.39a.978.978 0 0 1 .188.616c0 .177-.025.353-.088.529a1.15 1.15 0 0 1-.262.465c-.113.139-.25.252-.4.328a1.22 1.22 0 0 1-.538.126c-.162 0-.312-.026-.45-.076a.587.587 0 0 1-.312-.315z" fill="#955746"/></svg>