<svg width="50" height="38" viewBox="0 0 50 38" fill="none" xmlns="http://www.w3.org/2000/svg"><path d="M26.863 19.853c.005 1.613-.282 3.117-.862 4.511a10.915 10.915 0 0 1-2.474 3.656 11.544 11.544 0 0 1-3.787 2.449c-1.453.588-3.052.884-4.795.892-1.742.005-3.349-.282-4.817-.86-1.469-.577-2.736-1.386-3.802-2.424a11.083 11.083 0 0 1-2.484-3.637c-.588-1.39-.885-2.892-.893-4.504-.005-1.613.282-3.118.86-4.512.581-1.391 1.4-2.61 2.46-3.655 1.058-1.045 2.32-1.861 3.786-2.452 1.463-.587 3.067-.886 4.81-.891 1.742-.005 3.341.278 4.8.859a11.536 11.536 0 0 1 3.801 2.424 10.887 10.887 0 0 1 2.5 3.637c.588 1.39.89 2.894.897 4.507zm-3.51.012c-.005-1.55-.37-2.934-1.099-4.152-.726-1.218-1.73-2.18-3.007-2.889-1.277-.706-2.735-1.057-4.37-1.052-1.68.005-3.15.364-4.41 1.08A7.79 7.79 0 0 0 7.51 15.76c-.706 1.223-1.058 2.612-1.053 4.16.005 1.55.364 2.934 1.083 4.152a7.787 7.787 0 0 0 2.975 2.889c1.267.708 2.74 1.058 4.42 1.053 1.637-.006 3.09-.365 4.365-1.083a7.839 7.839 0 0 0 2.987-2.924c.717-1.231 1.074-2.613 1.066-4.142zm24.912-7.235L50 10.868l-2.348-2.339-1.743 1.769a10.337 10.337 0 0 0-2.087-1.13c-1.25-.498-2.622-.742-4.116-.736-1.493.005-2.869.258-4.123.763-1.255.505-2.338 1.206-3.244 2.1a9.428 9.428 0 0 0-2.107 3.133c-.497 1.193-.741 2.482-.736 3.866.005 1.384.259 2.67.764 3.86a9.452 9.452 0 0 0 2.13 3.12c.912.89 2.107 1.596 3.376 2.058 2.817 1.028 5.887.445 6.97 2.359.284.502.445 1.06.448 1.69a3.274 3.274 0 0 1-.435 1.689c-.292.502-.7.899-1.217 1.19-.518.292-1.111.44-1.778.44-.684.003-1.285-.14-1.8-.43a3.187 3.187 0 0 1-1.212-1.175c-.292-.498-.438-1.06-.44-1.69a3.35 3.35 0 0 1 .29-1.35h-3.609c-.085.437-.128.89-.126 1.362.003.93.174 1.793.513 2.595.34.801.817 1.5 1.43 2.097a6.549 6.549 0 0 0 2.19 1.397c.848.334 1.771.5 2.777.495 1.003-.003 1.923-.176 2.763-.515a6.644 6.644 0 0 0 2.18-1.412 6.319 6.319 0 0 0 1.425-2.105c.335-.801.5-1.668.496-2.6a6.627 6.627 0 0 0-.513-2.595 6.26 6.26 0 0 0-1.275-1.9 9.809 9.809 0 0 0 2.288-1.652 9.343 9.343 0 0 0 2.122-3.135c.498-1.193.742-2.482.74-3.866-.006-1.382-.26-2.67-.765-3.861a9.893 9.893 0 0 0-.963-1.728zm-2.595 8.936a6.297 6.297 0 0 1-2.398 2.349c-1.024.575-2.193.864-3.505.869-1.35.005-2.532-.276-3.55-.844a6.22 6.22 0 0 1-2.39-2.321c-.575-.98-.864-2.09-.87-3.336-.004-1.244.28-2.36.848-3.344a6.242 6.242 0 0 1 2.376-2.336c1.014-.575 2.195-.864 3.543-.87 1.315-.004 2.484.277 3.513.845a6.31 6.31 0 0 1 2.416 2.321c.583.98.877 2.092.882 3.336-.002 1.228-.289 2.339-.865 3.331z" fill="#fff"/><path d="M17.163 21.953a2.428 2.428 0 1 0-2.429-2.427 2.428 2.428 0 0 0 2.429 2.427zm24.08-1.939a1.74 1.74 0 1 0 .001-3.479 1.74 1.74 0 0 0-.001 3.479zM2.21 8.031L0 5.796c1.833-1.81 4.043-3.241 6.567-4.256C9.09.528 11.87.01 14.84 0c2.974-.012 5.752.49 8.257 1.485l-1.165 2.921c-2.13-.846-4.52-1.273-7.085-1.26-2.57.007-4.96.449-7.108 1.31-2.132.857-3.993 2.06-5.529 3.575z" fill="#fff"/></svg>