<svg width="200" height="18" viewBox="0 0 200 18" fill="none" xmlns="http://www.w3.org/2000/svg"><path d="M0 .463h9.525V3.65H6.387v13.731H3.064V3.651H0V.462zM19.45.046c2.438 0 4.538.858 6.3 2.587a8.563 8.563 0 0 1 2.625 6.338c0 2.476-.863 4.56-2.6 6.265a8.637 8.637 0 0 1-6.3 2.574 8.638 8.638 0 0 1-6.45-2.636 8.635 8.635 0 0 1-2.563-6.252c-.05-4.855 3.925-8.827 8.875-8.876.038 0 .088-.012.113 0zm-.025 3.138c-1.6 0-2.938.552-4.025 1.643a5.641 5.641 0 0 0-1.625 4.144c-.113 3.04 2.312 5.603 5.425 5.713h.288c3.162-.05 5.675-2.611 5.625-5.713v-.025c.075-3.113-2.45-5.688-5.625-5.762h-.063zm27.8.037l-2.313 2.244a6.879 6.879 0 0 0-5.124-2.268c-3.225-.074-5.9 2.44-5.975 5.615v.06c.05 3.287 2.812 5.898 6.162 5.849H40c1.125 0 2.087-.233 2.875-.699a4.954 4.954 0 0 0 1.875-2.194h-5V8.799h8.675l.025.711c0 1.472-.388 2.881-1.163 4.206-.774 1.324-1.8 2.341-3.037 3.04-1.25.699-2.7 1.054-4.375 1.054-1.788 0-3.375-.392-4.788-1.152-1.4-.76-2.5-1.84-3.325-3.261a8.896 8.896 0 0 1-1.224-4.56C30.5 4.005 34.462.057 39.374.02h.413c1.5 0 2.9.282 4.2.822a9.788 9.788 0 0 1 3.237 2.378zM51.337.463h9.413v3.15H54.6v3.065h6.15v3.09H54.6v4.45h6.15v3.15h-9.413V.464zm11.1 0h9.526V3.65h-3.15v13.731H65.5V3.651h-3.05V.462h-.013zm11.65 0h3.325v6.375h5.75V.463h3.325V17.38h-3.325V9.964h-5.75v7.417h-3.325V.463zm16.388 0h9.4v3.15h-6.15v3.065h6.15v3.09h-6.15v4.45h6.15v3.15h-9.4V.464zm12.987 0h3.476c1.9 0 3.25.171 4.062.502.812.331 1.463.883 1.95 1.668.5.772.75 1.692.75 2.746 0 1.103-.275 2.035-.813 2.783a5.05 5.05 0 0 1-2.462 1.692l4.087 7.527h-3.587l-3.875-7.16h-.3v7.16h-3.288V.463zm3.288 6.62h1.025c1.037 0 1.75-.147 2.15-.405.4-.27.588-.723.588-1.348a1.589 1.589 0 0 0-1.075-1.545c-.325-.122-.925-.184-1.788-.184h-.9v3.482z" fill="#2F3136"/><path d="M119.787 5.919h-3.2a6.106 6.106 0 0 1 1.75-4.304A5.742 5.742 0 0 1 122.5.034c1.05 0 1.975.22 2.775.662.8.43 1.45 1.054 1.925 1.863.475.822.725 1.655.725 2.49a7.397 7.397 0 0 1-.875 3.248c-.588 1.152-1.65 2.525-3.2 4.107l-1.938 1.998h6.15v2.98h-11.95v-1.545l5.338-5.333c.987-.92 1.862-1.95 2.575-3.09.425-.772.637-1.47.637-2.108 0-.65-.225-1.19-.662-1.619-.438-.417-1-.637-1.7-.637-.713 0-1.288.257-1.75.772-.475.515-.725 1.214-.763 2.084v.013zM131.25.463h3.162l7.375 11.132V.463h3.275v16.918H141.9l-7.363-11.095v11.095h-3.275V.463h-.012zm17.675 0h3.25v16.918h-3.25V.463zm22.925 2.758l-2.313 2.244a6.896 6.896 0 0 0-5.112-2.268c-3.225-.074-5.9 2.44-5.975 5.615v.061c0 1.63.587 3.016 1.775 4.144a6.167 6.167 0 0 0 4.4 1.716c1.137 0 2.1-.245 2.875-.71a4.96 4.96 0 0 0 1.875-2.195h-4.988V8.8h8.675l.025.71c0 1.472-.387 2.882-1.175 4.206a8.043 8.043 0 0 1-3.037 3.04c-1.25.699-2.7 1.054-4.375 1.054-1.788 0-3.375-.392-4.775-1.152a8.458 8.458 0 0 1-3.338-3.261 9.001 9.001 0 0 1-1.212-4.56c-.038-4.83 3.925-8.766 8.837-8.803h.413c1.5 0 2.9.282 4.2.821a9.428 9.428 0 0 1 3.225 2.366zm4.112-2.758h3.325v6.375h5.75V.463h3.325v16.918h-3.325V9.964h-5.75v7.417h-3.325V.463zm14.513 0H200v3.188h-3.138v13.73h-3.325V3.651h-3.062V.463z" fill="#FD9700"/></svg>