<svg width="540" height="140" viewBox="0 0 540 140" fill="none" xmlns="http://www.w3.org/2000/svg"><g clip-path="url(#clip0)"><path d="M126.197 66.679c.02 5.415-.937 10.463-2.873 15.142a36.873 36.873 0 0 1-8.273 12.282c-3.587 3.515-7.805 6.253-12.675 8.235-4.87 1.982-10.21 2.984-16.037 3.004-5.828.02-11.208-.94-16.119-2.881-4.91-1.942-9.149-4.66-12.715-8.133-3.566-3.474-6.337-7.561-8.314-12.22-1.977-4.66-2.975-9.707-2.975-15.123-.02-5.415.937-10.462 2.873-15.142a37.068 37.068 0 0 1 8.233-12.281c3.545-3.515 7.763-6.253 12.674-8.235 4.89-1.983 10.27-2.984 16.098-3.004 5.828-.02 11.188.94 16.058 2.88 4.87 1.942 9.108 4.66 12.715 8.134 3.607 3.474 6.399 7.561 8.355 12.22 1.956 4.66 2.955 9.707 2.975 15.122zm-11.737.04c-.021-5.21-1.243-9.849-3.668-13.936s-5.787-7.336-10.067-9.706c-4.279-2.37-9.15-3.556-14.63-3.536-5.625.02-10.536 1.227-14.754 3.638-4.218 2.411-7.52 5.66-9.883 9.768-2.364 4.107-3.545 8.766-3.525 13.977.02 5.211 1.223 9.85 3.627 13.957 2.405 4.087 5.706 7.337 9.944 9.707 4.239 2.37 9.17 3.556 14.794 3.535 5.482-.02 10.352-1.226 14.611-3.637 4.259-2.412 7.58-5.681 9.985-9.83 2.384-4.168 3.586-8.807 3.566-13.936z" fill="#FABF38"/><path d="M276.317 82.128a26.313 26.313 0 0 1-8.986 8.337c-4.259 2.412-9.129 3.617-14.611 3.638-5.624.02-10.555-1.165-14.794-3.535-4.238-2.371-7.56-5.6-9.944-9.707-1.773-3.045-2.894-6.376-3.362-10.034l67.836-.163a36.96 36.96 0 0 0 .163-3.985c-.02-5.415-1.019-10.463-2.995-15.122-1.977-4.659-4.769-8.746-8.355-12.22-3.607-3.474-7.845-6.192-12.716-8.133-4.87-1.941-10.229-2.902-16.057-2.881-5.828.02-11.187 1.021-16.098 3.003-4.891 1.983-9.129 4.721-12.675 8.236-3.545 3.494-6.276 7.602-8.232 12.281-1.936 4.68-2.894 9.727-2.873 15.142.02 5.416 1.018 10.463 2.975 15.122 1.976 4.66 4.748 8.747 8.314 12.22 3.566 3.475 7.804 6.192 12.715 8.134 4.911 1.941 10.291 2.901 16.119 2.881 5.827-.02 11.166-1.022 16.037-3.004 4.87-1.982 9.088-4.72 12.674-8.235 3.505-3.433 6.195-7.418 8.131-11.975h-13.266zM227.88 52.947c2.364-4.108 5.665-7.357 9.883-9.768 4.218-2.412 9.15-3.617 14.753-3.638 5.482-.02 10.352 1.165 14.631 3.536 4.28 2.37 7.621 5.599 10.067 9.706 1.263 2.125 2.18 4.414 2.791 6.825l-54.815.103c.591-2.412 1.468-4.66 2.69-6.764z" fill="#F6B081"/><path d="M476.383 82.128a26.304 26.304 0 0 1-8.986 8.337c-4.259 2.412-9.129 3.617-14.611 3.638-5.624.02-10.555-1.165-14.793-3.535-4.239-2.371-7.56-5.6-9.945-9.707-1.772-3.045-2.893-6.376-3.362-10.034l67.836-.163c.122-1.308.184-2.636.163-3.985-.02-5.415-1.019-10.463-2.995-15.122-1.977-4.659-4.768-8.746-8.355-12.22-3.607-3.474-7.845-6.192-12.715-8.133-4.871-1.941-10.23-2.902-16.058-2.881-5.828.02-11.187 1.021-16.098 3.003-4.89 1.983-9.129 4.721-12.674 8.236-3.546 3.494-6.277 7.602-8.233 12.281-1.936 4.68-2.893 9.727-2.873 15.142.02 5.416 1.019 10.463 2.975 15.122 1.977 4.66 4.748 8.747 8.314 12.22 3.566 3.475 7.804 6.192 12.715 8.134 4.911 1.941 10.291 2.901 16.119 2.881 5.828-.02 11.167-1.022 16.037-3.004 4.87-1.982 9.088-4.72 12.674-8.235 3.505-3.433 6.195-7.418 8.131-11.975h-13.266zm-48.436-29.181c2.363-4.108 5.664-7.357 9.883-9.768 4.218-2.412 9.149-3.617 14.753-3.638 5.481-.02 10.351 1.165 14.631 3.536 4.279 2.37 7.621 5.599 10.066 9.706 1.263 2.125 2.18 4.414 2.792 6.825l-54.815.103a26.027 26.027 0 0 1 2.69-6.764z" fill="#ED982A"/><path d="M32.074 90.282c-.815.96-1.752 1.839-2.894 2.493-1.732.98-3.708 1.471-5.95 1.471-2.282 0-4.3-.47-6.032-1.43a10.61 10.61 0 0 1-4.055-3.944c-.937-1.594-1.406-3.413-1.446-5.436l-.184-12.629 24.535-.082-.041-11.116-23.454.122V28.302H0l.183 54.214c0 .246 0 1.492.02 1.88l.062 1.063c.224 2.289.754 4.455 1.61 6.478a21.5 21.5 0 0 0 4.788 7.05c2.059 2.003 4.504 3.576 7.336 4.68 2.833 1.124 5.93 1.675 9.292 1.655 3.363-.021 6.44-.593 9.252-1.717 2.771-1.124 5.175-2.697 7.213-4.68l-7.682-8.643zm304.723-.002c-.815.96-1.752 1.84-2.893 2.493-1.733.981-3.709 1.472-5.951 1.472-2.282 0-4.299-.47-6.031-1.43a10.61 10.61 0 0 1-4.055-3.945c-.938-1.594-1.406-3.412-1.447-5.435l-.184-12.63 24.535-.081-.041-11.117-23.454.143V28.444h-12.553l.184 54.071c0 .245 0 1.492.02 1.88l.061 1.063c.224 2.288.754 4.454 1.61 6.478a21.485 21.485 0 0 0 4.789 7.05c2.058 2.002 4.503 3.576 7.335 4.679 2.833 1.124 5.93 1.676 9.293 1.655 3.362-.02 6.439-.592 9.251-1.716 2.771-1.124 5.176-2.698 7.213-4.68l-7.682-8.644z" fill="#EC6C53"/><path d="M524.695 34.678a38.95 38.95 0 0 0-8.803 4.966l-.021-8.276h-11.574l.265 71.277 11.513-.041-.143-45.815c.082-.143.143-.307.225-.47 2.363-4.108 5.664-7.357 9.883-9.768 3.994-2.269 8.619-3.433 13.877-3.576l.061-11.24c-5.502.103-10.617 1.063-15.283 2.943z" fill="#F6B081"/><path d="M401.779 70.254c0-.306-.061-3.044-.061-3.044-.204-2.33-.734-4.517-1.61-6.58a21.257 21.257 0 0 0-4.809-7.03c-2.079-2.003-4.524-3.576-7.336-4.7-2.812-1.124-5.889-1.676-9.252-1.655-3.362 0-6.459.592-9.271 1.716-.754.307-1.427.736-2.12 1.104l-.061-21.661-11.513.04.265 74.772 11.513-.041-.102-33.718c0-2.084.469-3.964 1.427-5.62.957-1.654 2.282-2.962 3.973-3.923 1.692-.96 3.668-1.45 5.93-1.471 2.201 0 4.157.47 5.889 1.43 1.712.96 3.077 2.248 4.055 3.904.978 1.655 1.468 3.514 1.488 5.62l.143 33.635 11.513-.082-.061-32.696z" fill="#FABF38"/><path d="M229.756 139.755c0 .122-.061.184-.183.184h-2.099c-.122 0-.184-.062-.184-.184l.021-7.152v-.43l-.021-.306a3.246 3.246 0 0 0-.122-.613 3.065 3.065 0 0 0-.652-1.083 2.66 2.66 0 0 0-1.059-.695c-.184-.082-.388-.123-.591-.164 0 0-.123-.02-.286-.02h-.326a2.77 2.77 0 0 0-1.956.92c-.204.224-.387.449-.509.735a2.496 2.496 0 0 0-.225.654c-.02.102-.081.511-.081.797l.02 7.398c0 .122-.061.184-.183.184h-2.119c-.123 0-.184-.062-.184-.184l-.04-12.813c0-.123.061-.184.183-.184h2.119c.122 0 .184.061.184.184v1.001c.224-.163.448-.306.652-.409a5.15 5.15 0 0 1 1.997-.572s.387-.041.937.021l.143.02c.387.061.733.143 1.1.266a4.868 4.868 0 0 1 1.915 1.246 5.4 5.4 0 0 1 1.223 1.942c.122.368.204.735.245 1.103.02.184.04 1.002.04 1.002v1.246l.041 5.906zm36.19-12.977c1.732.164 3.139.92 4.259 2.289 1.101 1.369 1.59 2.922 1.447 4.659l-.061.838c0 .123-.082.184-.183.184l-9.639.021a4.162 4.162 0 0 0 1.325 1.818 3.892 3.892 0 0 0 2.139.818 3.94 3.94 0 0 0 1.997-.327 3.849 3.849 0 0 0 1.59-1.247c.081-.102.163-.122.265-.041l1.691 1.206c.102.061.122.163.041.266a6.525 6.525 0 0 1-2.568 2.064 6.341 6.341 0 0 1-3.24.551c-1.793-.143-3.26-.919-4.422-2.309-1.161-1.369-1.671-2.963-1.528-4.761.163-1.839.896-3.331 2.241-4.496 1.325-1.206 2.874-1.696 4.646-1.533zm3.22 5.497a3.528 3.528 0 0 0-1.141-2.104c-.632-.552-1.406-.879-2.323-.961-.978-.081-1.834.164-2.608.736-.754.572-1.243 1.349-1.488 2.329h7.56zm35.986 4.885c.306.163.673.102 1.101-.164.102-.061.183-.041.244.061l1.243 1.656c.082.102.082.204-.041.265-.692.47-1.406.715-2.16.715-.509 0-.998-.122-1.467-.347-.591-.286-1.059-.736-1.406-1.328-.326-.593-.489-1.288-.509-2.044l-.021-6.948h-1.997c-.122 0-.183-.061-.183-.183v-2.064c0-.123.061-.184.183-.184h1.997l-.02-2.759c0-.123.061-.184.183-.184h2.079c.122 0 .183.061.183.184v2.759h1.997c.123 0 .184.061.184.184v2.064c0 .122-.061.183-.184.183h-1.997l.021 6.948c.02.613.203 1.002.57 1.186zm46.461-10.729c.02-.082.081-.122.183-.122h2.262c.061 0 .122.02.163.081a.2.2 0 0 1 .021.184l-4.443 12.813c-.04.082-.102.123-.183.123h-1.549c-.102 0-.163-.041-.183-.123l-2.914-8.664-2.853 8.684c-.02.082-.102.123-.183.123h-1.549c-.102 0-.163-.041-.183-.123l-4.545-12.792c-.02-.061 0-.122.021-.184.04-.041.081-.082.163-.082h2.241c.102 0 .163.041.184.123l2.914 8.317 2.669-8.317c.02-.082.082-.123.183-.123h1.834c.102 0 .163.041.184.123l2.71 8.297 2.853-8.338zm36.638-.163c1.814 0 3.363.633 4.626 1.9 1.284 1.288 1.936 2.82 1.936 4.639 0 1.819-.632 3.372-1.895 4.659-1.264 1.287-2.812 1.921-4.626 1.921-1.814 0-3.342-.634-4.626-1.9-1.283-1.288-1.936-2.821-1.936-4.639 0-1.819.632-3.352 1.896-4.639 1.283-1.287 2.832-1.941 4.625-1.941zm.041 10.667c1.141 0 2.099-.409 2.894-1.226a3.991 3.991 0 0 0 1.202-2.902c0-1.124-.408-2.084-1.223-2.881-.795-.797-1.773-1.206-2.893-1.206-1.121 0-2.079.409-2.874 1.226-.794.797-1.202 1.757-1.202 2.902 0 1.144.408 2.105 1.223 2.902.794.776 1.752 1.185 2.873 1.185zm38.921-9.891a5.074 5.074 0 0 1 2.812-.817c.305 0 .591.02.876.061.122.02.183.082.163.225l-.407 2.043c-.021.123-.102.164-.225.143-.122-.02-.265-.02-.387-.02a2.68 2.68 0 0 0-1.875.736 2.711 2.711 0 0 0-.917 1.777l.021 7.909-.184.184h-2.119l-.183-.184-.041-12.772.183-.184h2.099c.123 0 .184.061.184.184v.715zm42.835-1.042c.081 0 .143.041.183.123.041.081.021.163-.04.224l-5.095 4.925 6.297 7.541c.041.061.061.143.02.204-.02.082-.081.123-.163.123h-2.751c-.061 0-.122-.021-.142-.082l-5.054-6.069-.632.592.021 5.375c0 .122-.061.184-.184.184h-2.119c-.122 0-.183-.062-.183-.184l-.061-20.537c0-.123.061-.184.183-.184h2.119c.122 0 .184.061.184.184l.04 11.688 4.218-4.046c.021-.041.082-.061.123-.061h3.036zm29.689 3.229c.041-1.451 1.06-3.372 4.259-3.249 1.956.081 3.261 1.267 3.322 1.328.081.082.122.163.02.266-.102.102-1.284 1.267-1.345 1.307-.061.062-.142.103-.244.021-.102-.082-.754-.634-1.916-.675-1.141-.04-1.773.348-1.813 1.043-.041.817.57 1.124 2.608 2.002 2.18.94 3.546 2.166 3.321 4.435-.224 2.227-2.18 3.331-4.442 3.31-2.201-.02-3.566-1.083-4.035-1.512-.081-.082-.122-.164.021-.307a85.454 85.454 0 0 1 1.467-1.41c.061-.061.143-.122.285-.04.143.081.775.756 2.262.817 1.284.061 2.079-.45 2.099-1.308.02-.695-.143-1.144-2.629-2.186-2.547-1.083-3.28-2.207-3.24-3.842z" fill="#1D1D1B"/><path d="M197.803 42.423l5.807-5.926-7.845-7.847-5.828 5.946a34.814 34.814 0 0 0-6.989-3.8c-4.178-1.676-8.762-2.494-13.775-2.473-4.993.02-9.598.878-13.796 2.574-4.198 1.697-7.825 4.047-10.861 7.05-3.036 3.005-5.38 6.52-7.05 10.524-1.671 4.006-2.486 8.338-2.466 12.977.02 4.639.876 8.97 2.547 12.976 1.691 4.005 4.055 7.48 7.132 10.483 3.057 2.984 7.051 5.354 11.31 6.907 9.414 3.454 19.704 1.492 23.311 7.929a11.292 11.292 0 0 1 1.488 5.681c0 2.084-.469 3.985-1.447 5.681-.978 1.696-2.343 3.024-4.075 4.005-1.733.981-3.709 1.471-5.951 1.471-2.282 0-4.299-.47-6.031-1.43a10.615 10.615 0 0 1-4.055-3.944c-.979-1.676-1.468-3.556-1.468-5.681 0-1.655.367-3.147.958-4.537h-12.063a23.848 23.848 0 0 0-.428 4.578c.02 3.126.591 6.028 1.711 8.705a21.508 21.508 0 0 0 4.789 7.05c2.058 2.003 4.504 3.576 7.336 4.68 2.832 1.124 5.93 1.675 9.292 1.655 3.362-.02 6.439-.593 9.251-1.716 2.812-1.145 5.237-2.718 7.295-4.741a21.208 21.208 0 0 0 4.769-7.071c1.121-2.697 1.671-5.599 1.65-8.726 0-3.126-.591-6.028-1.711-8.705-1.019-2.411-2.486-4.516-4.259-6.376a32.426 32.426 0 0 0 7.662-5.558c3.077-3.004 5.44-6.519 7.091-10.524 1.671-4.005 2.486-8.337 2.466-12.976-.021-4.639-.877-8.971-2.568-12.956a29.655 29.655 0 0 0-3.199-5.885zm-8.681 29.998c-1.936 3.331-4.605 5.967-8.029 7.888-3.423 1.942-7.335 2.902-11.737 2.922-4.524.02-8.477-.94-11.88-2.84-3.403-1.9-6.072-4.496-7.988-7.786-1.936-3.29-2.893-7.03-2.914-11.198-.02-4.19.938-7.929 2.833-11.219 1.895-3.29 4.544-5.906 7.947-7.847 3.382-1.941 7.336-2.902 11.859-2.922 4.402-.02 8.314.94 11.758 2.84 3.444 1.9 6.134 4.496 8.09 7.786 1.956 3.29 2.934 7.03 2.955 11.198 0 4.128-.958 7.847-2.894 11.178z" fill="#ED982A"/><path d="M93.736 73.73c4.49 0 8.13-3.651 8.13-8.154s-3.64-8.154-8.13-8.154-8.13 3.65-8.13 8.154c0 4.503 3.64 8.153 8.13 8.153z" fill="#FABF38"/><path d="M174.308 67.231c3.218 0 5.828-2.617 5.828-5.844 0-3.228-2.61-5.845-5.828-5.845-3.219 0-5.828 2.617-5.828 5.845 0 3.227 2.609 5.844 5.828 5.844z" fill="#ED982A"/><path d="M43.71 26.974l-7.398-7.52C42.447 13.384 49.843 8.562 58.28 5.17 66.716 1.778 76.028.02 85.972 0c9.944-.04 19.257 1.635 27.632 4.986l-3.892 9.809c-7.132-2.84-15.12-4.271-23.7-4.23-8.598.02-16.586 1.512-23.78 4.414-7.152 2.86-13.387 6.907-18.523 11.995z" fill="#FABF38"/></g><defs><clipPath id="clip0"><path fill="#fff" d="M0 0h540v140H0z"/></clipPath></defs></svg>