<svg xmlns="http://www.w3.org/2000/svg" viewBox="0 0 920 905" preserveAspectRatio="none"><path d="M282.21-.65c-58.65.28-138.71.53-196.85 6.31-17.71 1.76-35.93 4.18-51.04 11.48-38.08 18.33-21.61 58.54-22.37 92.98C9.49 223.39 6.99 503.73 4.54 617c-1.84 83.39-6.81 162.29 9.61 248.52 1.56 8.21 11.99 11.11 17.61 14.68 6.28 3.98 40.92 4.96 49.03 5.25 166.09 5.25 314.83 9.92 480.97 15.17 87.95 2.79 176.15 5.54 263.84 0l33.07-.86c51.86-4.51 45.94-18.33 54.51-32.59 8.57-14.27 8.83-30.58 8.83-46.28.1-37.92.26-75.88.36-113.81.1-37.27-1.02-74.53-4.39-111.72-18.53-202.73 4.9-445.59.2-544.56-.66-13.61-3.16-29.07-17.56-37.06-9.19-5.12-21.23-5.9-32.57-6.48C729.64.37 590.81-1.19 451.98-1.19c-56.61 0-113.16.25-169.77.54z" fill="#fff"/></svg>