<svg xmlns="http://www.w3.org/2000/svg" viewBox="0 0 570 330"><path d="M570 0H0v330h570V0zM120.61 15.24h.5c21.56-.13 43.11-.24 64.68-.24 52.89 0 295.78.69 348.52 3.75 4.32.25 8.91.6 12.41 2.87 5.48 3.55 6.44 10.4 6.69 16.44.68 16.59-.18 27.81-1.12 40.21-1.55 20.41-3.35 44 1.04 99.94 1.28 16.49 1.71 33.02 1.67 49.54-.02 8.41-.04 16.82-.07 25.24-.02 8.41-.05 16.83-.07 25.24 0 6.96-.1 14.2-3.36 20.53-3.27 6.33-10.73 12.45-30.49 14.45l-2.88.38c-33.41 2.46-67.01 1.24-100.52 0-31.65-1.16-109.13-2.26-186.61-3.36-77.49-1.1-154.98-2.2-186.62-3.36-3.09-.13-13.05-.56-15.44-2.33-2.14-1.58-3.05-4.11-3.79-6.51-11.12-35.64-10.52-73.24-9.82-110.22.47-25.12.94-43.42 1.41-61.72.47-18.3.94-36.6 1.41-61.72.29-15.27 2.12-33.11 16.63-41.24 5.76-3.24 12.7-4.31 19.45-5.09 21.97-2.55 44.2-2.67 66.38-2.8z" fill-rule="evenodd" clip-rule="evenodd" fill="#f4f4f4"/></svg>